<svg width="100" height="80" viewBox="0 0 133 147" fill="none" xmlns="http://www.w3.org/2000/svg">
<path d="M121.7 96.2682C117.067 108.951 107.975 119.513 96.1227 125.981C84.2705 132.449 70.4688 134.381 57.2961 131.416C39.1922 127.437 24.3373 113.857 18.2848 98.7415C6.8556 70.1685 19.0529 40.5356 43.962 27.7008C89.6019 4.12045 139.098 49.6298 121.7 96.2682ZM123.644 77.7035C123.731 70.5706 122.408 63.4907 119.749 56.8711C117.091 50.2516 113.15 44.2229 108.153 39.1319C103.156 34.0409 97.2021 29.988 90.6334 27.2063C84.0646 24.4246 77.0107 22.969 69.8774 22.9233C62.6676 22.8655 55.5187 24.2472 48.8498 26.9876C42.1808 29.728 36.1258 33.7719 31.0397 38.8823C25.9536 43.9927 21.9387 50.0669 19.2301 56.7489C16.5216 63.4308 15.174 70.5862 15.2662 77.7957C15.4366 92.0507 21.2269 105.662 31.3784 115.671C41.5299 125.681 55.2219 131.278 69.478 131.247C83.7408 131.262 97.4328 125.646 107.576 115.619C117.72 105.592 123.494 91.9655 123.644 77.7035Z" fill="#191919"/>
<path d="M107.268 98.488C96.5149 113.335 87.8509 111.776 88.7035 108.005C89.3794 105.017 94.1415 99.8629 94.3489 96.6677C94.4641 94.9548 92.9664 95.5309 91.3995 96.1915C89.3717 97.0517 86.3838 97.6355 85.9076 95.4848C85.3008 92.7658 90.8848 85.3076 90.1091 82.7422C89.6713 81.2982 87.1826 82.1584 85.585 82.5118C84.2485 82.8036 83.0734 82.5118 83.4881 81.2982C84.5404 78.1029 87.4131 73.0028 86.3838 70.6294C85.8692 69.4466 84.0027 70.929 83.3575 71.313C78.5186 74.1703 79.1331 73.9629 77.9809 74.1242C77.8394 74.1299 77.6981 74.1071 77.5656 74.0572C77.433 74.0073 77.3117 73.9314 77.209 73.8339C77.1062 73.7365 77.0238 73.6197 76.9664 73.4902C76.9091 73.3607 76.878 73.2212 76.8749 73.0796C76.9472 72.4212 77.1074 71.7754 77.3511 71.1594C78.4187 67.2729 78.7183 66.8965 78.2651 66.5509C77.5969 66.0516 76.9133 66.5509 75.1928 67.5033C69.048 70.9443 72.1204 69.7 70.5842 65.56C70.3384 64.8918 69.7624 64.7919 69.2861 65.3142C65.2153 69.5541 65.9603 68.809 65.6147 69.5157C62.7266 66.1515 57.4576 66.1515 55.3069 67.1576C55.3428 67.0199 55.3558 66.8772 55.3453 66.7352C55.0381 64.8303 54.9689 64.6076 54.3775 64.7766C52.7799 65.2528 52.9565 64.4156 52.6109 60.7825C52.4189 58.8239 52.1885 60.1373 49.1622 62.649C47.6644 63.9009 47.3572 61.4123 46.8041 60.3447C45.9132 61.0129 42.5182 66.5662 42.2417 64.0699C42.0727 62.5337 42.4337 62.2649 41.9575 62.2265C40.6978 62.1267 39.8068 62.2265 40.1294 61.5429C41.8346 57.8023 47.7412 51.2351 50.6523 48.2857C53.5633 45.3362 52.8951 45.0674 56.3899 39.4066C57.9875 36.8181 61.8664 31.0344 64.547 29.5673C65.0463 32.2864 64.2014 34.798 65.3151 35.328C66.0832 35.689 67.1432 29.9514 67.5656 35.1821C67.6501 36.1959 67.9343 37.9549 68.0956 40.021C68.4028 43.8999 68.3952 43.0396 65.7913 43.5235C64.1015 43.8384 64.5701 45.1749 66.4749 45.221C71.9181 45.0339 77.3577 45.6815 82.6048 47.1412C82.3399 47.5491 82.1693 48.0109 82.1056 48.4931C82.1056 48.9923 82.167 49.0461 82.697 48.9923C83.4651 50.5285 84.0258 48.5852 87.8509 43.8538C88.5575 42.9782 89.3871 42.2178 90.1936 41.4036C90.3325 41.5331 90.5108 41.6126 90.7 41.6293C90.8893 41.646 91.0787 41.599 91.2381 41.4958C91.2067 41.5683 91.1935 41.6474 91.1998 41.7262C91.4455 43.777 93.504 39.5141 97.7976 37.1176C98.1049 36.9487 98.3353 36.8565 98.2969 36.4724C98.8952 40.2973 99.0858 44.1748 98.8653 48.0399C98.3891 65.8903 98.0511 58.1864 107.268 98.488ZM76.6982 58.9314C75.2619 55.5595 71.5674 59.8838 73.0882 62.8256C74.4861 65.537 78.0808 62.1036 76.6982 58.9314ZM61.4286 57.6333C61.4286 55.8667 60.023 54.8836 58.9323 55.6977C58.3011 56.1991 57.8363 56.8798 57.5991 57.6502C57.362 58.4207 57.3635 59.2448 57.6035 60.0144C58.4637 62.1804 61.3979 61.0206 61.4286 57.6333Z" fill="#38A1FF"/>
<path d="M69.3167 122.606C88.3423 122.875 105.947 110.171 112.399 92.9734C123.022 64.6692 103.466 45.5745 101.784 42.8017C101.408 42.1719 102.076 41.4268 102.698 41.9261C113.889 50.7822 125.979 77.4887 109.757 103.074C89.5943 134.873 38.501 131.724 24.0532 92.4972C14.8361 67.5112 29.1533 36.7415 57.035 29.8671C57.7186 29.6981 58.4943 30.6352 57.8031 31.1575C56.5664 32.0869 51.7198 33.3081 46.5045 36.4266C13.9144 55.9514 16.595 101.008 47.7795 117.337C57.2961 122.322 64.6314 122.384 69.286 122.714L69.3167 122.606Z" fill="#191919"/>
<path d="M107.114 97.8357C100.094 67.1121 98.5424 64.4391 98.6652 55.3526C98.7497 49.4537 99.5101 43.8927 98.4809 37.1642C98.3196 36.0735 97.9202 35.4283 96.384 36.6189C91.0612 40.7589 91.5527 42.441 90.2393 41.4655C91.0074 39.6221 91.4913 38.831 90.5081 39.3226C88.5341 40.2904 84.4556 46.1048 83.0039 48.5396C82.4432 49.4767 81.9746 49.0005 82.182 48.2094C82.5507 46.7807 83.5569 46.5733 82.8579 46.2046C77.2033 44.6462 71.3318 44.0235 65.4761 44.3612C64.37 44.4304 64.516 43.8697 64.9461 43.6469C66.3824 42.8788 68.0184 43.7314 68.0184 42.5716C68.0184 40.3825 67.596 35.8354 67.3579 33.7693C67.3522 33.4815 67.2368 33.2067 67.0353 33.0012C66.2134 33.8922 66.1981 35.6665 65.1458 35.413C63.6096 35.052 66.8356 24.2987 60.9443 31.3498C55.6983 37.6328 57.004 35.7586 52.2956 44.3536C51.8578 45.1216 52.2342 45.521 50.8824 46.7884C44.9066 52.4108 39.6759 59.9151 39.0154 61.8353C38.9441 61.9752 38.9101 62.1311 38.9166 62.2879C38.9231 62.4448 38.9699 62.5973 39.0525 62.7309C39.1351 62.8644 39.2507 62.9744 39.3881 63.0503C39.5256 63.1261 39.6802 63.1653 39.8372 63.1641C40.3442 63.2409 40.4287 63.4175 40.1982 63.8861C39.9678 64.3546 34.7371 74.1708 36.5037 74.9389C37.364 75.3153 37.3333 75.0695 35.8969 79.0098C33.0857 86.6907 34.1226 92.6126 34.9061 98.3196C35.0597 99.4179 33.9767 98.7574 34.2763 99.8557C35.198 103.182 35.1365 102.498 34.7525 103.358C34.5373 103.294 34.3328 103.198 34.1457 103.074C33.2805 101.965 32.6884 100.668 32.4175 99.2874C32.3097 98.8983 32.3351 98.4844 32.4896 98.1114C32.6441 97.7384 32.9188 97.4278 33.2701 97.2289C33.7463 96.9063 31.8875 92.9352 32.502 86.1991C33.1856 78.5182 35.6204 76.5135 35.0136 76.1218C34.6706 75.8988 34.4123 75.5673 34.28 75.1801C34.1477 74.793 34.1491 74.3727 34.2839 73.9865C35.0367 71.3873 36.0505 68.871 37.3102 66.4745C38.5545 64.0627 39.0384 64.1011 38.5468 63.8861C36.9492 63.2102 37.6712 61.4205 38.5084 59.9535C40.1677 57.0118 42.1376 54.2565 44.3843 51.7349C45.452 50.8823 47.1955 48.3476 50.0912 45.9742C50.5137 45.6286 51.5583 41.9187 57.1884 34.2148C58.3252 32.6786 61.7969 28.3005 63.6711 27.8473C64.7771 27.5785 65.6681 28.6154 65.8063 29.5755C66.0829 31.5341 65.9676 32.2177 66.3901 31.7646C69.1168 28.8612 69.0554 38.1167 69.1322 42.0954C69.1322 43.0017 68.9786 43.0017 69.6622 43.0017C78.9253 43.0017 83.3572 45.7054 83.8718 44.9066C85.5155 42.4459 87.464 40.2032 89.6709 38.2319C90.7616 37.2257 91.6987 36.9953 92.2978 38.3471C93.6342 37.6404 98.1045 32.4866 99.6023 35.9891C101.484 40.3825 100.055 52.887 100.132 56.4356C100.324 65.1842 101.738 65.983 105.939 84.3326C108.09 93.7341 107.852 93.711 108.143 97.2519C108.259 98.5423 107.537 99.6868 107.114 97.8357Z" fill="#191919"/>
<path d="M65.2689 69.1167C66.8973 71.0983 63.871 73.7252 61.5975 74.9465C56.144 77.7884 52.5878 70.891 54.4389 68.0337C55.9597 65.6449 63.0645 66.4207 65.2689 69.1167ZM55.4527 69.1167C55.5449 69.5007 55.8752 69.4085 56.121 69.3855C58.7709 69.109 62.4731 70.2995 63.4409 69.9923C62.1658 68.4331 55.1071 67.7034 55.4527 69.1243V69.1167Z" fill="#191919"/>
<path d="M53.5013 82.2583C53.5013 81.5747 53.5013 81.5824 52.7333 81.4902C49.5303 81.1369 48.3014 78.0108 48.9619 75.2303C49.1155 74.6081 49.73 74.6465 49.8376 75.3301C49.9781 76.248 50.1755 77.1567 50.429 78.0492C50.7362 79.186 52.5566 80.1384 53.678 79.8926C57.5799 79.0477 57.3802 75.6911 59.2313 79.8542C59.7997 81.1292 62.7491 84.1862 66.2363 81.4902C67.0044 80.8834 67.7725 80.2306 68.5405 79.5854C68.9553 79.2397 68.94 79.232 68.4253 79.0016C68.0643 78.8326 67.5574 78.6176 67.7033 78.2335C68.3024 76.7818 72.3119 78.6099 71.0368 81.544C70.6912 82.3121 70.2687 81.2368 69.9922 80.6914C69.7157 80.1461 69.6082 80.6914 69.0168 81.2598C63.0717 87.1434 60.3911 82.3121 59.7152 83.349C56.8195 87.827 53.3016 85.3691 53.5013 82.2583ZM56.9424 84.0172C57.6413 83.7254 59.0086 82.3966 58.8242 82.1431C58.6399 81.8896 58.4248 81.5594 58.2174 81.5747C56.543 81.5747 55.3448 82.4657 55.3832 82.8113C55.5291 84.2938 55.6981 84.5626 56.9193 84.0249L56.9424 84.0172Z" fill="#191919"/>
<path d="M70.9142 28.2464C81.414 28.3693 91.6527 33.0316 93.1888 34.9288C93.6804 35.5586 93.1888 36.3113 92.4899 36.0502C75.6457 29.483 78.2188 31.5185 68.1952 29.7519C67.742 29.6751 66.851 29.0222 67.5884 28.6842C68.8634 28.1081 69.0554 28.231 70.9142 28.2464Z" fill="#191919"/>
<path d="M94.9787 46.9265C94.2721 55.0145 94.4487 53.2633 94.0493 56.4355C93.7421 58.7935 91.0999 55.3218 87.2901 52.7487C86.307 52.0804 86.522 51.9422 88.5652 48.5242C89.1182 47.5948 89.5944 47.1723 90.1013 48.0863C90.2165 48.2937 90.1013 48.3168 90.3318 48.8544C90.9616 48.1939 90.6313 47.9558 93.1891 44.484C93.4502 44.123 93.7574 43.7159 94.2874 43.8926C94.8174 44.0692 94.8481 44.7605 94.9787 46.9265Z" fill="#191919"/>
<path d="M59.9995 45.1212C58.1638 44.8908 54.354 47.4255 55.1298 45.2518C55.6828 43.7156 56.666 41.4114 57.8872 40.29C58.4787 39.76 58.6092 40.7047 58.9318 40.0442C60.1915 37.5018 61.4589 34.752 62.1271 36.4879C62.3959 37.1792 61.3052 45.2825 59.9995 45.1212Z" fill="#191919"/>
<path d="M83.1885 54.4386C82.4818 56.666 81.7214 54.5922 79.4018 52.2956C77.4432 50.3523 74.9699 53.8318 74.1327 53.3402C72.9498 52.672 75.0621 49.7072 77.9732 49.7072C79.9548 49.7072 80.9457 50.867 82.5817 53.1482C82.829 53.556 83.0318 53.9885 83.1885 54.4386Z" fill="#191919"/>
<path d="M77.0434 60.2991C76.4904 65.622 71.5516 64.178 72.9725 60.0687C73.9864 57.1423 75.9374 57.2037 76.6978 58.9319C76.8498 59.3774 76.9658 59.8352 77.0434 60.2991ZM75.0233 60.2069C75.0233 59.3467 73.9787 59.3851 73.9787 60.3375C73.9787 60.9059 75.008 60.8291 75.008 60.2069H75.0233Z" fill="#191919"/>
<path d="M61.4285 57.6336C61.3594 61.0439 58.4637 62.1653 57.588 60.0147C56.5972 57.5414 59.3546 53.87 60.9369 56.036C61.2735 56.4992 61.4464 57.0613 61.4285 57.6336ZM60.1535 57.9024C60.129 57.74 60.0532 57.5898 59.937 57.4736C59.8209 57.3575 59.6706 57.2817 59.5083 57.2572C59.3414 57.2815 59.1892 57.366 59.0802 57.4948C58.9713 57.6235 58.9132 57.7876 58.9168 57.9562C58.9392 58.1086 59.0173 58.2472 59.136 58.3453C59.2547 58.4434 59.4056 58.4941 59.5594 58.4874C59.7133 58.4807 59.8592 58.4172 59.9689 58.3091C60.0786 58.2011 60.1444 58.0562 60.1535 57.9024Z" fill="#191919"/>
<path d="M60.0155 48.6779C60.6391 48.6848 61.2539 48.8256 61.8184 49.0906C62.3829 49.3556 62.8839 49.7387 63.2876 50.214C63.7638 51.0513 63.0341 51.5966 62.435 51.3124C61.8233 50.936 61.1648 50.6417 60.4764 50.4368C58.8403 50.1219 57.404 53.1251 56.7281 52.3186C56.5837 52.1172 56.5105 51.8734 56.5203 51.6258C56.53 51.3781 56.6221 51.1408 56.7819 50.9514C57.1118 50.351 57.5747 49.8339 58.1352 49.4399C58.6957 49.0458 59.3388 48.7852 60.0155 48.6779Z" fill="#191919"/>
<path d="M121.7 8.58297C122.023 9.47396 122.046 9.95017 122.33 14.3667C122.46 16.4789 122.268 16.7785 122.783 16.5173C131.017 12.2084 133.636 12.6769 132.545 13.445C124.096 19.1288 122.56 18.9445 123.328 19.3286C124.096 19.7126 131.317 23.0922 130.856 24.06C130.249 25.335 124.65 22.639 123.175 21.9861C122.921 21.8786 122.599 21.6251 122.622 22.1014C122.676 23.338 123.075 29.7823 121.854 29.5211C120.317 29.1601 120.317 23.8142 120.233 21.1489C120.233 20.5805 120.333 20.7956 115.156 23.2996C112.913 24.3903 112.698 22.6467 113.919 21.7634C115.082 20.9292 116.29 20.1599 117.537 19.4591C117.875 19.2748 118.305 19.6204 112.061 16.2485C110.855 15.6033 109.879 15.3114 110.171 14.4589C110.532 13.4066 112.521 14.0979 113.543 14.5587C120.364 17.6311 120.141 18.5374 120.049 16.7017C120.049 16.6249 119.964 10.557 119.949 9.34338C119.933 7.65358 121.377 7.69199 121.7 8.58297Z" fill="#38A1FF"/>
<path d="M18.1692 12.047C18.8682 11.7782 21.6026 10.1652 24.8055 8.5445C26.2111 7.83018 28.7151 7.30019 27.5399 8.46769C26.2922 9.68105 24.9141 10.7527 23.4307 11.6629C16.6561 15.9873 18.1232 13.107 23.4307 18.0151C23.9837 18.5297 23.2233 19.1288 22.4629 19.0059C21.0189 18.7678 19.9666 17.9766 18.1616 16.9858C17.7468 16.7631 17.9081 16.9167 17.7084 20.9108C17.5164 24.636 17.5932 24.9586 17.117 25.1506C15.2505 25.9187 15.865 18.4836 15.9571 16.4789C15.9571 15.9796 16.0724 15.9643 11.7864 18.3761C9.6204 19.5973 9.2978 20.1657 8.71405 19.7509C6.87064 18.4068 12.2473 15.5034 13.7374 14.5894C14.1675 14.3282 14.0139 14.5894 10.1043 11.855C9.29802 11.3177 8.52824 10.7275 7.80003 10.0884C7.70993 9.96795 7.65969 9.82241 7.65631 9.67207C7.65293 9.52172 7.69658 9.37407 7.78116 9.24973C7.86575 9.12539 7.98705 9.03056 8.12813 8.97849C8.26921 8.92642 8.42303 8.9197 8.56812 8.95927C10.0121 9.40476 9.67417 9.25882 15.1276 12.385C15.6269 12.6691 16.057 13.153 16.08 12.577C16.5025 1.05562 16.7099 0.817514 17.3013 0.840557C17.7161 0.840557 17.9004 1.1862 17.9849 2.82223C18.3075 9.42012 17.9849 12.047 18.1692 12.047Z" fill="#38A1FF"/>
<path d="M71.8892 4.30505C72.4856 4.32694 73.0502 4.57933 73.4643 5.00912C73.8783 5.4389 74.1094 6.01255 74.109 6.60932C74.0621 7.23405 73.7815 7.81815 73.3231 8.2452C72.8647 8.67226 72.2623 8.91091 71.6358 8.91359C71.0596 8.83842 70.5311 8.55451 70.1503 8.11566C69.7694 7.67681 69.5629 7.11351 69.5696 6.53252C69.6162 5.94153 69.8782 5.38823 70.3058 4.97762C70.7334 4.56701 71.2969 4.32768 71.8892 4.30505Z" fill="#38A1FF"/>
<path d="M2.46178 53.317C-0.203496 53.4323 -0.610584 49.0695 2.52322 49.0618C3.06207 49.0947 3.56868 49.3296 3.94177 49.7198C4.31486 50.11 4.52694 50.6266 4.53562 51.1664C4.53218 51.7226 4.31491 52.2561 3.92884 52.6565C3.54277 53.0569 3.01747 53.2934 2.46178 53.317Z" fill="#38A1FF"/>
<path d="M27.1099 143.529C26.8872 146.502 26.964 146.678 26.58 146.763C26.4649 146.793 26.3429 146.779 26.2378 146.723C26.1326 146.668 26.052 146.575 26.0116 146.463C25.7463 145.93 25.5427 145.368 25.4048 144.789C24.6367 140.357 25.1129 140.242 24.5292 140.603C23.1662 141.519 21.7118 142.291 20.1895 142.907C19.068 143.383 18.5381 142.193 19.2601 141.371C19.9821 140.549 20.4583 140.534 23.5921 138.298C23.8072 138.145 23.5921 138.076 19.959 135.464C19.7516 135.311 19.4905 135.211 19.2601 135.065C19.1377 135.003 19.0357 134.908 18.9664 134.79C18.8972 134.671 18.8636 134.536 18.8699 134.399C18.8755 134.262 18.9203 134.13 18.999 134.018C19.0778 133.906 19.187 133.818 19.3138 133.767C20.4737 133.183 22.6627 134.727 23.8225 135.503C25.1897 136.417 24.6674 136.908 25.0054 129.773C25.0515 128.651 25.136 127.538 25.9348 127.553C26.7336 127.568 26.8181 128.651 26.8642 129.796C27.1714 136.586 26.964 135.042 27.133 135.787C28.8842 134.934 34.8139 130.725 32.4559 133.905C27.471 140.564 25.7735 135.741 32.8399 141.586C33.3929 142.039 32.9935 142.669 32.3253 142.569C29.3758 142.154 27.1253 139.719 27.0562 140.464C26.9871 141.21 26.964 140.395 27.1099 143.529Z" fill="#38A1FF"/>
<path d="M125.464 121.546C125.64 122.629 123.981 124.296 122.975 124.227C122.28 124.21 121.618 123.929 121.123 123.441C120.628 122.953 120.337 122.295 120.31 121.6C120.325 118.044 125.464 118.028 125.464 121.546Z" fill="#38A1FF"/>
</svg>
