<svg width="100" height="80" viewBox="0 0 135 122" fill="none" xmlns="http://www.w3.org/2000/svg">
<path d="M99.0065 119.244C4.14733 119.451 7.52692 119.182 4.16268 118.007C2.19637 117.324 2.4268 115.864 1.4206 114.643C0.929025 114.044 0.399043 114.597 0.360638 115.411C0.168616 119.474 3.57894 120.857 7.66517 121.333C8.67137 121.456 116.312 122.186 125.989 121.395C133.294 120.803 133.194 119.459 134.577 116.625C135.299 115.15 134.531 113.821 133.709 115.089C133.068 115.755 132.56 116.537 132.211 117.393C131.243 119.167 129.146 119.244 99.0065 119.244Z" fill="#191919"/>
<path d="M11.2522 107.362C14.6702 108.821 17.6504 108.191 39.4027 108.545C58.605 108.852 110.52 108.76 117.149 108.383C121.757 108.122 122.364 107.946 123.509 107.139C125.045 106.064 124.138 103.652 123.063 102.124C109.299 82.6602 108.608 85.2256 73.3523 85.1795C24.8013 85.0643 25.3083 82.2607 11.9051 100.964C11.0961 101.989 10.4627 103.141 10.031 104.374C9.82228 104.934 9.83203 105.553 10.0583 106.106C10.2845 106.66 10.7107 107.108 11.2522 107.362ZM39.6715 107.116C33.6881 107.024 27.7662 106.939 23.9103 107.016C23.2114 107.016 23.3112 107.155 25.2852 103.852C26.7753 101.355 26.6447 101.371 27.0595 101.355C43.343 100.864 42.0987 100.772 41.9528 101.248C39.9788 107.854 40.478 107.124 39.6869 107.116H39.6715ZM43.9805 93.0524C44.595 93.0524 44.5873 92.6453 43.2124 96.9927C42.4444 99.4429 42.5519 99.4199 42.2062 99.4276C36.8296 99.5658 30.3162 99.8193 27.8506 99.9499C27.4359 99.9499 27.5434 99.9883 30.2394 95.518C31.4991 93.4288 31.476 93.352 31.9138 93.352C32.5514 93.3596 31.9676 93.3673 43.9959 93.0524H43.9805ZM56.3852 104.359C56.1394 107.085 56.2777 107.101 55.7938 107.093C53.0363 107.055 41.3153 107.523 41.5303 106.84C43.4659 100.695 43.2048 100.856 43.7578 100.856C45.5474 100.856 54.0348 100.749 56.3161 100.664C56.8998 100.649 56.7385 100.626 56.4006 104.359H56.3852ZM56.5081 99.2355C54.9719 99.1895 46.8455 99.4813 44.2186 99.3738C43.6656 99.3738 43.8346 99.2816 43.8807 99.1126C44.0881 98.4521 45.3631 94.3582 45.6012 93.3981C45.7779 92.6914 45.7395 93.183 57.2224 92.8911C57.6909 92.8911 57.5757 92.8911 57.2685 95.7023C56.9229 99.2739 57.0611 99.2739 56.5234 99.2739L56.5081 99.2355ZM71.8008 98.79C71.2861 92.2766 71.0327 92.9218 72.0312 92.9372C82.1162 93.0524 83.3528 93.1062 83.4604 93.1215C84.0518 92.9986 84.2285 93.3596 84.336 93.8282C86.164 99.9729 86.4252 99.5197 85.2807 99.5044C70.2876 99.2739 71.8545 99.3277 71.8161 98.79H71.8008ZM99.1678 93.5133C99.79 93.5133 99.621 93.4518 102.24 97.8146C103.592 100.119 103.577 100.042 103.139 100.034L87.8385 99.5965C87.3853 99.5965 87.5466 99.5965 86.2409 95.518C85.4267 92.9756 85.3422 93.1599 85.8645 93.1523C85.7723 93.1292 97.5011 93.5209 99.1832 93.5133H99.1678ZM72.4383 107.024C72.0465 107.024 72.1925 107.024 72.0773 104.451C71.8929 100.28 71.747 100.664 72.3461 100.672C87.7079 100.91 86.5404 100.825 86.694 101.325C88.7679 107.738 88.9061 107.208 87.7617 107.193C87.777 107.116 79.282 107.147 72.4536 107.024H72.4383ZM90.3348 107.293C89.7587 107.293 89.9277 107.362 88.6066 103.184C87.8922 100.933 87.7924 100.994 88.3608 101.01C105.159 101.386 104.16 101.256 104.36 101.624C107.532 107.439 107.525 107.001 106.987 107.001C107.079 107.101 94.6438 107.024 90.3501 107.293H90.3348ZM121.22 101.87C123.478 104.873 124.016 106.563 119.783 106.824C116.398 107.102 113.001 107.2 109.606 107.116C108.769 107.116 108.723 107.032 108.562 106.701C107.793 105.211 105.866 101.655 105.858 101.647C105.604 101.271 105.935 101.425 107.463 101.448C120.705 101.64 121.243 101.509 121.235 101.87H121.22ZM120.152 100.518C119.745 100.61 121.435 100.595 105.274 100.103C104.913 100.103 105.036 100.196 101.434 93.9588C101.119 93.4211 100.343 93.544 112.356 93.9588C115.182 94.0509 115.175 93.9588 115.428 94.2814C115.436 94.2122 119.614 99.5351 120.167 100.518H120.152ZM96.948 86.5236C104.053 86.5621 108.316 87.2917 112.924 91.6314C114.176 92.7989 113.961 92.6146 114.069 92.8373C113.685 92.9295 101.103 92.3381 100.666 92.315C100.228 92.292 100.358 92.2613 97.455 87.6297C96.8405 86.6005 96.6792 86.5236 96.948 86.5236ZM92.9386 86.5236C94.9971 86.5236 95.2429 86.2471 95.5347 86.7387C99.1448 92.8066 98.6532 91.8158 98.753 92.2075C98.4304 92.2536 87.4237 91.7927 85.3345 91.7543C84.8506 91.7543 85.058 91.8772 83.3375 86.9307C83.1224 86.3163 82.3543 86.5467 92.9693 86.516L92.9386 86.5236ZM71.048 86.5236C81.2329 86.5236 81.9165 86.2702 82.0701 86.7233C82.9842 89.4654 83.4143 90.9171 83.6063 91.4164C83.8444 92.1 82.9381 91.4164 71.4628 91.5162C71.1018 91.5162 71.2324 91.6007 70.6947 87.1458C70.6025 86.4776 70.6947 86.5236 71.0788 86.5236H71.048ZM70.8867 106.44C70.8867 106.832 70.9789 107.055 70.5257 107.047H68.4749C56.4159 107.17 57.353 107.454 57.4605 106.371C58.0904 100.173 58.1211 100.779 58.1595 100.749C58.1979 100.718 57.1302 100.68 70.157 100.687C70.833 100.672 70.6025 100.08 70.9175 106.44H70.8867ZM59.3654 86.9154C59.3654 86.2932 59.3654 86.4929 69.0203 86.5236C69.5887 86.5236 69.4734 86.2855 69.7346 89.1121C69.9497 91.4164 70.0879 91.5316 69.5349 91.5239C58.7816 91.2858 58.9506 91.7543 59.0044 91.1859C59.0274 91.2628 59.3961 87.2072 59.3884 86.9154H59.3654ZM59.2271 92.8758C70.8099 92.9142 70.0802 92.7375 70.1033 93.1446C70.5027 99.7271 70.687 99.2279 70.0188 99.2279H58.7279C58.0904 99.2279 58.267 99.5197 58.6357 95.7638C58.9122 92.9526 58.6971 92.8681 59.2502 92.8758H59.2271ZM48.3202 86.4238C54.127 86.4238 57.5373 86.5006 58.0596 86.516C58.4129 86.516 58.2977 86.7233 58.1057 88.2979C57.7217 91.4625 57.8369 91.4701 57.4682 91.4701C45.1173 91.5239 46.0774 91.8926 46.2925 91.1706C47.8517 85.9015 47.5445 86.4238 48.3433 86.4238H48.3202ZM45.7318 86.37C46.8609 86.37 46.6151 86.0398 45.0175 91.2781C44.8638 91.8004 44.9022 91.6007 39.902 91.7467C38.5501 91.7851 33.3425 92.0693 32.4745 91.9464C32.7741 91.1783 32.8202 91.3396 35.5469 86.7464C35.8311 86.3163 35.2243 86.3777 45.7548 86.37H45.7318ZM32.2211 86.6926C32.955 86.602 33.6937 86.5559 34.4332 86.5544C34.2565 86.9768 34.4332 86.6926 31.1457 91.8081C29.3868 91.8619 20.7458 92.2382 20.6076 92.2152C21.4832 90.9632 26.2837 86.9845 32.2441 86.6926H32.2211ZM19.9316 93.3212C23.196 93.4902 28.1425 93.3212 29.5481 93.4057C30.3162 93.4057 30.1011 93.5286 29.9629 93.7667C28.6955 95.9097 27.336 98.1295 26.4681 99.7118C26.2223 100.15 26.4681 100.011 20.0008 100.226C13.9636 100.434 13.9559 100.549 14.2247 100.18C14.2939 100.18 19.0022 93.2675 19.924 93.3212H19.9316ZM11.3444 104.535C11.7504 103.604 12.2661 102.725 12.8806 101.916C13.2339 101.432 14.5627 101.609 21.8979 101.547C25.7768 101.547 25.7384 100.902 24.9012 102.316C22.113 107.3 22.4433 107.016 21.8672 107.001C18.6336 106.947 18.4108 107.001 13.4874 106.632C12.22 106.555 10.8451 105.749 11.3367 104.535H11.3444Z" fill="#38A1FF"/>
<path fill-rule="evenodd" clip-rule="evenodd" d="M40.4718 21.0842L40.4457 19.0956C35.9777 19.4466 31.6587 19.9082 29.6018 20.4751C26.3067 21.3814 24.8166 22.3339 23.9026 24.6535C23.242 26.3249 23.2289 65.4108 22.8656 68.5C23.5969 68.7842 25.2198 68.046 24.5155 32.9274C24.8296 28.6844 25.3642 25.4976 26.1684 24.2234H26.1377C27.5886 21.9291 34.973 21.2893 40.4718 21.0842ZM25.8996 80.4629C24.643 79.4944 23.603 75.1201 22.8656 69.1728C23.6745 68.8499 24.461 68.4734 25.2198 68.046C25.7091 73.2229 26.3366 77.3122 27.0364 79.1341C27.3052 79.9406 27.7507 80.1019 28.5725 79.9406C34.6105 78.7616 40.0847 78.8569 50.2273 79.0343C57.7223 79.1656 67.7659 79.3415 82.4694 79.0804C83.3481 79.0658 84.2483 79.0466 85.1639 79.0281H85.1677C91.2886 78.9022 98.1177 78.7616 103.976 79.5566C104.541 79.6326 105.025 79.7279 105.441 79.8093C106.749 80.0666 107.38 80.191 107.724 79.1649C108.981 75.3828 109.757 68.5061 110.189 60.9703C111.18 61.5 111.78 62.2944 112.662 62.8376C112.109 69.5223 111.151 75.5241 109.721 79.2954C109.561 79.7018 109.27 80.0044 109.056 80.2256C108.811 80.4806 108.669 80.6273 108.953 80.701C119.584 83.4508 125.674 91.5234 131.873 101.509C134.531 105.741 136.65 111.932 132.134 114.19C128.126 116.196 110.528 116.045 80.9517 115.792C62.7426 115.636 39.9925 115.442 13.0802 115.688C7.38862 115.741 0.0687228 115.511 -0.000405292 109.842C-0.0695334 104.466 6.152 96.3778 9.47783 92.1763C16.588 83.1827 22.8472 81.526 25.0962 80.9307C25.8381 80.7341 26.1431 80.6534 25.8996 80.4629ZM112.662 62.5C112.243 58.0297 111.612 26.0676 110.796 24.6919C108.134 20.204 102.633 19.515 93.619 18.8506C93.6474 19.5511 93.6766 20.2639 93.7043 20.9882C106.013 21.3884 109.05 22.1511 110.028 28.1867C110.235 29.4909 110.08 57.5385 110.189 60.9703C110.68 61.5 111.68 62 112.662 62.5ZM15.2892 89.3751L15.2838 89.3805H15.3145C15.3145 89.3689 15.3069 89.3666 15.2892 89.3751ZM35.2542 81.3309C28.6278 81.4768 20.0375 84.2942 15.2892 89.3751C14.5349 89.7407 -2.43602 109.379 3.68566 111.985L3.91839 112.085L3.92146 112.086C4.15112 112.184 4.36235 112.275 4.57588 112.359C7.0376 113.316 9.87339 113.312 45.3131 113.255H45.3154C61.4314 113.229 84.2883 113.192 116.918 113.23C117.545 113.23 118.156 113.233 118.751 113.234C130.099 113.271 135.422 113.288 130.743 104.581C127.547 98.7724 123.535 93.4518 118.83 88.7813C110.611 80.6818 97.6262 81.0874 89.8884 81.3293C89.1872 81.3516 88.5297 81.3716 87.9221 81.3846C65.3418 81.8501 56.4934 81.6105 49.5675 81.423C45.0657 81.3009 41.3758 81.2011 35.2542 81.3309Z" fill="#191919"/>
<path d="M25.1803 69.5L24.6803 60.5H23.1803V70L25.1803 69.5Z" fill="#191919"/>
<path d="M110.18 63V59.5C110.347 59.3333 110.98 56.1 112.18 56.5C113.38 56.9 112.68 64.8333 112.18 66L110.18 63Z" fill="#191919"/>
<path d="M93.9982 0.957726C93.6218 -1.41567 52.867 1.72581 49.8407 1.91016C37.5513 2.73969 38.2348 2.23275 38.3731 5.84278C39.6251 38.5481 37.5512 17.9248 40.4085 56.5367C40.2242 56.5367 40.8156 68.0581 41.4455 70.1089C41.7834 71.2457 42.0139 71.1304 45.0862 71.1151C45.7775 71.1151 49.0419 71.1151 50.0404 71.046C84.6813 69.4099 84.6044 69.8554 95.7802 68.1118C97.1858 67.8968 96.6942 66.5757 96.6711 56.0528C96.6481 48.6254 95.9799 13.6466 93.9982 0.957726ZM57.2835 68.8723C41.6221 69.5482 42.3672 69.6019 42.3749 69.1257C42.4901 58.096 41.0077 44.4086 40.6467 32.6952C40.4777 27.1726 40.4546 8.88442 40.0168 4.49094C39.9477 3.77662 40.0168 4.23747 52.9899 3.39257C64.2654 2.62448 81.0712 1.52611 92.4082 2.04841C93.5834 2.10218 95.0428 66.2761 95.0428 66.3529C95.0966 67.2209 90.3651 67.4282 57.2835 68.8415V68.8723Z" fill="#191919"/>
<path d="M88.2151 52.4197C88.2372 52.5321 88.2338 52.648 88.2051 52.7589C88.1763 52.8698 88.1231 52.9728 88.0492 53.0603C87.9756 53.1479 87.8832 53.2177 87.7788 53.2646C87.6748 53.3123 87.5614 53.336 87.447 53.3337C85.496 53.6486 85.5805 53.3337 85.5652 54.1018C85.5652 55.9529 85.7726 56.4061 84.7433 56.4061C82.9844 56.4061 82.8385 56.3446 82.8538 56.7901C82.8999 58.2188 82.9613 58.8332 82.3008 58.9561C81.9167 59.0253 81.7862 58.9561 73.4985 59.225C72.7304 59.225 72.0391 59.3325 71.3094 59.3555C70.9868 59.3555 70.887 59.4554 70.8947 59.801C71.0175 64.8167 71.0099 64.3635 70.2418 64.471C67.9375 64.8167 66.9006 64.6554 58.7204 64.8167C57.745 64.8167 56.685 65.17 56.6235 63.7797C55.4868 38.0103 55.8554 40.1302 55.3024 40.2071C52.9444 40.522 52.9982 40.3376 52.8676 39.7539C52.529 37.0473 52.3393 34.3242 52.2992 31.5968C52.399 30.8978 52.4067 30.8287 55.5405 30.5598C56.2165 30.4984 55.8017 30.0222 55.7172 28.7472C55.6327 27.4721 55.602 26.3354 55.5482 25.1295C55.9553 23.3552 55.3639 21.7883 56.1012 21.7191C61.1967 21.2834 66.3114 21.1116 71.4246 21.2045C72.1313 21.2045 71.9239 21.3044 72.1006 24.9297C72.1006 25.5596 71.7856 24.9835 64.2891 25.3368C60.825 25.5058 60.9709 25.429 61.0093 25.9359C61.3934 31.3126 61.4241 32.4801 61.57 38.041C61.57 38.5403 61.6084 38.2868 64.1124 38.3099C64.5656 38.3099 64.5502 38.6632 64.581 40.0381C64.8575 53.2723 64.581 52.1893 65.2492 52.1893C67.3538 52.1893 67.7916 52.1125 67.8684 52.604C67.9452 53.0956 68.1218 54.4321 68.1526 55.2616C68.1526 55.7302 67.8377 55.3077 81.0872 55.1387C81.3714 55.1387 81.3714 55.1387 81.3637 53.1187C81.3637 52.5503 81.3637 52.5349 84.0136 52.389C84.9046 52.3429 84.4745 54.0864 83.9061 25.2447C83.9061 24.8068 83.9061 24.9297 81.6018 24.8453C81.8476 20.9357 80.7569 21.1277 83.5528 21.1123C83.9983 21.1123 83.9215 21.0278 83.9522 19.0615C83.9522 18.6698 83.9522 18.57 86.8479 18.4932C86.8095 15.5514 88.0691 41.1979 88.2151 52.4197Z" fill="#191919"/>
<path d="M70.8332 25.2223C71.9469 25.2223 72.1466 25.2914 72.1313 24.9073C71.9623 21.305 72.1313 21.2128 71.4554 21.1821C66.3422 21.0869 61.2275 21.2589 56.132 21.6967C55.3639 21.7659 55.986 23.3251 55.5789 25.107C52.5834 25.2914 52.8753 25.3298 52.883 25.7753C52.883 28.2332 53.1364 28.0796 52.5604 28.1564C50.3406 28.3561 50.2561 28.2869 50.2561 28.7171C50.0871 31.9584 50.6248 31.0213 47.1837 31.2364C47.1177 31.2513 47.0493 31.2513 46.9833 31.2363C46.9174 31.2213 46.8556 31.1917 46.8026 31.1497C46.7495 31.1077 46.7066 31.0544 46.6768 30.9936C46.6471 30.9329 46.6313 30.8662 46.6307 30.7986C45.6168 23.0178 47.2682 23.2944 43.9808 23.6477C43.1282 23.7399 43.2972 23.4633 43.2972 20.3142C43.2972 19.9378 43.374 19.8994 46.2697 19.669C54.7725 18.9777 54.4268 19.5 54.3884 18.417C54.3193 16.5505 54.2578 16.5428 54.5497 16.5121C55.3101 16.3723 56.0813 16.3101 56.854 16.3278C57.4684 16.3278 57.1843 16.2433 57.0998 14.1387C57.0998 13.4705 57.3302 13.4474 59.8111 13.2861C60.2797 13.2861 60.08 13.0864 60.0108 10.9051C60.0108 10.352 60.0108 10.2983 60.5562 10.2445C67.4306 9.54555 81.4021 9.37657 82.8308 9.39193C84.0597 9.39193 83.0382 12.4259 84.052 12.4028C86.5253 12.3568 86.6559 12.3414 86.6789 12.833C86.9554 18.8855 86.9477 17.4415 86.8095 18.4708C83.9291 18.5476 83.9138 18.6474 83.9138 19.0391C83.9138 20.9286 83.9752 21.0899 83.5144 21.0899C80.7109 21.0899 81.8015 20.9286 81.5634 24.8229C79.889 25.4834 70.1573 25.2223 70.8332 25.2223Z" fill="#38A1FF"/>
<path d="M77.4305 50.6231C68.2134 50.6231 68.536 51.276 68.3056 50.1776C67.7679 47.6353 68.3056 47.6045 69.1428 47.4202C69.1428 47.4202 77.538 46.9133 80.572 47.1898C81.5091 47.2743 81.5244 48.1115 81.3401 49.5939C81.2479 50.4542 80.741 50.362 77.4305 50.6846V50.6231Z" fill="#191919"/>
<path d="M63.5899 31.7199C63.4977 29.646 62.9907 29.6767 66.908 29.4924C67.9526 29.4386 67.9526 29.7075 67.9833 30.2605C68.0909 32.4342 68.1446 32.7414 67.9833 33.233C67.8681 33.594 67.8758 33.5556 64.1429 33.7553C63.5438 33.7937 63.659 33.3021 63.5899 31.7352V31.7199Z" fill="#191919"/>
<path d="M80.7717 29.0934C80.9503 29.1125 81.1166 29.1937 81.2415 29.3228C81.3664 29.452 81.4421 29.6208 81.4553 29.8C81.5782 30.6603 81.7855 33.0644 80.9253 33.1182C77.6993 33.3102 77.6839 33.3179 77.6686 32.5651C77.5764 28.886 76.839 29.0934 80.7717 29.0934Z" fill="#191919"/>
<path d="M73.4444 40.0154C73.3138 41.6592 73.4444 42.0509 72.8453 42.0893C71.7853 42.1584 69.7192 42.4657 69.65 41.8051C69.5502 40.868 69.4426 39.9233 69.3966 38.9785C69.3582 38.2949 69.9726 38.4025 72.6379 38.3487C73.4521 38.3487 73.3445 38.7097 73.3676 39.8311C73.3753 40.0462 73.3445 40.0078 73.4444 40.0154Z" fill="#191919"/>
<path d="M75.5185 41.3904C75.3956 38.5562 75.1882 38.2336 76.1022 38.1875C78.13 38.0953 78.9288 37.9187 78.9672 39.1246C79.0286 41.2675 79.1131 41.8666 78.0839 41.9204C76.2097 42.0049 75.5569 42.2276 75.5185 41.3904Z" fill="#191919"/>
</svg>
