<svg width="100" height="80" viewBox="0 0 146 145" fill="none" xmlns="http://www.w3.org/2000/svg">
<path d="M121.656 74.6139C126.183 74.6139 129.852 70.9448 129.852 66.4184C129.852 61.8928 126.183 58.2229 121.656 58.2229C117.131 58.2229 113.461 61.8928 113.461 66.4184C113.461 70.9448 117.131 74.6139 121.656 74.6139Z" fill="#38A1FF"/>
<path d="M42.0905 66.3952C37.1712 66.4029 32.3281 65.1798 28.0024 62.8373C23.6767 60.4947 20.0057 57.1072 17.324 52.9831C14.6422 48.8591 13.0348 44.1296 12.6482 39.2255C12.2616 34.3215 13.1081 29.3986 15.1106 24.9053H16.2635C13.4738 30.869 12.8413 37.6164 14.4741 43.9948C16.1069 50.3731 19.9037 55.9866 25.2159 59.8764C30.528 63.7661 37.0259 65.6908 43.5996 65.3215C50.1732 64.9522 56.4147 62.3119 61.2578 57.8517C66.1009 53.3915 69.2451 47.388 70.1533 40.867C71.0615 34.3459 69.6773 27.7118 66.2372 22.098C62.7971 16.4841 57.5145 12.2389 51.2919 10.0876C45.0693 7.93616 38.2928 8.01208 32.1199 10.3023V9.14176C38.9947 6.6853 46.5362 6.86593 53.2854 9.64869C58.677 11.8719 63.2882 15.644 66.536 20.488C69.7837 25.3319 71.5221 31.0302 71.5314 36.8621C71.5355 44.6801 68.438 52.1803 62.9185 57.7171C57.399 63.2539 49.9084 66.3749 42.0905 66.3952Z" fill="#191919"/>
<path d="M47.6199 52.07C47.5738 48.0682 50.4388 44.8807 53.2193 44.5504C56.5759 44.1587 57.8278 48.9592 54.9245 52.8534C52.0211 56.7477 47.6737 56.0333 47.6199 52.07ZM54.4329 45.5182C53.5112 45.042 51.7753 45.6872 52.2515 45.7947C52.6607 45.8128 53.0535 45.9608 53.3729 46.2172C54.3407 47.0697 54.141 48.7903 53.6494 49.9808C51.8214 54.5125 48.3266 53.9672 50.0932 54.5202C53.7032 55.6109 57.9738 47.3309 54.4329 45.4798V45.5182Z" fill="#191919"/>
<path d="M22.7652 45.9254C22.3735 40.2722 30.1926 41.1402 30.5844 48.5446C30.6842 50.4264 29.2402 52.2698 27.2739 52.0317C25.1693 51.7552 22.7652 49.2359 22.7652 45.9254ZM29.0636 50.3803C29.0636 50.3803 29.1711 50.1652 28.956 50.1652C26.4674 50.1652 24.1247 45.1957 25.8145 43.3062C26.1064 42.9759 24.5088 42.9452 23.9173 44.3738C22.5886 47.5537 26.621 53.0072 29.0636 50.3573V50.3803Z" fill="#191919"/>
<path d="M65.1101 33.636C66.4082 36.0862 65.8014 38.7899 64.342 39.9497C62.8826 41.1096 60.1866 40.5949 58.9654 37.6992C58.2741 36.0939 58.2741 33.6668 59.5338 32.2535C61.1007 30.4561 63.7429 31.0399 65.1101 33.636ZM64.9411 36.6469C65.0102 33.0753 61.9763 31.109 60.4017 32.5838C60.1329 32.8295 60.8395 32.6298 61.5922 33.2597C62.4465 33.9106 63.121 34.7683 63.5524 35.7519C63.9837 36.7355 64.1576 37.8127 64.0578 38.8821C64.6953 38.5979 64.9411 37.3152 64.9411 36.6469Z" fill="#191919"/>
<path d="M43.957 18.4047C39.3485 22.5524 35.2238 18.781 38.2424 14.7639C39.6941 12.8284 42.0829 11.3459 44.3871 12.2292C46.4302 13.0127 46.2152 16.3616 43.957 18.4047ZM37.9659 17.506C37.9659 18.0667 38.1656 18.7119 38.565 18.8655C39.4329 15.3246 42.9047 13.6886 44.3103 14.0112C44.7558 14.1111 45.0784 14.2954 44.9862 14.0496C43.9877 10.7622 37.8968 14.1187 37.9659 17.506Z" fill="#191919"/>
<path d="M34.7322 57.4464C34.5894 57.1478 34.51 56.8229 34.4991 56.4921C34.4881 56.1613 34.5457 55.8318 34.6684 55.5244C34.7911 55.217 34.9761 54.9383 35.2118 54.706C35.4475 54.4736 35.7288 54.2926 36.038 54.1744C39.5174 52.8456 44.3948 56.7398 42.5514 59.551C40.946 61.9321 35.8306 60.3421 34.7322 57.4464ZM39.7939 59.6662C40.4012 59.7297 41.0113 59.5745 41.5144 59.2284C41.7273 59.0695 41.8834 58.8462 41.9594 58.5916C42.0355 58.3371 42.0276 58.0648 41.9369 57.8151C41.7372 57.3466 41.3839 58.8213 39.0796 58.1608C36.7753 57.5002 36.2453 56.0178 36.445 55.3188C36.5065 55.1268 36.399 55.0346 36.3529 55.05C33.7951 56.1714 36.7984 59.6816 39.7939 59.6739V59.6662Z" fill="#191919"/>
<path d="M44.2028 40.2029C42.6205 39.3811 42.0598 36.9769 43.2811 35.0951C45.0016 32.4529 48.3889 32.7908 49.1416 35.6328C49.8943 38.4747 46.8296 41.5855 44.2028 40.2029ZM44.6175 34.688C41.983 37.1536 44.51 40.0647 44.6175 39.5193C44.6175 39.3503 44.4255 39.143 44.3948 38.4978C44.318 36.8924 45.4471 35.0183 46.9218 34.7572C47.1061 34.7572 47.3596 34.688 47.3673 34.6189C47.4672 33.9814 45.7389 33.6357 44.5945 34.688H44.6175Z" fill="#191919"/>
<path d="M25.3616 30.671C28.2957 33.1596 23.3108 39.3735 20.392 37.4763C16.8588 35.0876 22.343 28.1056 25.3616 30.671ZM20.6532 36.5777C20.9835 36.8234 20.7761 36.1322 20.8759 35.8096C21.4213 34.0276 23.1802 31.6619 24.9161 31.5083C25.4614 31.4622 23.257 29.4805 20.9835 32.622C19.9389 34.0737 19.7622 35.9401 20.6532 36.5777Z" fill="#191919"/>
<path d="M56.9445 26.1698C53.611 27.1145 51.6908 20.2171 54.5173 19.0035C57.6972 17.6363 60.47 25.1866 56.9445 26.1698ZM54.6402 19.7869C53.9643 20.1633 53.8721 21.0927 54.2331 20.9621C54.5654 20.8735 54.9172 20.8919 55.2385 21.0146C55.5598 21.1373 55.8342 21.3581 56.0228 21.6457C56.4217 22.1629 56.705 22.7596 56.8534 23.3957C57.0018 24.0317 57.0119 24.6923 56.8831 25.3326C59.2411 24.3648 56.8754 18.558 54.6249 19.81L54.6402 19.7869Z" fill="#191919"/>
<path d="M33.4494 14.9558C31.7366 3.34998 31.3986 3.68026 31.8672 3.32694C32.1611 3.06152 32.3412 2.69283 32.3698 2.29783C32.3984 1.90283 32.2734 1.51203 32.0208 1.20701C31.3679 0.438919 29.5629 0.700069 29.3555 1.9751C29.3149 2.32616 29.3936 2.68068 29.5789 2.98161C29.7642 3.28254 30.0453 3.51239 30.3771 3.63417C30.7535 3.80315 30.3771 3.63417 31.9133 15.3322C34.0793 31.2163 34.5939 31.4621 34.1254 31.3161C33.4571 31.1164 33.05 31.0089 32.7889 31.224C32.2051 31.7079 34.448 32.2148 33.7874 32.3761C33.0556 32.5346 32.3778 32.8815 31.8211 33.3823C31.5753 33.6358 31.6291 33.8969 31.8902 33.966C32.1514 34.0352 32.1975 33.966 32.5815 33.774C33.5302 33.3487 34.5867 33.2254 35.6078 33.4207C36.3144 33.6358 36.3759 33.3132 37.3744 31.6003C37.866 30.7401 37.5664 30.6556 37.1593 30.9321C34.6553 32.6526 36.5833 36.7773 33.4494 14.9558Z" fill="#191919"/>
<path fill-rule="evenodd" clip-rule="evenodd" d="M32.3895 5.45451C32.3661 5.38155 32.3436 5.30832 32.3219 5.23484C32.2067 4.84849 32.1829 4.7663 31.775 4.77936C26.4913 4.94834 22.0687 6.33397 18.3311 7.50531C15.7703 8.3072 13.5321 9.00923 11.5589 9.14902C9.45508 9.2988 8.15317 9.23198 7.35128 9.1905C6.66845 9.15517 6.34815 9.13904 6.20452 9.29035C6.07779 9.424 6.08931 9.68899 6.11081 10.1875L6.11312 10.232C6.18609 11.8865 6.49332 13.329 6.83128 14.9189C7.37663 17.479 8.00185 20.4192 7.86436 25.2328L7.86283 25.3695C7.85591 25.7797 7.85438 25.8972 8.57869 26.0009C16.1966 27.3512 21.1147 25.504 25.9928 23.6713C28.4131 22.7619 30.8241 21.8563 33.5493 21.3471C33.7283 21.314 33.8826 21.2902 34.0163 21.2703C34.3773 21.215 34.5831 21.1835 34.6899 21.0629C34.8328 20.9039 34.7997 20.589 34.7245 19.8539V19.8493C34.2048 15.0129 33.4253 10.2079 32.3895 5.45528V5.45451ZM23.0879 9.25656C17.9033 7.65893 12.0965 13.4426 13.9553 19.2417C14.2135 20.0939 14.6515 20.8808 15.2399 21.5491C15.8283 22.2175 16.5533 22.7517 17.3659 23.1158C18.1785 23.4799 19.0598 23.6653 19.9502 23.6595C20.8406 23.6537 21.7194 23.4568 22.5272 23.0822C28.7795 20.4707 29.3018 11.1614 23.0879 9.25656ZM21.9281 22.6213C21.1156 22.9049 20.2496 23.0015 19.3946 22.904C18.5395 22.8065 17.7175 22.5175 16.9897 22.0583C16.2618 21.5992 15.6469 20.9818 15.1907 20.2521C14.7345 19.5224 14.4488 18.6992 14.3547 17.8438C14.1908 16.3848 14.4524 14.9095 15.1079 13.5957C15.7634 12.282 16.7849 11.1858 18.0492 10.4394C18.7905 9.95534 19.6358 9.65343 20.516 9.55833C21.3962 9.46322 22.2864 9.57761 23.114 9.89217C23.9416 10.2067 24.6831 10.7125 25.2779 11.3683C25.8727 12.024 26.304 12.8112 26.5366 13.6654C27.4737 16.7378 26.1142 20.8086 21.9281 22.6213ZM20.3458 11.8604C21.2061 11.63 22.4965 11.4072 22.9266 12.1753C23.4335 13.1001 21.9604 14.3989 21.3789 14.912C21.2207 15.0518 21.1285 15.1324 21.16 15.1324C24.3937 14.5257 25.2693 16.2539 24.5626 17.5058C23.8586 18.4377 22.9492 19.1947 21.9051 19.7179C21.69 19.8255 21.69 19.8332 21.69 19.9484C21.7161 20.0981 21.756 20.2387 21.7929 20.3701C21.9158 20.8048 22.0095 21.1328 21.4895 21.3163C21.203 21.4147 21.1254 20.9868 21.0617 20.6358C21.0156 20.3846 20.9772 20.1727 20.8758 20.2172C20.3443 20.4369 20.3512 20.4653 20.4303 20.7917C20.4557 20.9 20.4895 21.0406 20.5148 21.2311V21.2418C20.5379 21.4592 20.5555 21.6251 20.2306 21.7465C20.0309 21.8233 19.9311 21.7849 19.8466 21.5544C19.6676 21.059 19.7122 20.8455 19.6446 20.8002C19.5693 20.751 19.3565 20.91 18.5477 21.1243C17.5646 21.3778 17.3879 20.8017 17.6644 20.6942L18.1038 20.5252C19.4579 20.0044 19.471 19.9998 19.408 19.6573C19.2851 18.9122 18.7858 16.9229 18.7551 16.8384C18.7244 16.7539 18.7013 16.7692 18.5961 16.8368L18.5946 16.8384C18.2413 17.0458 17.7804 17.0458 17.7804 16.6079C17.7804 16.409 17.9724 16.2946 18.1668 16.1778C18.4018 16.038 18.6407 15.8952 18.5477 15.6017C18.2881 14.7323 18.2336 14.1908 18.2044 13.8943C18.1721 13.5701 18.1691 13.5402 17.9563 13.6969C17.2558 14.131 16.6371 14.6847 16.1282 15.3329C15.9209 15.7323 15.2987 14.9028 16.689 13.7967C17.0037 13.5431 17.3265 13.2994 17.6567 13.0663C17.8918 12.8996 17.9333 12.8704 17.9333 12.7744C17.9055 12.5515 17.8712 12.3294 17.8303 12.1085C17.752 11.6722 17.7282 11.5401 17.9717 11.3696C18.3572 11.0961 18.4133 11.5155 18.4671 11.9195C18.5086 12.2321 18.5493 12.5363 18.7398 12.5063C18.8725 12.4545 18.9948 12.379 19.1008 12.2836C19.1184 12.2398 19.0862 12.0801 19.047 11.8873C18.9832 11.5662 18.901 11.1553 19.0009 11.0547C19.0515 11.0035 19.113 10.9644 19.1809 10.9405C19.2487 10.9165 19.3211 10.9083 19.3926 10.9164C19.4925 10.9394 19.5386 11.047 19.577 11.1929C19.716 11.7183 19.6753 11.938 19.7513 11.991C19.8135 12.0347 19.9564 11.9648 20.3451 11.8604H20.3458ZM18.7927 13.2821C18.7236 13.3812 18.8465 13.6124 19.0862 14.849H19.1092C19.2536 15.6156 19.269 15.6056 19.4049 15.5119L19.4318 15.4942C20.7683 14.7261 23.2646 12.5601 21.9665 12.2529C21.3367 12.0993 19.8619 12.6139 19.0324 13.1362C18.9026 13.2184 18.825 13.2345 18.7927 13.2821ZM20.7207 19.4092L20.8835 19.3185H20.9065C20.8881 19.3009 21.0371 19.2218 21.2768 19.0943C22.064 18.6741 23.8314 17.7317 23.8783 16.7301C24.0088 14.9788 19.3542 16.0311 19.4003 16.5534C19.4049 16.5834 19.5501 17.1817 19.7175 17.8768C19.8558 18.4498 20.0109 19.0889 20.1154 19.5267C20.1599 19.7264 20.4372 19.5689 20.7207 19.4092Z" fill="#38A1FF"/>
<path d="M35.9833 88.5475C38.3337 98.5327 36.8436 103.218 37.3659 103.74C39.8314 106.16 42.2663 109.201 42.5505 113.034C42.9806 118.987 41.4367 124.609 40.6149 125.823C38.6179 128.765 34.9233 118.91 34.6161 117.996C34.1092 116.421 34.4164 117.028 33.0185 119.801C32.596 120.646 32.4347 120.707 32.5039 121.007C32.7573 122.082 32.4194 123.695 31.4285 124.256C30.9754 124.517 30.8909 124.44 30.9062 124.609C31.6509 126.602 31.873 128.751 31.5514 130.854C31.189 132.965 30.4335 134.99 29.324 136.822C28.6941 137.728 28.8785 136.968 27.6956 135.716C27.3423 135.34 28.095 137.613 26.1594 140.962C25.6679 141.799 25.4682 140.755 24.7769 139.986C24.4082 139.579 24.2315 139.072 24.124 139.449C23.3559 142.122 23.8782 144.057 23.2714 144.011C22.9104 144.011 22.0502 143.09 21.812 142.79C18.6552 138.888 19.2697 134.909 18.4785 138.404C17.9025 140.97 14.0006 130.378 19.2466 123.042C19.477 122.72 18.6552 122.743 18.3864 121.283C18.2773 120.528 18.4146 119.758 18.7781 119.087C19.0392 118.649 18.5246 118.05 18.3019 115.1C18.3019 114.847 18.2635 114.716 18.1636 114.839C16.4726 117.205 14.5252 119.377 12.3569 121.314C11.4582 122.082 10.452 122.781 9.82984 121.767C9.06175 120.523 9.58405 115.922 9.82984 114.332C10.5979 110.008 11.7577 106.214 15.2526 103.525C21.8581 98.4635 17.096 104.892 21.5202 93.302C22.7875 89.9915 25.9597 83.9159 28.7863 81.243C30.6912 79.438 32.0046 79.438 33.3948 81.6347C34.7006 83.6317 35.5916 86.8884 35.9833 88.5475ZM27.6803 124.832C27.0177 124.791 26.3598 124.694 25.7139 124.54C24.3698 124.31 23.0564 124.225 22.6416 124.133C19.9686 123.488 19.8918 123.012 19.6768 123.365C18.3628 125.265 17.5684 127.476 17.3725 129.779C17.0192 133.112 17.5184 136.929 18.01 137.421C18.2788 137.029 18.4248 136.1 18.9163 135.693C19.1468 135.493 19.2005 135.885 19.3004 136.184C20.7214 140.501 20.6676 140.025 22.0425 142.114C22.289 142.428 22.5617 142.721 22.8566 142.99C23.1101 142.875 22.7261 141.246 23.6247 139.149C24.1624 137.867 25.4451 139.994 25.76 140.232C26.0026 139.785 26.1983 139.314 26.3438 138.827C27.373 135.87 26.9045 134.556 27.4114 134.787C28.0408 135.117 28.5571 135.628 28.8938 136.254C29.0398 136.622 32.0584 130.639 30.4915 124.917C30.3532 124.394 29.2164 125.009 27.926 124.824C27.844 124.82 27.7618 124.823 27.6803 124.832ZM32.2888 120.162C38.856 107.274 36.5517 90.5983 35.3612 89.4385C34.1706 88.2787 30.0306 86.7579 26.4974 87.357C24.6002 87.6719 24.823 87.8409 24.0472 89.3079C17.3418 102.104 18.2404 115.93 19.5539 118.964C20.3219 120.792 29.0321 121.852 31.3364 121.091C31.7458 120.901 32.0748 120.571 32.2657 120.162H32.2888ZM37.7653 106.129C37.5118 106.344 37.9496 106.498 39.0019 108.357C41.4291 112.666 40.4766 115.753 40.5995 120.446C40.5995 121.038 40.684 121.214 40.7685 121.214C41.1449 121.422 41.191 120.446 41.4291 117.766C41.8285 113.326 41.575 110.361 38.6179 106.782C38.2031 106.329 38.0571 106.129 37.7422 106.129H37.7653ZM11.6502 111.813C11.5734 112.474 11.9421 112.535 12.0112 112.312C13.3246 107.704 15.9592 105.215 17.9793 103.318C19.9994 101.421 12.4644 105.238 11.6579 111.813H11.6502ZM26.7432 123.787C27.0888 121.099 27.6803 122.082 24.6386 121.483C24.1547 121.391 24.2853 121.399 24.2546 122.889C24.2546 123.557 24.1317 123.764 24.4005 123.803C25.6679 123.995 26.2055 124.072 26.4436 124.095C26.82 124.11 26.6817 123.787 26.7509 123.787H26.7432ZM23.0948 123.588C23.6324 123.695 23.7246 123.703 23.7092 123.549C23.4865 120.754 24.6617 121.629 22.4188 121.091C21.405 120.853 21.2437 120.615 21.2513 120.915C21.2974 123.426 20.9748 123.142 23.1024 123.588H23.0948ZM29.6082 123.649C30.0383 121.56 30.0997 121.936 29.2702 121.959C27.1195 121.959 27.734 121.568 27.4882 122.843C27.204 124.448 26.6587 124.241 29.324 124.21C29.6082 124.21 29.6082 123.88 29.6082 123.649ZM20.6215 122.881C21.09 123.027 20.5063 122.313 20.7674 120.838C20.8519 120.331 20.683 120.838 19.2313 119.571C19.0085 119.371 18.924 120.523 18.9087 120.83C18.7858 122.835 21.236 122.896 20.6292 122.896L20.6215 122.881ZM31.4593 81.6577C32.9954 83.1939 33.8634 87.0344 34.3703 86.6119C34.7006 86.3354 33.4256 83.3936 32.8341 82.4796C31.5361 80.6208 30.5452 80.7591 31.4669 81.6731L31.4593 81.6577ZM32.0353 121.491C32.0353 121.161 31.7204 121.698 30.5683 121.86C30.2226 121.906 30.6758 122.367 29.9538 123.995C29.9077 124.095 29.9538 124.133 30.046 124.118C32.7266 123.726 31.7358 121.506 32.043 121.506L32.0353 121.491Z" fill="#191919"/>
<path d="M27.6812 124.832C27.3894 125.131 29.3557 129.225 27.4892 133.281C27.3356 133.611 27.0744 132.006 26.6213 131.115C26.46 130.792 26.3371 131.637 26.0298 133.089C25.9192 133.726 25.8532 134.37 25.8301 135.017C25.7764 135.478 24.8009 133.972 24.6396 133.673C24.1173 132.697 24.317 133.519 23.8715 134.08C23.8715 134.08 22.8499 136.038 22.0127 136.468C21.9513 136.468 21.8437 136.399 21.8821 136.215C22.2662 134.464 22.4121 130.5 22.0665 130.508C21.9513 130.508 21.2984 132.459 20.9912 132.436C20.6839 132.413 20.0925 129.264 22.2508 124.271C22.3584 124.025 21.9436 123.987 22.6502 124.164C23.1572 124.287 24.1327 124.302 25.7226 124.571C26.369 124.701 27.0233 124.788 27.6812 124.832Z" fill="#38A1FF"/>
<path d="M23.4645 104.931C23.086 104.138 22.9078 103.264 22.9454 102.386C22.983 101.508 23.2354 100.652 23.6803 99.8941C24.1253 99.1361 24.7493 98.4987 25.4977 98.0378C26.2461 97.5769 27.0961 97.3065 27.9732 97.2503C28.6869 97.2181 29.3997 97.3304 30.0689 97.5804C30.738 97.8305 31.3498 98.2131 31.8675 98.7054C32.3852 99.1977 32.7981 99.7895 33.0815 100.445C33.3648 101.101 33.5128 101.807 33.5165 102.522C33.5235 103.719 33.1251 104.884 32.3861 105.827C31.6471 106.77 30.6111 107.434 29.4463 107.714C28.2815 107.993 27.0566 107.87 25.9706 107.365C24.8846 106.86 24.0014 106.002 23.4645 104.931ZM31.0072 98.9247C30.7076 98.8095 28.5723 99.6928 27.8042 100.499C27.2896 101.06 28.0808 101.267 27.9655 101.805C27.8811 102.189 24.8932 103.979 24.1251 104.324C23.7718 104.478 24.97 105.861 25.162 106.053C25.5307 106.421 25.5998 106.406 25.9301 106.268C27.3556 105.553 28.713 104.709 29.9856 103.748C30.1162 103.602 30.193 103.518 30.0547 103.326C29.1714 102.082 28.6491 101.744 30.7076 100.783C31.9519 100.207 32.336 100.307 32.1055 100.015C31.2376 98.8633 30.9304 98.9247 31.0072 98.9247Z" fill="#191919"/>
<path d="M57.8277 78.1851C58.6496 75.5198 60.0014 75.1127 62.4363 76.4645C66.0924 78.4001 71.085 83.723 73.3201 86.7569C81.1546 97.3796 74.4415 92.1336 82.6524 95.4594C86.9998 97.2107 89.3041 100.767 91.2934 104.991C92.0615 106.528 93.8588 111.136 93.4287 112.611C93.0831 113.824 91.8925 113.379 90.7097 112.872C87.9389 111.493 85.325 109.819 82.9135 107.879C82.7753 107.78 82.7983 107.926 82.8521 108.187C83.4512 111.259 83.0979 112.027 83.4973 112.411C84.0569 112.997 84.4172 113.744 84.5265 114.546C84.6571 116.083 83.8122 116.336 84.1348 116.597C91.6006 122.642 90.6329 134.601 89.3117 132.143C87.3377 128.987 89.4193 132.351 87.138 137.581C86.9767 137.966 86.3699 139.118 85.9859 139.248C85.3714 139.448 85.3868 137.336 83.8122 134.816C83.5971 134.463 83.5587 135.031 83.2976 135.584C82.8137 136.568 82.9059 137.697 82.1608 136.982C79.196 134.102 79.3112 131.56 79.0885 132.044C78.2359 133.664 78.6353 134.394 77.7366 133.641C76.0742 132.081 74.7216 130.22 73.7502 128.157C72.8121 126.092 72.4232 123.819 72.6211 121.559C72.6211 121.382 72.5213 121.49 71.9836 121.352C70.8008 121.06 69.9943 119.501 69.9482 118.325C69.9482 117.995 69.7562 117.98 69.0802 117.235C66.8528 114.792 67.0064 114.078 66.9296 115.845C66.8835 116.874 65.885 128.019 63.0047 125.569C61.8141 124.555 58.6342 119.232 57.3822 113.01C56.6141 109.001 58.2041 105.183 60.0475 102.004C60.4392 101.312 57.5589 96.9188 57.1364 86.0349C57.2593 86.0349 56.8369 81.4264 57.8277 78.1851ZM75.0637 121.198C74.0344 121.452 73.1281 121.329 73.1281 121.805C73.1281 125.645 74.4185 128.149 76.2004 130.845C76.4309 131.199 77.9901 133.388 78.0362 132.965C78.2022 132.228 78.5847 131.556 79.1345 131.037C79.5954 130.661 79.4879 132.136 81.3774 134.878C81.6723 135.332 82.0064 135.758 82.3759 136.153C82.637 135.815 83.3437 133.272 84.2577 134.432C85.7939 136.345 85.84 138.104 86.1318 138.158C86.3592 137.802 86.5543 137.427 86.7156 137.036C87.5298 134.501 87.5989 135.008 87.837 130.177C87.837 129.839 87.837 129.409 88.0905 129.555C88.7126 129.839 89.1274 130.745 89.5114 131.091C89.8801 130.446 89.3041 126.39 87.9753 123.08C87.1345 120.775 85.7044 118.73 83.8276 117.15C83.4973 116.843 83.5511 117.35 80.9933 118.771C80.6016 118.986 79.2805 119.447 77.921 120.061C77.0166 120.552 76.0576 120.933 75.0637 121.198ZM71.2232 118.126C73.804 118.241 82.3989 114.692 82.6908 112.588C83.1901 109.024 80.1484 94.6606 69.6333 83.4618C68.4274 82.1714 68.604 81.9257 66.5609 82.1561C62.7665 82.5478 58.9645 85.3053 58.0658 86.8184C57.2977 88.1165 59.1872 105.652 69.9559 117.427C70.0557 117.358 70.4858 118.057 71.2309 118.126H71.2232ZM59.7019 105.537C57.3976 110.737 58.6419 114.293 60.7695 119.654C60.9462 120.107 61.2918 121.252 61.6067 120.945C61.6835 120.876 61.7066 120.699 61.553 120.084C60.3394 115.238 58.4806 112.342 59.7556 107.234C60.2933 105.061 60.7081 104.746 60.3778 104.6C60.3317 104.477 60.1627 104.431 59.6865 105.498L59.7019 105.537ZM79.4495 95.7129C79.2574 96.2736 84.7723 97.5409 88.5206 103.609C88.6512 103.816 89.0199 103.655 88.751 103.002C86.5697 97.7406 79.6261 95.1214 79.4341 95.6745L79.4495 95.7129ZM76.6767 119.57C76.8533 119.985 76.838 119.908 79.0808 118.909C79.3419 118.794 79.1729 118.61 78.9732 117.934C78.5201 116.398 78.6506 116.398 78.2052 116.597C75.225 118.057 75.5552 116.874 76.6613 119.531L76.6767 119.57ZM81.5003 115.061C81.4158 114.754 81.3236 115.061 80.3481 115.576C78.1975 116.766 79.1499 115.53 79.726 118.464C79.726 118.617 79.8489 118.594 80.3635 118.325C82.4296 117.212 82.1685 117.65 81.4849 115.053L81.5003 115.061ZM73.7041 120.238C73.8117 120.461 73.8654 120.814 74.1573 120.737C76.8764 119.969 76.4001 120.392 75.6474 118.809C75.056 117.565 75.7857 117.842 73.5659 118.41C72.6979 118.594 72.6211 118.187 73.6888 120.2L73.7041 120.238ZM82.6985 116.904C83.697 116.252 84.2884 115.437 83.9121 114.308C83.8045 114.001 83.3898 112.841 83.2131 113.11C82.0763 114.838 81.7384 114.362 81.9765 114.861C82.6985 116.367 82.1608 116.866 82.6831 116.866L82.6985 116.904ZM60.1013 77.2096C60.1013 76.6719 59.3332 76.9177 58.6957 78.9147C58.3193 80.0285 57.8508 83.4081 58.2655 83.6001C58.9031 83.8843 58.711 79.6905 59.8017 77.6858C59.8401 77.632 60.109 77.2864 60.1013 77.2096ZM73.3892 120.822C73.5198 120.822 73.5275 120.76 73.4507 120.668C72.2448 119.209 72.575 118.61 72.2064 118.656C71.714 118.716 71.2151 118.69 70.7316 118.579C70.4628 118.579 70.6702 118.725 70.7316 118.848C70.8622 119.385 71.085 121.098 73.3892 120.822Z" fill="#191919"/>
<path d="M77.9372 120.007C79.4734 119.285 80.4873 118.993 81.0096 118.717C81.6855 118.34 81.2707 118.502 81.4474 118.717C85.1112 123.249 85.2878 126.667 85.0574 126.736C84.827 126.805 83.5212 125.2 83.5212 125.1C83.5212 125 83.3753 125.038 83.3753 125.038C83.022 125.123 84.297 129.155 85.1957 130.837C85.2878 131.014 85.1957 131.152 85.1265 131.137C84.1511 130.937 82.5611 129.224 82.5458 129.217C81.939 128.756 81.9082 127.865 81.6471 129.017C81.5703 129.37 81.0019 131.183 80.8099 130.73C80.6001 130.072 80.3434 129.43 80.0418 128.81C79.3198 127.412 78.9511 126.582 78.8743 126.958C78.6592 127.995 78.8743 129.724 78.5978 129.424C75.5254 125.822 76.3934 121.075 76.0093 120.852C76.6677 120.608 77.3114 120.326 77.9372 120.007Z" fill="#38A1FF"/>
<path d="M64.5878 101.543C63.7321 100.407 63.3404 98.9887 63.4922 97.5747C63.644 96.1608 64.3278 94.8575 65.4051 93.9292C66.1189 93.3142 66.9765 92.8896 67.8983 92.6948C68.8085 92.5165 69.7484 92.5604 70.638 92.8229C71.5276 93.0854 72.3408 93.5587 73.0084 94.2026C73.6761 94.8465 74.1787 95.6418 74.4738 96.5212C74.7689 97.4005 74.8477 98.338 74.7036 99.2543C74.5076 100.343 73.9953 101.35 73.2307 102.15C72.466 102.95 71.4829 103.507 70.4038 103.751C69.3245 103.996 68.1972 103.917 67.1626 103.524C66.1281 103.131 65.2322 102.442 64.5871 101.543H64.5878ZM65.2253 95.2603C64.8712 95.6623 64.6091 96.1367 64.4572 96.6505C64.319 97.0346 64.6723 96.8272 66.1163 97.0653C68.5742 97.4724 68.0365 98.0331 67.5142 99.4848C67.4221 99.7229 67.5142 99.7843 67.7063 99.8918C68.9801 100.419 70.2989 100.83 71.6466 101.121C72.983 101.428 72.9293 101.497 73.2749 100.89C73.4285 100.629 74.2504 98.8856 73.8433 98.8319C72.9293 98.7013 69.35 97.7258 69.1503 97.3495C68.8814 96.8425 69.6342 96.397 68.9506 95.9669C67.8003 95.3847 66.5089 95.1397 65.2253 95.2603Z" fill="#191919"/>
<path d="M103.453 73.1845C113.599 78.108 116.603 82.6704 117.401 82.5783C121.188 82.1558 125.489 82.1942 128.923 84.6291C134.299 88.4004 138.04 93.6311 138.509 95.1826C139.638 98.9309 128.646 95.2517 127.648 94.86C125.943 94.2071 126.68 94.3608 128.07 97.4869C128.5 98.4393 128.439 98.616 128.746 98.7696C129.845 99.2996 130.981 100.713 130.774 101.949C130.682 102.518 130.551 102.533 130.712 102.641C132.935 103.39 134.929 104.697 136.504 106.435C138.059 108.214 139.266 110.27 140.06 112.495C140.398 113.663 139.868 112.972 137.979 113.11C137.41 113.156 139.883 114.093 141.374 118.11C141.75 119.116 140.713 118.556 139.576 118.609C138.977 118.609 138.416 118.44 138.662 118.794C140.406 121.336 142.418 122.196 141.973 122.696C141.712 122.995 140.337 123.103 139.907 123.103C134.238 123.103 131.458 119.792 133.846 122.895C135.605 125.2 123.861 121.129 121.234 111.528C121.119 111.113 120.566 111.835 119.13 111.044C118.412 110.609 117.85 109.958 117.524 109.185C117.332 108.647 116.457 108.678 113.784 106.812C113.553 106.658 113.43 106.581 113.469 106.75C114.32 109.842 114.835 113.018 115.005 116.221C115.005 117.519 114.928 118.871 113.63 118.694C112.033 118.486 108.461 114.853 107.286 113.502C104.098 109.853 101.679 106.197 101.817 101.343C102.078 92.2715 104.121 100.513 97.4388 88.8612C95.4802 85.474 92.5 78.5304 92.1774 74.2675C91.9624 71.3795 92.8764 70.2504 95.7413 70.573C99.3514 70.9801 103.261 73.1845 103.453 73.1845ZM128.692 105.552C128.195 106.087 127.653 106.577 127.072 107.019C125.943 108.017 124.952 109.085 124.583 109.362C122.171 111.197 121.71 110.898 121.872 111.374C122.592 113.813 123.937 116.021 125.774 117.78C128.377 120.399 131.988 122.634 132.756 122.55C132.602 122.05 131.911 121.282 131.903 120.576C131.903 120.245 132.264 120.468 132.594 120.576C137.28 122.35 136.834 122.073 139.576 122.35C140.013 122.362 140.45 122.334 140.882 122.265C140.951 121.974 139.346 121.167 138.125 118.947C137.403 117.595 140.114 117.98 140.544 117.872C140.332 117.359 140.075 116.865 139.776 116.397C137.948 113.455 136.504 112.941 137.057 112.672C137.782 112.358 138.586 112.273 139.361 112.426C139.776 112.557 138.347 110.168 138.109 109.807C136.266 107.027 134.445 104.784 130.782 103.163C130.236 102.925 130.014 104.323 128.915 105.291C128.827 105.364 128.751 105.453 128.692 105.552ZM127.924 98.3779C121.48 83.7842 105.611 74.16 103.806 74.3827C102.001 74.6055 97.7998 77.0634 95.8489 80.5275C94.7966 82.3786 95.0808 82.3017 95.8489 83.9839C102.124 98.6313 114.567 107.487 118.077 108.471C120.197 109.07 127.141 102.38 128.101 99.8833C128.222 99.3764 128.16 98.843 127.924 98.3779ZM119.706 83.9224C119.706 84.2988 120.159 84.0299 122.471 84.4217C127.848 85.3434 129.822 88.2621 133.923 91.4727C134.445 91.8721 134.622 91.9182 134.691 91.8721C135.106 91.7032 134.169 90.9043 133.816 90.5433C129.576 86.2651 126.718 83.6305 120.85 83.6305C120.581 83.6689 119.698 83.6459 119.706 83.9224ZM106.418 110.191C106.925 110.721 107.24 110.437 107.094 110.229C102.831 104.046 104.021 98.3856 103.361 98.3395C102.885 98.3011 102.101 105.713 106.418 110.191ZM127.156 105.583C125.098 103.424 126.35 103.601 123.708 105.775C123.293 106.12 123.393 106.02 124.645 107.08C125.205 107.557 125.313 107.795 125.528 107.595C126.58 106.643 127.01 106.235 127.202 106.059C127.394 105.882 127.156 105.69 127.156 105.613V105.583ZM124.445 108.563C124.913 108.186 124.983 108.11 124.837 108.017C122.294 106.258 123.869 105.867 121.841 107.411C120.927 108.11 120.612 108.079 120.873 108.286C123.07 110.045 122.548 110.13 124.445 108.593V108.563ZM129.053 103.033C127.579 101.212 127.94 101.427 127.371 102.149C125.912 104.016 125.95 103.217 126.887 104.292C128.086 105.667 127.51 105.951 129.338 103.678C129.507 103.463 129.192 103.263 129.03 103.063L129.053 103.033ZM122.141 110.199C122.601 109.907 121.58 109.899 120.505 108.663C120.121 108.225 120.451 108.755 118.331 109.116C118.001 109.17 118.93 110.045 119.176 110.276C120.574 111.574 122.133 110.145 122.125 110.229L122.141 110.199ZM94.4202 72.2705C96.7936 72.0247 100.696 73.9526 100.688 73.2306C100.688 72.7621 97.2775 71.7943 96.0793 71.6944C93.7213 71.487 92.9685 72.2705 94.4202 72.2705ZM128.216 101.012C128.016 101.343 128.731 101.274 129.614 103.025C129.668 103.14 129.714 103.148 129.783 103.025C130.551 101.681 130.451 100.836 128.923 99.4993C128.585 99.507 128.8 99.9985 128.185 101.012H128.216Z" fill="#191919"/>
<path d="M128.692 105.552C128.745 106.005 133.6 107.181 135.75 111.574C135.935 111.943 134.376 111.036 133.293 110.806C132.909 110.722 133.546 111.421 134.575 112.688C135.05 113.236 135.564 113.749 136.111 114.224C136.457 114.6 134.506 114.378 134.137 114.309C132.939 114.07 133.761 114.478 133.953 115.246C133.953 115.246 134.913 117.473 134.721 118.495C134.721 118.571 134.537 118.587 134.414 118.426C133.185 116.889 129.882 113.994 129.66 114.293C129.575 114.408 130.789 116.313 130.558 116.597C130.328 116.882 127.248 115.184 124.452 109.846C124.314 109.585 123.991 109.915 124.629 109.423C124.667 109.301 129.045 105.207 128.692 105.552Z" fill="#38A1FF"/>
<path d="M108.722 95.3288C107.787 95.0866 106.925 94.6218 106.209 93.9741C105.494 93.3265 104.945 92.5152 104.611 91.6097C104.277 90.7041 104.167 89.731 104.29 88.7737C104.413 87.8163 104.767 86.903 105.32 86.1118C105.95 85.2657 106.797 84.6055 107.772 84.201C108.746 83.7965 109.812 83.6625 110.857 83.8134C111.901 83.9642 112.885 84.3942 113.705 85.0579C114.526 85.7217 115.151 86.5946 115.517 87.5845C115.882 88.5744 115.973 89.6446 115.781 90.6821C115.589 91.7196 115.12 92.6859 114.424 93.479C113.728 94.2721 112.831 94.8627 111.827 95.1883C110.823 95.5138 109.75 95.5624 108.722 95.3288ZM108.868 84.6754C108.569 84.8521 107.8 87.2716 107.984 88.5159C108.107 89.3454 108.844 88.8154 109.213 89.284C109.49 89.6219 108.929 93.4317 108.668 94.3534C108.553 94.7605 110.573 94.699 110.864 94.6683C111.441 94.6145 111.471 94.5454 111.563 94.1921C111.947 92.4754 112.171 90.7272 112.232 88.9691C112.232 88.754 112.186 88.6311 111.924 88.6157C110.242 88.5082 109.62 88.7386 110.204 86.3115C110.573 84.8521 110.918 84.5986 110.496 84.5679C108.914 84.4296 108.783 84.7522 108.86 84.6754H108.868Z" fill="#191919"/>
<path fill-rule="evenodd" clip-rule="evenodd" d="M14.0053 41.3782C11.8047 45.3876 10.6027 49.8357 10.6603 54.7507C10.7271 60.4537 11.0827 63.9378 11.3477 66.5232C12.0244 73.1433 12.0981 73.8653 5.15997 90.8517C-2.98178 110.782 -0.16827 127.193 15.063 135.583C14.5614 132.059 14.8279 127.451 17.0815 122.903C17.1921 122.68 17.1199 122.426 17.0254 122.088C16.8488 121.461 16.5899 120.541 17.2428 118.971C17.4118 118.582 17.0369 118.951 16.3441 119.634C14.9339 121.025 12.2041 123.717 10.0765 123.933C6.41272 124.301 8.19469 113.056 9.30842 109.508C11.1634 103.696 14.8264 101.65 16.7512 100.576C17.4648 100.177 17.9395 99.912 17.9955 99.6378C19.9081 90.0674 26.2218 80.5431 29.0099 78.6229C29.5352 78.2532 30.1428 78.0172 30.7799 77.9356C31.4171 77.8539 32.0645 77.929 32.666 78.1544C36.7292 79.9824 38.6955 93.0015 38.9413 97.4949C39.0965 100.263 39.0565 101.646 39.0358 102.392C39.0143 103.156 39.0112 103.253 39.2563 103.486C44.5868 108.502 45.0169 114.063 43.6267 121.283C43.3195 122.788 42.2134 126.943 41.0152 127.881C40.7443 128.138 40.3917 128.293 40.0186 128.319C39.6454 128.344 39.2752 128.238 38.9721 128.019C37.5972 127.358 35.5157 123.894 34.7476 122.558C34.6631 122.312 34.4787 122.043 34.4019 122.673C34.2772 123.581 33.8932 124.435 33.2959 125.131C33.2114 125.237 33.239 125.324 33.3043 125.525C33.4057 125.836 33.5954 126.42 33.5954 127.773C33.6633 128.815 33.6402 129.861 33.5263 130.899C32.8427 135.853 30.0161 139.494 29.5092 139.479C29.3387 139.483 29.2634 139.4 29.1428 139.27C29.0124 139.12 28.8617 138.988 28.695 138.88C28.4953 138.75 28.4523 138.898 28.3332 139.32C28.2733 139.529 28.195 139.806 28.0683 140.149C35.869 141.735 45.3933 142.093 56.7142 141C65.2469 140.184 71.0521 137.78 76.3765 135.177C74.9302 133.891 73.0077 131.674 71.7465 128.756C70.8685 126.715 70.6297 124.768 70.496 123.677C70.4323 123.154 70.3923 122.828 70.3178 122.78C69.5117 122.207 68.8899 121.412 68.5282 120.491C68.2747 119.885 68.1441 120.207 68.1441 120.491C67.7678 122.066 66.5849 126.221 65.3713 127.289C65.1214 127.601 64.7703 127.815 64.3789 127.895C63.9875 127.975 63.5805 127.916 63.2283 127.727C61.7536 127.082 59.4493 123.172 58.6813 121.705C55.1941 114.692 54.0574 108.87 58.0898 102.211C58.278 101.901 58.248 101.804 58.0038 101.008C57.7695 100.244 57.3386 98.8367 56.7149 95.9817C55.6857 91.2657 53.9959 77.394 57.6443 74.3677C58.1925 73.973 58.8272 73.7154 59.4954 73.6165C60.1636 73.5176 60.8458 73.5803 61.4848 73.7993C64.8874 74.9975 74.0891 82.9549 78.7591 92.2335C78.8928 92.5061 79.4665 92.649 80.3283 92.8633C82.6265 93.434 86.97 94.5131 90.4725 99.9144C92.6308 103.24 97.6388 114.27 93.7983 114.931C91.5855 115.295 88.0622 113.34 86.2035 112.308C85.2741 111.793 84.7602 111.508 85.0344 111.858C86.1528 113.305 86.1451 114.311 86.1397 114.994C86.1374 115.368 86.1351 115.644 86.3171 115.845C90.0001 119.944 91.5808 124.667 92.0425 128.444C94.0792 127.892 96.1519 127.483 98.2456 127.221C108.656 125.902 117.263 123.338 124.163 119.915C122.284 117.976 120.751 115.729 119.629 113.272C119.516 113.024 119.251 112.908 118.896 112.754C118.24 112.466 117.275 112.045 116.388 110.4C116.157 109.984 116.214 110.608 116.317 111.731C116.519 113.932 116.896 118.047 115.62 119.985C113.392 123.373 105.012 114.017 102.747 110.592C99.0782 105.024 99.8716 100.487 100.294 98.0709C100.455 97.1538 100.561 96.5424 100.35 96.2974C93.4988 88.002 89.7582 75.9661 90.05 72.2485C90.1021 71.5433 90.3243 70.8613 90.6975 70.2607C91.0707 69.6601 91.5838 69.1588 92.193 68.7998C96.6019 66.5877 109.114 73.9998 113.1 76.8955C115.568 78.6774 116.733 79.6721 117.366 80.2128C118.022 80.7736 118.105 80.8442 118.477 80.7974C126.473 79.7297 131.535 83.2322 136.742 89.4537C137.841 90.7441 140.583 94.5999 140.583 96.2667C140.614 96.6788 140.5 97.089 140.262 97.4267C140.024 97.7644 139.676 98.0088 139.277 98.1178C137.756 98.8321 133.324 98.2177 131.665 97.9258C131.396 97.8259 131.043 97.7952 131.519 98.3021C132.212 99.0403 132.676 99.9634 132.856 100.96C132.887 101.113 132.984 101.155 133.227 101.259C133.567 101.405 134.193 101.674 135.329 102.542C137.258 103.829 138.788 105.581 139.937 107.337C148.489 95.9011 147.774 81.7606 139.162 70.2738C135.454 65.3273 135.764 63.2258 136.612 57.4889C137.241 53.2298 138.166 46.9691 137.964 36.0554C137.649 19.3417 126.527 12.7592 110.358 11.0771C97.1103 9.6945 77.9288 10.7007 59.9217 14.8545C66.3345 20.0599 70.433 28.0058 70.433 36.9087C70.433 52.587 57.7227 65.2973 42.0444 65.2973C27.8862 65.2973 16.149 54.9327 14.0053 41.3782ZM85.8931 20.3925C85.6558 20.7949 85.4131 21.2074 85.2956 21.5469C85.6043 21.5991 86.407 21.5638 87.0937 21.5338C87.7051 21.507 88.2251 21.4839 88.222 21.5308C88.2143 21.6306 88.1759 21.6997 87.838 21.7842C87.1037 21.9686 86.5514 22.0992 86.1374 22.1959C85.2433 22.4072 84.9991 22.4648 84.973 22.5746C84.9638 22.6153 84.9845 22.6645 85.0137 22.7313C85.0275 22.762 85.0429 22.7973 85.0575 22.8373C85.6074 24.3904 85.5767 24.4587 85.4338 24.7736C85.4178 24.8087 85.4025 24.844 85.3877 24.8796C85.3616 24.8593 85.3349 24.8396 85.3079 24.8205C85.2448 24.7834 85.1908 24.7327 85.1496 24.6723C84.9623 24.3507 84.7813 24.0254 84.6066 23.6968C84.2855 23.0977 84.2832 23.0938 84.0897 23.3819C83.8301 23.8266 83.5374 24.2498 83.214 24.6492C83.0082 24.3251 83.2509 23.8028 83.446 23.3819C83.6303 22.9863 83.7724 22.6806 83.4598 22.7136C82.4613 22.8135 80.5641 22.9825 81.3937 22.1299C81.4958 22.0208 81.6848 21.9962 82.7816 21.8564L82.9383 21.8365L83.2217 21.8004L83.3001 21.7873L83.3231 21.7842C83.4299 21.7681 83.499 21.7574 83.5274 21.7182C83.5804 21.6444 83.4944 21.4709 83.2478 20.9747C83.1549 20.7873 83.0382 20.5545 82.8991 20.2642C82.5919 19.619 83.2294 19.2887 83.6058 19.811C83.7886 20.0645 83.9169 20.2872 84.0397 20.5015C84.1703 20.7281 84.2955 20.9447 84.4737 21.1774C84.804 20.8103 85.0943 20.3164 85.3547 19.8717C85.7541 19.1919 86.0836 18.6297 86.3863 18.8194C86.7035 19.0199 86.3071 19.6912 85.8931 20.3925ZM115.236 65.8342C115.286 65.6829 115.328 65.4893 115.376 65.262C115.614 64.1513 116.025 62.228 118.569 60.4115C119.061 60.0582 119.061 59.8661 118.992 59.7432C118.7 59.2747 115.328 61.4638 114.844 65.1199C114.652 66.5562 115.397 65.8342 115.236 65.8342ZM125.888 67.1246C125.641 66.9248 125.364 66.7642 125.068 66.6484C124.869 66.5639 124.778 66.5255 124.898 66.4487C124.947 66.4179 125.037 66.3865 125.15 66.3465C125.594 66.1914 126.402 65.9095 126.549 65.0054C126.81 63.3848 124.798 62.5168 122.616 62.0329C122.553 62.0329 122.597 61.8463 122.655 61.5966C122.703 61.3931 122.761 61.1473 122.778 60.9261C122.778 60.7034 122.678 60.665 122.463 60.6112C122.248 60.5574 121.986 60.5113 121.933 60.665C121.844 60.9084 121.79 61.1934 121.746 61.4231C121.698 61.6727 121.662 61.8563 121.61 61.8478C121.473 61.8286 121.364 61.8186 121.278 61.8094C121.119 61.794 121.04 61.7864 121.013 61.7457C120.986 61.7057 121.006 61.6351 121.047 61.4953C121.094 61.3309 121.169 61.072 121.226 60.658C121.226 60.4737 121.226 60.4123 121.08 60.3508C120.271 60.0059 120.15 60.764 120.071 61.2664C120.035 61.4922 120.007 61.6658 119.928 61.6635C119.485 61.6049 119.035 61.6257 118.599 61.7249C118.438 61.794 118.23 62.6466 118.599 62.6543C118.887 62.6605 119.193 62.6574 119.354 62.6558L119.452 62.6551C119.695 62.6827 119.683 62.7311 119.561 63.2089C119.382 63.9086 118.968 65.5308 118.776 69.3597C118.776 69.498 118.529 69.4826 118.252 69.4665C117.926 69.4465 117.559 69.4243 117.501 69.6439C117.309 70.412 117.677 70.412 118.399 70.412C118.608 70.412 118.606 70.4274 118.582 70.6693C118.566 70.8206 118.542 71.0611 118.553 71.4413C118.553 71.664 118.676 71.7485 118.899 71.7792C119.121 71.8099 119.482 71.8176 119.529 71.6563C119.574 71.5042 119.578 71.2615 119.582 71.038C119.587 70.7676 119.592 70.5257 119.667 70.505C119.863 70.4819 120.062 70.4819 120.258 70.505C120.338 70.505 120.33 70.5764 120.317 70.6816L120.314 70.6993L120.313 70.71L120.31 70.7308C120.308 70.7553 120.306 70.7799 120.304 70.8045C120.238 71.8491 120.257 71.8491 120.837 71.8491H120.888C121.218 71.8491 121.225 71.7462 121.251 71.3176C121.261 71.1379 121.275 70.9005 121.318 70.5894C121.337 70.4642 121.695 70.4404 122.221 70.4051C123.218 70.3391 124.819 70.2323 125.85 69.3221C126.009 69.1879 126.137 69.0212 126.227 68.8333C126.316 68.6453 126.364 68.4405 126.368 68.2324C126.371 68.0244 126.33 67.818 126.248 67.6271C126.165 67.4361 126.043 67.2643 125.888 67.1246ZM120.243 65.0354C120.616 62.7296 120.656 62.7296 120.94 62.7311H120.965C128.077 63.4378 126.073 66.8634 120.458 65.7497C120.132 65.7205 120.135 65.6975 120.233 65.0984L120.243 65.0354ZM119.997 69.6439C119.805 69.6439 119.79 69.5978 119.797 69.3444C119.904 66.7452 120.01 66.7482 120.278 66.7559H120.289C121.641 66.8097 125.09 66.9556 125.205 68.1846C125.344 69.5894 121.653 69.6009 120.199 69.6055H119.997V69.6439ZM77.2913 74.0535C76.9418 74.0919 76.9311 74.3385 76.8988 75.0613C76.8927 75.1949 76.8865 75.3447 76.8765 75.5129C76.8765 75.6804 76.8804 75.8271 76.8842 75.9538C76.8973 76.4769 76.9019 76.6489 76.5923 76.4577C76.5193 76.4113 76.446 76.3652 76.3727 76.3194C75.4387 75.7318 74.8841 75.3823 74.6414 75.7971C74.4163 76.1804 74.6936 76.3647 75.4671 76.8801L75.4702 76.8816L75.4709 76.8832H75.4725C75.5954 76.9654 75.7305 77.0552 75.878 77.1566L75.8949 77.1674C76.0401 77.2657 76.1131 77.3156 76.1131 77.364C76.1123 77.4132 76.037 77.4615 75.8872 77.5583C75.6159 77.7296 75.3562 77.9187 75.1099 78.1244C74.8257 78.3548 74.4494 78.7696 74.6875 79.0384C74.8903 79.2666 75.3035 79.0177 75.5462 78.8718C75.5885 78.8464 75.6253 78.8234 75.6553 78.808C75.9349 78.6367 76.1499 78.4931 76.3174 78.3817C76.6246 78.1766 76.769 78.0806 76.8458 78.119C76.9142 78.1536 76.9295 78.2942 76.9587 78.5592C76.9841 78.795 77.0209 79.1298 77.1146 79.5761C77.16 79.6921 77.2222 79.8004 77.299 79.8987C77.4841 79.3825 77.5102 78.9624 77.5279 78.6736C77.5509 78.2926 77.5601 78.1421 77.9058 78.3088C79.1155 78.8818 79.1163 78.8817 79.2469 78.871C79.2753 78.8687 79.3098 78.8664 79.3652 78.8695C79.3652 78.7696 79.3652 78.6467 79.2883 78.5853C78.8812 78.1567 78.584 77.8825 78.3843 77.6981C78.1477 77.48 78.0463 77.387 78.0586 77.3118C78.0678 77.2549 78.14 77.2088 78.2675 77.1282L78.3897 77.0491C78.9811 76.6574 80.2561 75.7817 80.5173 75.0674C80.4247 75.0713 80.3335 75.0921 80.2485 75.1289C79.5887 75.4791 79.1002 75.7495 78.7384 75.9499L78.7376 75.9507C78.0579 76.3279 77.8282 76.4546 77.7522 76.3931C77.7138 76.3616 77.7138 76.2825 77.7145 76.1627C77.7154 76.1176 77.7151 76.0726 77.7138 76.0275C77.6892 76.0291 77.6946 75.8777 77.703 75.6581C77.7253 75.0736 77.766 74.0028 77.2913 74.0535ZM48.7767 132.491C48.6999 133.331 48.6953 133.38 48.9803 133.38C48.9549 133.415 49.0924 133.415 49.296 133.415C49.7138 133.415 50.4074 133.414 50.5318 133.718C50.6163 133.981 50.2807 134.087 49.8014 134.236C49.7167 134.263 49.6322 134.29 49.5479 134.317L49.4857 134.339C49.3781 134.375 49.3182 134.396 49.3013 134.435C49.2806 134.485 49.3321 134.564 49.4473 134.748C49.5763 134.953 49.7875 135.287 50.071 135.853C50.1017 135.925 50.0909 136.016 50.0809 136.11C50.075 136.157 50.0717 136.205 50.071 136.253C50.0198 136.244 49.9686 136.235 49.9173 136.227C49.7883 136.204 49.7299 136.194 49.6785 136.17C49.6242 136.14 49.5737 136.104 49.5279 136.063C49.3958 135.957 49.1485 135.758 48.5348 135.362C48.3965 135.676 48.3581 135.899 48.3243 136.092C48.2852 136.32 48.2521 136.507 48.0739 136.752C48.0547 136.737 48.0309 136.724 48.0079 136.709C47.9464 136.671 47.8819 136.631 47.8819 136.575C47.5939 135.654 47.6461 135.167 47.6745 134.908C47.6868 134.791 47.6937 134.72 47.663 134.677C47.6169 134.612 47.481 134.61 47.1407 134.604C46.9141 134.601 46.5961 134.597 46.1537 134.571C45.5085 134.532 45.3856 133.872 45.9386 133.68C46.1614 133.603 46.3895 133.587 46.5639 133.574C46.8219 133.555 46.9633 133.545 46.7989 133.357C46.7221 133.27 46.6476 133.19 46.5785 133.114C46.1783 132.676 45.9363 132.412 46.1921 132.097C46.464 131.756 46.8327 132.052 47.2382 132.378C47.4164 132.521 47.6016 132.67 47.7897 132.773C47.8934 132.517 47.9288 132.133 47.9587 131.799C47.9871 131.493 48.0117 131.229 48.0816 131.145C48.3888 130.784 48.6577 130.884 48.7959 131.229C48.819 131.329 48.819 131.456 48.819 131.558C48.819 131.66 48.819 131.736 48.842 131.736C48.8174 132.041 48.7952 132.289 48.7767 132.491ZM21.6209 69.9819C21.6021 70.0965 21.6079 70.2138 21.6382 70.3259C21.6684 70.4381 21.7223 70.5424 21.7961 70.632C21.87 70.7217 21.9622 70.7944 22.0666 70.8454C22.1709 70.8965 22.2849 70.9246 22.401 70.9279C22.5171 70.9312 22.6326 70.9097 22.7397 70.8647C22.8467 70.8197 22.9429 70.7523 23.0218 70.6671C23.1007 70.5818 23.1604 70.4807 23.197 70.3705C23.2336 70.2602 23.2462 70.1435 23.2339 70.028C23.2527 69.9134 23.2469 69.7961 23.2166 69.6839C23.1864 69.5718 23.1326 69.4674 23.0587 69.3778C22.9848 69.2882 22.8926 69.2155 22.7882 69.1644C22.6839 69.1134 22.5699 69.0853 22.4538 69.082C22.3377 69.0786 22.2222 69.1002 22.1151 69.1452C22.0081 69.1902 21.9119 69.2576 21.833 69.3428C21.7541 69.428 21.6944 69.5292 21.6578 69.6394C21.6212 69.7496 21.6086 69.8664 21.6209 69.9819ZM45.6084 87.6795C45.6237 88.4706 44.3564 88.678 44.3564 87.7639C44.3365 87.6338 44.3576 87.5008 44.4168 87.3832C44.476 87.2657 44.5703 87.1695 44.6866 87.108C44.7837 87.0572 44.8922 87.0326 45.0016 87.0366C45.111 87.0406 45.2175 87.0731 45.3106 87.1307C45.4036 87.1884 45.48 87.2694 45.5322 87.3656C45.5844 87.4618 45.6107 87.57 45.6084 87.6795ZM109.766 20.6329C109.766 21.5392 111.018 21.401 111.018 20.5868C111.025 20.4986 111.013 20.41 110.982 20.327C110.952 20.2439 110.904 20.1683 110.842 20.1052C110.781 20.0422 110.706 19.9927 110.625 19.9599C110.543 19.9271 110.455 19.9117 110.367 19.9147C110.279 19.9178 110.192 19.9394 110.113 19.9782C110.033 20.017 109.963 20.0721 109.906 20.1398C109.85 20.2075 109.808 20.2865 109.784 20.3714C109.76 20.4564 109.754 20.5455 109.766 20.6329ZM118.333 35.7182C118.49 36.4955 118.603 37.0546 118.707 37.2159C118.717 37.1952 118.853 36.6591 119.054 35.8679L119.057 35.8564L119.059 35.8464L119.062 35.838L119.064 35.8303V35.828C119.696 33.3409 120.944 28.4359 120.927 28.9743C121.396 27.515 123.162 27.561 123.777 29.4045C125.766 35.3725 126.12 49.8587 125.997 52.4011C126 52.6368 125.916 52.8656 125.761 53.0431C125.606 53.2206 125.39 53.3342 125.156 53.3619C124.922 53.3897 124.686 53.3295 124.494 53.1932C124.301 53.0568 124.166 52.854 124.115 52.6238C123.933 51.8427 123.733 48.8394 123.503 45.383C123.151 40.0702 122.726 33.6866 122.187 32.6535C121.373 34.0207 119.837 44.0519 119.837 44.1211C119.79 44.382 119.657 44.62 119.46 44.7973C119.263 44.9746 119.012 45.0812 118.747 45.1004C118.483 45.1185 118.219 45.0478 117.999 44.8995C117.779 44.7513 117.615 44.5338 117.532 44.2816C117.415 43.896 117.182 42.4743 116.899 40.753V40.7515V40.7499L116.899 40.7484C116.383 37.6069 115.705 33.4746 115.274 32.8294C114.879 33.9224 114.825 44.0074 114.794 49.5507C114.786 51.1368 114.779 52.3504 114.767 52.8765C114.752 53.6984 113.822 53.9595 113.484 53.3527C112.663 51.8934 112.225 32.6758 113.761 29.5035C114.26 28.4052 115.866 28.5511 116.565 29.8722C117.525 31.701 118.018 34.1505 118.333 35.7182ZM84.4883 32.9069C83.797 33.0375 83.8692 36.4632 83.9291 39.2852C83.946 40.097 83.9622 40.8598 83.9583 41.4788C83.9583 42.631 83.8047 56.5027 83.1518 55.6501C81.4643 53.4296 80.8253 44.3415 80.6509 41.8544L80.6325 41.601C80.6472 41.3693 80.576 41.1404 80.4324 40.958C80.2889 40.7756 80.0832 40.6525 79.8546 40.6123C79.626 40.5721 79.3907 40.6176 79.1935 40.74C78.9963 40.8625 78.8513 41.0533 78.786 41.2761C78.7478 41.4011 78.7358 41.5326 78.7507 41.6624C78.7507 44.7348 78.0671 56.8783 77.2145 58.4682C74.7873 54.7967 75.5324 40.3643 75.8319 39.4042C75.8586 39.2841 75.8515 39.159 75.8115 39.0427C75.7715 38.9264 75.7 38.8234 75.6051 38.7451C75.5102 38.6669 75.3954 38.6165 75.2736 38.5994C75.1518 38.5823 75.0276 38.5993 74.9148 38.6484C74.7635 38.7136 74.6416 38.8323 74.5723 38.9818C74.242 39.627 73.904 43.1141 73.8656 43.5289C72.8978 54.6892 75.3173 62.7311 78.1592 60.8032C79.349 59.9936 79.6209 57.1141 79.8191 55.0118C79.8944 54.2222 79.9581 53.5417 80.0564 53.1231C80.1371 53.3274 80.2139 53.5978 80.3045 53.9157C80.5864 54.9089 81.0004 56.3644 82.0535 57.7316C83.1749 59.1679 84.7648 58.8991 85.3639 56.3414C85.963 53.7836 87 32.4538 84.4883 32.9069ZM104.014 45.0789C104.008 44.891 104.068 44.707 104.183 44.5581C105.289 43.258 106.507 42.0577 107.824 40.9711C107.996 40.8503 108.198 40.7769 108.408 40.7584C108.618 40.7398 108.829 40.7767 109.02 40.8653C109.212 40.9539 109.376 41.0912 109.498 41.2635C109.619 41.4357 109.694 41.6368 109.713 41.8467L109.715 41.8798V41.8821C109.745 42.5496 110.215 52.7106 109.836 58.4997C109.767 59.5213 109.137 60.2279 108.607 59.5213C107.803 58.4506 107.731 56.0802 107.685 54.5225C107.666 53.9234 107.652 53.4441 107.601 53.2076C107.571 53.2391 107.523 53.3128 107.457 53.4142C106.985 54.1347 105.585 56.2715 103.43 55.0041C98.3761 52.07 99.5052 39.7806 101.71 34.0967C103.269 29.9644 105.888 30.3792 106.764 32.2687C107.436 33.8836 107.568 35.6726 107.14 37.3688C106.825 38.3519 105.827 38.1522 105.704 37.4379C105.601 36.8403 105.567 36.3595 105.536 35.9156C105.483 35.1674 105.438 34.523 105.082 33.5975C103.991 30.7248 99.5974 47.4999 104.206 52.6538C104.475 52.9841 104.698 53.1377 104.974 52.8228C105.88 51.7321 106.38 49.4816 106.648 48.0683C106.702 47.7918 107.132 44.5888 107.132 44.512C106.522 44.9655 105.886 45.3835 105.228 45.764C105.105 45.8326 104.968 45.8685 104.828 45.8684C104.687 45.8682 104.55 45.832 104.428 45.7631C104.306 45.6942 104.204 45.5951 104.131 45.4753C104.059 45.3554 104.018 45.2189 104.014 45.0789ZM92.1623 33.0905C89.858 35.4793 87.6767 55.0195 88.7289 58.2378C88.7624 58.3376 88.8243 58.4255 88.907 58.4907C88.9896 58.5559 89.0895 58.5956 89.1944 58.6049C89.2992 58.615 89.4047 58.5943 89.4979 58.5455C89.5912 58.4967 89.6683 58.4218 89.7198 58.33C90.0454 57.6709 90.494 51.2735 90.57 50.1928L90.58 50.0584C90.6046 49.7135 90.6914 49.6751 91.6884 49.2365C91.9142 49.1367 92.1861 49.0161 92.5156 48.8679C93.0633 48.619 93.478 48.4239 93.7922 48.2764C94.4758 47.9561 94.6816 47.8594 94.7469 47.9185C94.7753 47.9446 94.7769 47.9992 94.7799 48.0767L94.7815 48.0998C94.8568 49.9993 94.9113 51.5216 94.9551 52.7467V52.7513V52.7529C95.1148 57.2201 95.1333 57.7431 95.5496 58.2616C95.972 58.7993 96.7854 58.6072 96.9544 57.4935C97.393 54.521 97.1856 41.3636 94.7815 34.3433C93.8751 31.7087 91.9856 33.0444 92.1623 33.0905ZM91.0562 47.5076C90.7767 47.6827 90.8151 47.4423 90.8796 47.0352C90.9003 46.9046 90.9241 46.7579 90.941 46.602C91.1945 44.0596 92.7768 33.8594 93.1224 35.649C93.2768 36.444 93.4097 37.1184 93.5264 37.7098C94.1586 40.9089 94.3014 41.634 94.6586 45.5105C94.7415 45.8393 94.5103 45.9192 93.9404 46.1166C93.3513 46.3201 92.3989 46.6481 91.0562 47.5076ZM130.598 32.0997C130.759 33.5821 131.312 39.9342 131.312 39.9342C131.435 41.3168 132.648 51.3019 132.648 51.1867C132.725 52.3773 131.704 52.8074 131.112 52.2083C129.799 50.8872 128.332 30.1334 128.478 28.3975C128.486 28.2498 128.54 28.1084 128.632 27.9922C128.723 27.8761 128.848 27.7909 128.99 27.7482C129.131 27.7054 129.283 27.7072 129.423 27.7533C129.564 27.7994 129.687 27.8875 129.776 28.0058L129.787 28.0234C130.101 28.4712 130.226 28.6479 130.598 32.0997Z" fill="#191919"/>
</svg>
