<svg width="245" height="159" viewBox="0 0 245 159" fill="none" xmlns="http://www.w3.org/2000/svg">
<mask id="mask0_5_210" style="mask-type:alpha" maskUnits="userSpaceOnUse" x="0" y="0" width="245" height="159">
<rect width="245" height="159" fill="#D9D9D9"/>
</mask>
<g mask="url(#mask0_5_210)">
<path d="M205.596 196.006L201.185 195.157C197.326 194.214 193.744 192.371 190.734 189.779C184.242 184.177 181.38 175.743 182.224 164.704L182.596 159.724L121.985 149.855L121.239 149.727L59.8372 159.726L60.2182 164.711C61.0619 175.743 58.1999 184.177 51.7081 189.779C48.6969 192.372 45.1144 194.215 41.2538 195.157L36.836 196.006V301.674L118.299 353.41L121.219 355.269L205.606 301.674V200.494L205.596 196.006ZM196.996 297.68L121.223 345.805L45.4463 297.68V203.668C49.8094 202.268 53.8502 200.013 57.3329 197.035C62.9541 192.186 69.3467 183.226 68.9525 167.704L121.221 159.191L173.488 167.703C173.093 183.221 179.486 192.185 185.108 197.035C188.591 200.015 192.632 202.27 196.996 203.671L196.996 297.68Z" fill="url(#paint0_linear_5_210)"/>
<path d="M99.6997 150.039C105.761 143.458 113.525 138.682 122.133 136.239C130.741 133.797 139.856 133.784 148.471 136.202C149.939 136.6 151.34 136.956 152.657 137.379C157.865 115.913 154.778 98.9962 149.937 86.9962C148.469 83.3066 146.239 79.968 143.393 77.1981C140.547 74.4282 137.15 72.2893 133.422 70.9208C129.694 69.5523 125.719 68.9849 121.757 69.2557C117.795 69.5265 113.935 70.6294 110.428 72.4924C108.601 73.4544 106.844 74.5436 105.17 75.7519L130.186 97.8567C129.571 98.1522 128.983 98.5029 128.43 98.9044L102.293 75.6702C83.5528 87.6249 83.2913 98.0518 83.2913 98.0518L105.591 96.1585L110.219 102.89L124.519 103.981C124.368 104.372 124.239 104.772 124.132 105.178L76.4446 102.488C76.4446 121.227 93.892 140.614 93.892 140.614L126.715 115.706C127.246 116.29 127.837 116.817 128.478 117.278L94.993 146.342L77.6959 139.378C62.9511 144.822 59.7753 156.391 59.7753 156.391L87.4092 152.924L99.6997 150.039ZM86.1313 122.14C85.7776 122.14 85.4319 122.035 85.1378 121.838C84.8437 121.642 84.6145 121.363 84.4792 121.036C84.3438 120.709 84.3084 120.349 84.3774 120.003C84.4464 119.656 84.6167 119.337 84.8668 119.087C85.1169 118.837 85.4355 118.667 85.7824 118.598C86.1293 118.529 86.4888 118.564 86.8156 118.699C87.1424 118.835 87.4216 119.064 87.6181 119.358C87.8146 119.652 87.9195 119.998 87.9195 120.352C87.9195 120.826 87.7311 121.281 87.3957 121.616C87.0604 121.951 86.6056 122.14 86.1313 122.14ZM86.552 113.619C86.2191 113.62 85.8937 113.521 85.6169 113.336C85.3401 113.151 85.1243 112.888 84.9969 112.581C84.8694 112.273 84.8361 111.935 84.901 111.608C84.9659 111.282 85.1261 110.982 85.3615 110.746C85.5969 110.511 85.8968 110.351 86.2233 110.286C86.5498 110.221 86.8882 110.254 87.1957 110.381C87.5033 110.509 87.7662 110.725 87.9511 111.001C88.1361 111.278 88.2348 111.604 88.2348 111.936C88.2348 112.383 88.0575 112.811 87.742 113.126C87.4264 113.442 86.9984 113.619 86.552 113.62V113.619ZM91.7059 130.029C91.3523 130.029 91.0065 129.924 90.7125 129.727C90.4185 129.531 90.1893 129.251 90.054 128.925C89.9188 128.598 89.8834 128.238 89.9525 127.891C90.0215 127.545 90.1919 127.226 90.442 126.976C90.6921 126.726 91.0108 126.556 91.3577 126.487C91.7046 126.418 92.0641 126.453 92.3908 126.589C92.7176 126.724 92.9968 126.953 93.1933 127.247C93.3898 127.541 93.4946 127.887 93.4946 128.241C93.4946 128.476 93.4483 128.708 93.3584 128.925C93.2685 129.142 93.1367 129.339 92.9706 129.505C92.8046 129.671 92.6074 129.803 92.3904 129.893C92.1734 129.983 91.9408 130.029 91.706 130.029H91.7059ZM92.653 121.193C92.2993 121.193 91.9536 121.088 91.6595 120.892C91.3655 120.695 91.1363 120.416 91.001 120.089C90.8657 119.762 90.8303 119.403 90.8993 119.056C90.9684 118.709 91.1387 118.39 91.3888 118.14C91.6389 117.89 91.9575 117.72 92.3044 117.651C92.6513 117.582 93.0108 117.617 93.3376 117.753C93.6643 117.888 93.9436 118.117 94.1401 118.411C94.3365 118.705 94.4414 119.051 94.4414 119.405C94.4413 119.879 94.2529 120.334 93.9175 120.669C93.5821 121.005 93.1273 121.193 92.653 121.193H92.653ZM94.336 113.409C93.9823 113.409 93.6366 113.304 93.3425 113.108C93.0484 112.911 92.8192 112.632 92.6838 112.305C92.5484 111.979 92.5129 111.619 92.5819 111.272C92.6509 110.925 92.8212 110.607 93.0713 110.357C93.3213 110.106 93.64 109.936 93.9869 109.867C94.3338 109.798 94.6933 109.833 95.0201 109.969C95.3469 110.104 95.6262 110.333 95.8227 110.627C96.0192 110.921 96.1242 111.267 96.1242 111.621C96.1242 111.856 96.078 112.088 95.9881 112.305C95.8983 112.522 95.7666 112.719 95.6005 112.885C95.4345 113.052 95.2374 113.183 95.0204 113.273C94.8034 113.363 94.5709 113.409 94.3361 113.409H94.336ZM99.2798 128.135C98.9261 128.135 98.5803 128.03 98.2863 127.834C97.9922 127.637 97.763 127.358 97.6277 127.031C97.4924 126.705 97.457 126.345 97.526 125.998C97.5951 125.651 97.7654 125.333 98.0155 125.083C98.2656 124.832 98.5843 124.662 98.9312 124.593C99.2781 124.524 99.6376 124.56 99.9644 124.695C100.291 124.83 100.57 125.06 100.767 125.354C100.963 125.648 101.068 125.994 101.068 126.347C101.068 126.582 101.022 126.815 100.932 127.032C100.842 127.249 100.71 127.446 100.544 127.612C100.378 127.778 100.181 127.909 99.9641 127.999C99.7472 128.089 99.5146 128.135 99.2798 128.135H99.2798ZM100.016 119.3C99.6624 119.3 99.3166 119.195 99.0226 118.998C98.7285 118.802 98.4993 118.523 98.3639 118.196C98.2286 117.869 98.1931 117.51 98.2621 117.163C98.3311 116.816 98.5015 116.497 98.7516 116.247C99.0017 115.997 99.3203 115.827 99.6672 115.758C100.014 115.689 100.374 115.724 100.7 115.859C101.027 115.995 101.306 116.224 101.503 116.518C101.699 116.812 101.804 117.158 101.804 117.512C101.804 117.746 101.758 117.979 101.668 118.196C101.578 118.413 101.447 118.61 101.28 118.776C101.114 118.942 100.917 119.074 100.7 119.164C100.483 119.253 100.251 119.3 100.016 119.3L100.016 119.3Z" fill="url(#paint1_linear_5_210)"/>
<path d="M106.956 148.894L121.25 146.637L174.331 155.257C174.331 155.257 171.268 143.234 148.811 137.79C122.341 131.373 106.956 148.894 106.956 148.894Z" fill="url(#paint2_linear_5_210)"/>
<path d="M167.986 95.6186L181.296 98.9461C181.983 93.6519 182.243 88.3112 182.074 82.9753L163.923 80.3823L181.899 79.6485C181.458 73.0024 180.203 66.4355 178.164 60.0947L155.797 67.1777L177.257 57.5205C176.327 54.9783 175.26 52.4882 174.061 50.0612L153.257 63.1146L172.473 47.0364C172.161 46.4707 171.871 45.9026 171.541 45.339C166.578 37.2877 159.691 30.5968 151.5 25.8687L138.529 53.9729L148.711 24.2756C140.372 19.8084 131.269 16.9471 121.874 15.8403L122.277 50.9258L119.434 15.5914C115.405 15.2411 111.354 15.2132 107.321 15.5079L115.167 51.4336L103.193 15.9254C94.5436 17.0469 86.154 19.6586 78.3964 23.6447L99.9305 56.5122L73.5389 26.3504C68.8221 29.1955 64.3937 32.4934 60.3165 36.1973L100.946 69.2091C100.946 69.2091 111.889 59.4504 131.927 62.9451C161.045 68.024 164.769 108.315 161.383 124.567L172.895 129.307C176.825 120.423 179.532 111.047 180.94 101.435L167.986 95.6186Z" fill="url(#paint3_linear_5_210)"/>
<path d="M212.301 145.45L219.365 149.73C219.579 149.861 219.817 149.948 220.065 149.987C220.313 150.026 220.566 150.015 220.81 149.956C221.054 149.896 221.284 149.789 221.486 149.641C221.688 149.493 221.86 149.306 221.99 149.091C222.12 148.877 222.206 148.638 222.244 148.39C222.282 148.142 222.27 147.889 222.21 147.646C222.149 147.402 222.042 147.173 221.892 146.971C221.743 146.769 221.556 146.599 221.341 146.469L214.276 142.189C214.062 142.06 213.825 141.973 213.578 141.936C213.33 141.898 213.078 141.909 212.835 141.968C212.592 142.028 212.363 142.135 212.161 142.283C211.959 142.431 211.788 142.618 211.659 142.832C211.529 143.046 211.443 143.283 211.405 143.531C211.367 143.778 211.378 144.031 211.438 144.274C211.497 144.517 211.604 144.746 211.753 144.947C211.901 145.149 212.087 145.32 212.301 145.45L212.301 145.45Z" fill="url(#paint4_linear_5_210)"/>
<path d="M209.503 150.068L216.567 154.348C216.999 154.609 217.517 154.687 218.007 154.566C218.497 154.446 218.919 154.135 219.181 153.704C219.442 153.272 219.522 152.754 219.402 152.264C219.282 151.774 218.973 151.351 218.542 151.088L211.478 146.808C211.046 146.546 210.527 146.467 210.036 146.587C209.545 146.708 209.122 147.018 208.86 147.451C208.598 147.883 208.519 148.402 208.639 148.892C208.76 149.383 209.07 149.806 209.503 150.068V150.068Z" fill="url(#paint5_linear_5_210)"/>
<path d="M23.9007 151.088C23.47 151.351 23.161 151.774 23.0415 152.264C22.922 152.754 23.0018 153.272 23.2632 153.703C23.5247 154.135 23.9466 154.445 24.4364 154.566C24.9262 154.687 25.444 154.608 25.8762 154.348L32.9401 150.068C33.3725 149.806 33.6831 149.383 33.8035 148.893C33.924 148.402 33.8446 147.883 33.5826 147.451C33.3207 147.018 32.8977 146.708 32.4068 146.587C31.9158 146.467 31.3971 146.546 30.9648 146.808L23.9007 151.088Z" fill="url(#paint6_linear_5_210)"/>
<path d="M21.1022 146.469C20.6721 146.732 20.3637 147.155 20.2445 147.645C20.1253 148.135 20.2051 148.652 20.4664 149.083C20.7277 149.515 21.1491 149.825 21.6386 149.946C22.128 150.067 22.6455 149.989 23.0777 149.73L30.1414 145.45C30.3558 145.32 30.5426 145.149 30.691 144.948C30.8395 144.746 30.9467 144.517 31.0066 144.274C31.0664 144.03 31.0777 143.778 31.0399 143.53C31.002 143.283 30.9157 143.045 30.7859 142.831C30.6561 142.616 30.4853 142.43 30.2834 142.282C30.0814 142.133 29.8522 142.026 29.6089 141.967C29.3656 141.907 29.1129 141.896 28.8653 141.935C28.6178 141.973 28.3801 142.059 28.1661 142.189L21.1022 146.469Z" fill="url(#paint7_linear_5_210)"/>
<path d="M220.697 131.593L227.761 135.874C227.975 136.005 228.213 136.092 228.461 136.131C228.708 136.169 228.962 136.159 229.205 136.099C229.449 136.04 229.679 135.933 229.882 135.785C230.084 135.637 230.255 135.45 230.385 135.235C230.515 135.021 230.602 134.782 230.639 134.534C230.677 134.286 230.666 134.033 230.605 133.789C230.545 133.546 230.437 133.316 230.288 133.115C230.139 132.913 229.951 132.742 229.736 132.613L222.672 128.333C222.24 128.072 221.721 127.993 221.231 128.114C220.741 128.235 220.318 128.545 220.056 128.977C219.795 129.409 219.715 129.927 219.835 130.418C219.955 130.908 220.265 131.331 220.697 131.593L220.697 131.593Z" fill="url(#paint8_linear_5_210)"/>
<path d="M217.898 136.212L224.962 140.492C225.394 140.753 225.913 140.832 226.403 140.712C226.894 140.591 227.316 140.281 227.578 139.849C227.84 139.417 227.919 138.898 227.799 138.408C227.679 137.917 227.369 137.494 226.937 137.232L219.874 132.952C219.659 132.822 219.422 132.736 219.175 132.698C218.927 132.66 218.675 132.671 218.432 132.731C217.941 132.852 217.518 133.162 217.256 133.594C216.994 134.027 216.914 134.546 217.035 135.036C217.155 135.527 217.466 135.95 217.898 136.212V136.212Z" fill="url(#paint9_linear_5_210)"/>
<path d="M215.1 140.831L222.164 145.111C222.596 145.373 223.115 145.453 223.606 145.332C224.097 145.212 224.52 144.901 224.782 144.469C225.043 144.036 225.123 143.518 225.002 143.027C224.882 142.536 224.571 142.113 224.139 141.851L217.075 137.571C216.861 137.441 216.624 137.355 216.376 137.317C216.129 137.279 215.876 137.29 215.633 137.35C215.39 137.409 215.161 137.516 214.959 137.665C214.758 137.813 214.587 137.999 214.457 138.213C214.328 138.427 214.241 138.665 214.204 138.912C214.166 139.16 214.177 139.412 214.236 139.655C214.296 139.898 214.403 140.127 214.551 140.329C214.699 140.531 214.886 140.701 215.1 140.831V140.831Z" fill="url(#paint10_linear_5_210)"/>
<path d="M18.3038 141.851C17.8718 142.113 17.5615 142.536 17.4412 143.027C17.3209 143.517 17.4004 144.036 17.6622 144.468C17.9241 144.9 18.3468 145.211 18.8376 145.331C19.3283 145.452 19.8468 145.373 20.2792 145.111L27.3431 140.831C27.5575 140.701 27.7442 140.531 27.8927 140.329C28.0411 140.127 28.1483 139.898 28.2082 139.655C28.2681 139.412 28.2794 139.159 28.2415 138.911C28.2037 138.664 28.1174 138.426 27.9876 138.212C27.8577 137.998 27.687 137.811 27.485 137.663C27.283 137.515 27.0539 137.408 26.8105 137.348C26.5672 137.289 26.3146 137.278 26.067 137.316C25.8194 137.354 25.5818 137.441 25.3677 137.571L18.3038 141.851Z" fill="url(#paint11_linear_5_210)"/>
<path d="M225.129 114.47L221.92 125.897L224.579 127.195C226.434 128.1 228.202 129.171 229.862 130.395L232.244 132.152L240.887 124.017C239.535 121.019 237.304 118.501 234.491 116.796C231.678 115.092 228.413 114.28 225.129 114.47Z" fill="url(#paint12_linear_5_210)"/>
<path d="M44.5052 189.591L29.9191 165.518C29.7803 165.288 29.5719 165.109 29.3242 165.005L26.8104 163.95C29.0472 162.824 35.1184 165.684 37.2703 166.142L49.826 186.713C50.453 186.271 51.0841 185.783 51.7084 185.245C53.5953 183.601 55.2045 181.664 56.4739 179.508L43.3571 157.859L43.6561 154.307C45.4373 154.176 47.2228 154.494 48.8491 155.232C49.8245 155.641 50.9015 155.743 51.9363 155.524C52.971 155.305 53.9143 154.775 54.6401 154.006C53.4465 153.71 52.3552 153.097 51.4818 152.231C50.6085 151.365 49.9857 150.279 49.6794 149.088C48.6808 144.988 50.3955 143.908 49.6142 142.442C49.2621 141.781 47.2571 141.222 46.7055 141.728C45.6208 142.723 47.0582 143.99 44.5863 147.221C41.4083 151.376 34.5038 150.607 34.5038 150.607C31.3488 152.052 28.3711 153.856 25.6295 155.984C25.6295 155.984 23.1153 162.46 17.9615 163.353C13.9532 164.049 13.4955 162.188 12.1111 162.689C11.407 162.943 10.9745 164.98 11.3974 165.598C12.3356 166.969 14.0865 165.949 17.2584 168.732C18.1724 169.555 18.8467 170.61 19.2099 171.785C19.573 172.96 19.6115 174.211 19.3213 175.406C20.3392 175.119 21.2453 174.528 21.9185 173.712C22.5917 172.896 23 171.895 23.0889 170.841C23.1879 169.057 23.7326 167.327 24.6731 165.809L27.9599 167.188L42.0415 190.429C42.8777 190.196 43.7002 189.916 44.5052 189.591ZM23.6768 164.013L20.0744 164.797C23.1668 163.227 25.6758 160.709 27.2345 157.611L32.2123 156.836L35.2034 152.783C38.6711 152.835 42.0647 151.777 44.8879 149.763L42.5672 152.605L42.5253 152.593L36.847 154.882L35.3774 158.75L32.4433 160.528L28.3347 160.04L23.6768 164.013Z" fill="url(#paint13_linear_5_210)"/>
<path d="M230.332 162.689C228.947 162.188 228.49 164.049 224.481 163.354C219.328 162.46 216.813 155.984 216.813 155.984C214.072 153.856 211.094 152.052 207.939 150.607C207.939 150.607 201.035 151.376 197.856 147.221C195.385 143.99 196.822 142.723 195.737 141.728C195.186 141.222 193.181 141.781 192.829 142.442C192.047 143.908 193.762 144.988 192.763 149.088C192.457 150.279 191.834 151.365 190.961 152.231C190.088 153.097 188.996 153.71 187.803 154.006C188.529 154.775 189.472 155.305 190.507 155.524C191.541 155.743 192.618 155.641 193.594 155.232C195.22 154.494 197.006 154.176 198.787 154.307L199.086 157.859L185.969 179.507C187.238 181.664 188.848 183.601 190.734 185.245C191.359 185.783 191.99 186.271 192.617 186.713L205.173 166.142C207.325 165.684 213.396 162.824 215.633 163.95L213.119 165.005C212.871 165.109 212.663 165.288 212.524 165.518L197.938 189.591C198.743 189.916 199.565 190.196 200.401 190.429L214.483 167.188L217.77 165.809C218.71 167.327 219.255 169.057 219.354 170.841C219.443 171.894 219.851 172.896 220.525 173.712C221.198 174.528 222.104 175.119 223.122 175.406C222.831 174.211 222.87 172.96 223.233 171.785C223.596 170.61 224.27 169.555 225.184 168.732C228.357 165.949 230.107 166.969 231.046 165.598C231.468 164.98 231.036 162.943 230.332 162.689ZM218.766 164.013L214.108 160.04L210 160.528L207.065 158.75L205.596 154.882L199.918 152.593L199.876 152.605L197.555 149.763C200.378 151.777 203.772 152.835 207.239 152.783L210.23 156.836L215.208 157.611C216.767 160.709 219.276 163.227 222.368 164.797L218.766 164.013Z" fill="url(#paint14_linear_5_210)"/>
<path d="M15.5052 137.232C15.2903 137.361 15.1031 137.532 14.9543 137.734C14.8054 137.935 14.6978 138.165 14.6377 138.408C14.5776 138.652 14.5661 138.905 14.6039 139.152C14.6417 139.4 14.7281 139.638 14.858 139.853C14.988 140.067 15.159 140.254 15.3612 140.402C15.5635 140.551 15.793 140.657 16.0367 140.717C16.2803 140.776 16.5333 140.787 16.7811 140.748C17.0289 140.71 17.2666 140.623 17.4807 140.492L24.5446 136.212C24.7597 136.083 24.9473 135.913 25.0964 135.711C25.2456 135.509 25.3534 135.28 25.4137 135.036C25.474 134.793 25.4856 134.539 25.4478 134.291C25.4101 134.043 25.3237 133.805 25.1936 133.59C25.0636 133.376 24.8924 133.189 24.69 133.041C24.4876 132.892 24.2578 132.785 24.014 132.726C23.7701 132.667 23.517 132.656 23.269 132.695C23.0211 132.734 22.7832 132.821 22.5691 132.952L15.5052 137.232Z" fill="url(#paint15_linear_5_210)"/>
<path d="M19.7706 128.333L12.7068 132.613C12.4927 132.743 12.3063 132.914 12.1581 133.115C12.01 133.317 11.903 133.546 11.8434 133.789C11.7837 134.032 11.7725 134.285 11.8104 134.532C11.8484 134.78 11.9346 135.017 12.0643 135.231C12.1941 135.445 12.3647 135.632 12.5664 135.78C12.7682 135.928 12.9972 136.035 13.2402 136.095C13.4833 136.154 13.7358 136.165 13.9832 136.128C14.2307 136.09 14.4682 136.003 14.6823 135.874L21.746 131.593C21.9601 131.464 22.1465 131.293 22.2946 131.091C22.4427 130.89 22.5497 130.661 22.6093 130.418C22.669 130.174 22.6802 129.922 22.6423 129.675C22.6043 129.427 22.5181 129.19 22.3884 128.976C22.2587 128.762 22.0881 128.575 21.8863 128.427C21.6846 128.279 21.4556 128.172 21.2125 128.112C20.9695 128.053 20.717 128.041 20.4696 128.079C20.2222 128.117 19.9847 128.204 19.7706 128.333L19.7706 128.333Z" fill="url(#paint16_linear_5_210)"/>
<path d="M17.8631 127.195L20.5229 125.897L17.3137 114.47C14.0295 114.28 10.7652 115.092 7.95176 116.796C5.13832 118.501 2.90805 121.019 1.55545 124.017L10.1988 132.152L12.5806 130.395C14.241 129.171 16.0091 128.1 17.8631 127.195Z" fill="url(#paint17_linear_5_210)"/>
</g>
<defs>
<linearGradient id="paint0_linear_5_210" x1="121.221" y1="8.26247" x2="121.221" y2="459.145" gradientUnits="userSpaceOnUse">
<stop stop-color="#D60B51"/>
<stop offset="0.25505" stop-color="#E84E1B"/>
<stop offset="0.26855" stop-color="#EA591B"/>
<stop offset="0.31547" stop-color="#F27B1B"/>
<stop offset="0.36337" stop-color="#F8961C"/>
<stop offset="0.41207" stop-color="#FCA91C"/>
<stop offset="0.46208" stop-color="#FEB41C"/>
<stop offset="0.51533" stop-color="#FFB81C"/>
<stop offset="0.75707" stop-color="#E86031"/>
<stop offset="1" stop-color="#E2312D"/>
</linearGradient>
<linearGradient id="paint1_linear_5_210" x1="107.569" y1="8.26245" x2="107.569" y2="459.145" gradientUnits="userSpaceOnUse">
<stop stop-color="#D60B51"/>
<stop offset="0.25505" stop-color="#E84E1B"/>
<stop offset="0.26855" stop-color="#EA591B"/>
<stop offset="0.31547" stop-color="#F27B1B"/>
<stop offset="0.36337" stop-color="#F8961C"/>
<stop offset="0.41207" stop-color="#FCA91C"/>
<stop offset="0.46208" stop-color="#FEB41C"/>
<stop offset="0.51533" stop-color="#FFB81C"/>
<stop offset="0.75707" stop-color="#E86031"/>
<stop offset="1" stop-color="#E2312D"/>
</linearGradient>
<linearGradient id="paint2_linear_5_210" x1="140.644" y1="8.26245" x2="140.644" y2="459.145" gradientUnits="userSpaceOnUse">
<stop stop-color="#D60B51"/>
<stop offset="0.25505" stop-color="#E84E1B"/>
<stop offset="0.26855" stop-color="#EA591B"/>
<stop offset="0.31547" stop-color="#F27B1B"/>
<stop offset="0.36337" stop-color="#F8961C"/>
<stop offset="0.41207" stop-color="#FCA91C"/>
<stop offset="0.46208" stop-color="#FEB41C"/>
<stop offset="0.51533" stop-color="#FFB81C"/>
<stop offset="0.75707" stop-color="#E86031"/>
<stop offset="1" stop-color="#E2312D"/>
</linearGradient>
<linearGradient id="paint3_linear_5_210" x1="121.221" y1="8.26251" x2="121.221" y2="459.145" gradientUnits="userSpaceOnUse">
<stop stop-color="#D60B51"/>
<stop offset="0.25505" stop-color="#E84E1B"/>
<stop offset="0.26855" stop-color="#EA591B"/>
<stop offset="0.31547" stop-color="#F27B1B"/>
<stop offset="0.36337" stop-color="#F8961C"/>
<stop offset="0.41207" stop-color="#FCA91C"/>
<stop offset="0.46208" stop-color="#FEB41C"/>
<stop offset="0.51533" stop-color="#FFB81C"/>
<stop offset="0.75707" stop-color="#E86031"/>
<stop offset="1" stop-color="#E2312D"/>
</linearGradient>
<linearGradient id="paint4_linear_5_210" x1="216.821" y1="8.26215" x2="216.821" y2="459.146" gradientUnits="userSpaceOnUse">
<stop stop-color="#D60B51"/>
<stop offset="0.25505" stop-color="#E84E1B"/>
<stop offset="0.26855" stop-color="#EA591B"/>
<stop offset="0.31547" stop-color="#F27B1B"/>
<stop offset="0.36337" stop-color="#F8961C"/>
<stop offset="0.41207" stop-color="#FCA91C"/>
<stop offset="0.46208" stop-color="#FEB41C"/>
<stop offset="0.51533" stop-color="#FFB81C"/>
<stop offset="0.75707" stop-color="#E86031"/>
<stop offset="1" stop-color="#E2312D"/>
</linearGradient>
<linearGradient id="paint5_linear_5_210" x1="214.022" y1="8.26261" x2="214.022" y2="459.145" gradientUnits="userSpaceOnUse">
<stop stop-color="#D60B51"/>
<stop offset="0.25505" stop-color="#E84E1B"/>
<stop offset="0.26855" stop-color="#EA591B"/>
<stop offset="0.31547" stop-color="#F27B1B"/>
<stop offset="0.36337" stop-color="#F8961C"/>
<stop offset="0.41207" stop-color="#FCA91C"/>
<stop offset="0.46208" stop-color="#FEB41C"/>
<stop offset="0.51533" stop-color="#FFB81C"/>
<stop offset="0.75707" stop-color="#E86031"/>
<stop offset="1" stop-color="#E2312D"/>
</linearGradient>
<linearGradient id="paint6_linear_5_210" x1="28.4205" y1="8.26231" x2="28.4205" y2="459.145" gradientUnits="userSpaceOnUse">
<stop stop-color="#D60B51"/>
<stop offset="0.25505" stop-color="#E84E1B"/>
<stop offset="0.26855" stop-color="#EA591B"/>
<stop offset="0.31547" stop-color="#F27B1B"/>
<stop offset="0.36337" stop-color="#F8961C"/>
<stop offset="0.41207" stop-color="#FCA91C"/>
<stop offset="0.46208" stop-color="#FEB41C"/>
<stop offset="0.51533" stop-color="#FFB81C"/>
<stop offset="0.75707" stop-color="#E86031"/>
<stop offset="1" stop-color="#E2312D"/>
</linearGradient>
<linearGradient id="paint7_linear_5_210" x1="25.622" y1="8.26247" x2="25.622" y2="459.145" gradientUnits="userSpaceOnUse">
<stop stop-color="#D60B51"/>
<stop offset="0.25505" stop-color="#E84E1B"/>
<stop offset="0.26855" stop-color="#EA591B"/>
<stop offset="0.31547" stop-color="#F27B1B"/>
<stop offset="0.36337" stop-color="#F8961C"/>
<stop offset="0.41207" stop-color="#FCA91C"/>
<stop offset="0.46208" stop-color="#FEB41C"/>
<stop offset="0.51533" stop-color="#FFB81C"/>
<stop offset="0.75707" stop-color="#E86031"/>
<stop offset="1" stop-color="#E2312D"/>
</linearGradient>
<linearGradient id="paint8_linear_5_210" x1="225.216" y1="8.26234" x2="225.216" y2="459.145" gradientUnits="userSpaceOnUse">
<stop stop-color="#D60B51"/>
<stop offset="0.25505" stop-color="#E84E1B"/>
<stop offset="0.26855" stop-color="#EA591B"/>
<stop offset="0.31547" stop-color="#F27B1B"/>
<stop offset="0.36337" stop-color="#F8961C"/>
<stop offset="0.41207" stop-color="#FCA91C"/>
<stop offset="0.46208" stop-color="#FEB41C"/>
<stop offset="0.51533" stop-color="#FFB81C"/>
<stop offset="0.75707" stop-color="#E86031"/>
<stop offset="1" stop-color="#E2312D"/>
</linearGradient>
<linearGradient id="paint9_linear_5_210" x1="222.418" y1="8.26247" x2="222.418" y2="459.145" gradientUnits="userSpaceOnUse">
<stop stop-color="#D60B51"/>
<stop offset="0.25505" stop-color="#E84E1B"/>
<stop offset="0.26855" stop-color="#EA591B"/>
<stop offset="0.31547" stop-color="#F27B1B"/>
<stop offset="0.36337" stop-color="#F8961C"/>
<stop offset="0.41207" stop-color="#FCA91C"/>
<stop offset="0.46208" stop-color="#FEB41C"/>
<stop offset="0.51533" stop-color="#FFB81C"/>
<stop offset="0.75707" stop-color="#E86031"/>
<stop offset="1" stop-color="#E2312D"/>
</linearGradient>
<linearGradient id="paint10_linear_5_210" x1="219.619" y1="8.26267" x2="219.619" y2="459.145" gradientUnits="userSpaceOnUse">
<stop stop-color="#D60B51"/>
<stop offset="0.25505" stop-color="#E84E1B"/>
<stop offset="0.26855" stop-color="#EA591B"/>
<stop offset="0.31547" stop-color="#F27B1B"/>
<stop offset="0.36337" stop-color="#F8961C"/>
<stop offset="0.41207" stop-color="#FCA91C"/>
<stop offset="0.46208" stop-color="#FEB41C"/>
<stop offset="0.51533" stop-color="#FFB81C"/>
<stop offset="0.75707" stop-color="#E86031"/>
<stop offset="1" stop-color="#E2312D"/>
</linearGradient>
<linearGradient id="paint11_linear_5_210" x1="22.8235" y1="8.26276" x2="22.8235" y2="459.145" gradientUnits="userSpaceOnUse">
<stop stop-color="#D60B51"/>
<stop offset="0.25505" stop-color="#E84E1B"/>
<stop offset="0.26855" stop-color="#EA591B"/>
<stop offset="0.31547" stop-color="#F27B1B"/>
<stop offset="0.36337" stop-color="#F8961C"/>
<stop offset="0.41207" stop-color="#FCA91C"/>
<stop offset="0.46208" stop-color="#FEB41C"/>
<stop offset="0.51533" stop-color="#FFB81C"/>
<stop offset="0.75707" stop-color="#E86031"/>
<stop offset="1" stop-color="#E2312D"/>
</linearGradient>
<linearGradient id="paint12_linear_5_210" x1="231.404" y1="8.26233" x2="231.404" y2="459.145" gradientUnits="userSpaceOnUse">
<stop stop-color="#D60B51"/>
<stop offset="0.25505" stop-color="#E84E1B"/>
<stop offset="0.26855" stop-color="#EA591B"/>
<stop offset="0.31547" stop-color="#F27B1B"/>
<stop offset="0.36337" stop-color="#F8961C"/>
<stop offset="0.41207" stop-color="#FCA91C"/>
<stop offset="0.46208" stop-color="#FEB41C"/>
<stop offset="0.51533" stop-color="#FFB81C"/>
<stop offset="0.75707" stop-color="#E86031"/>
<stop offset="1" stop-color="#E2312D"/>
</linearGradient>
<linearGradient id="paint13_linear_5_210" x1="33.8522" y1="8.26238" x2="33.8522" y2="459.145" gradientUnits="userSpaceOnUse">
<stop stop-color="#D60B51"/>
<stop offset="0.25505" stop-color="#E84E1B"/>
<stop offset="0.26855" stop-color="#EA591B"/>
<stop offset="0.31547" stop-color="#F27B1B"/>
<stop offset="0.36337" stop-color="#F8961C"/>
<stop offset="0.41207" stop-color="#FCA91C"/>
<stop offset="0.46208" stop-color="#FEB41C"/>
<stop offset="0.51533" stop-color="#FFB81C"/>
<stop offset="0.75707" stop-color="#E86031"/>
<stop offset="1" stop-color="#E2312D"/>
</linearGradient>
<linearGradient id="paint14_linear_5_210" x1="208.591" y1="8.26241" x2="208.591" y2="459.145" gradientUnits="userSpaceOnUse">
<stop stop-color="#D60B51"/>
<stop offset="0.25505" stop-color="#E84E1B"/>
<stop offset="0.26855" stop-color="#EA591B"/>
<stop offset="0.31547" stop-color="#F27B1B"/>
<stop offset="0.36337" stop-color="#F8961C"/>
<stop offset="0.41207" stop-color="#FCA91C"/>
<stop offset="0.46208" stop-color="#FEB41C"/>
<stop offset="0.51533" stop-color="#FFB81C"/>
<stop offset="0.75707" stop-color="#E86031"/>
<stop offset="1" stop-color="#E2312D"/>
</linearGradient>
<linearGradient id="paint15_linear_5_210" x1="20.025" y1="8.26229" x2="20.025" y2="459.146" gradientUnits="userSpaceOnUse">
<stop stop-color="#D60B51"/>
<stop offset="0.25505" stop-color="#E84E1B"/>
<stop offset="0.26855" stop-color="#EA591B"/>
<stop offset="0.31547" stop-color="#F27B1B"/>
<stop offset="0.36337" stop-color="#F8961C"/>
<stop offset="0.41207" stop-color="#FCA91C"/>
<stop offset="0.46208" stop-color="#FEB41C"/>
<stop offset="0.51533" stop-color="#FFB81C"/>
<stop offset="0.75707" stop-color="#E86031"/>
<stop offset="1" stop-color="#E2312D"/>
</linearGradient>
<linearGradient id="paint16_linear_5_210" x1="17.2264" y1="8.26245" x2="17.2264" y2="459.145" gradientUnits="userSpaceOnUse">
<stop stop-color="#D60B51"/>
<stop offset="0.25505" stop-color="#E84E1B"/>
<stop offset="0.26855" stop-color="#EA591B"/>
<stop offset="0.31547" stop-color="#F27B1B"/>
<stop offset="0.36337" stop-color="#F8961C"/>
<stop offset="0.41207" stop-color="#FCA91C"/>
<stop offset="0.46208" stop-color="#FEB41C"/>
<stop offset="0.51533" stop-color="#FFB81C"/>
<stop offset="0.75707" stop-color="#E86031"/>
<stop offset="1" stop-color="#E2312D"/>
</linearGradient>
<linearGradient id="paint17_linear_5_210" x1="11.0392" y1="8.26236" x2="11.0392" y2="459.145" gradientUnits="userSpaceOnUse">
<stop stop-color="#D60B51"/>
<stop offset="0.25505" stop-color="#E84E1B"/>
<stop offset="0.26855" stop-color="#EA591B"/>
<stop offset="0.31547" stop-color="#F27B1B"/>
<stop offset="0.36337" stop-color="#F8961C"/>
<stop offset="0.41207" stop-color="#FCA91C"/>
<stop offset="0.46208" stop-color="#FEB41C"/>
<stop offset="0.51533" stop-color="#FFB81C"/>
<stop offset="0.75707" stop-color="#E86031"/>
<stop offset="1" stop-color="#E2312D"/>
</linearGradient>
</defs>
</svg>
