<svg width="107" height="85" viewBox="0 0 107 85" fill="none" xmlns="http://www.w3.org/2000/svg">
<mask id="mask0_6_1213" style="mask-type:alpha" maskUnits="userSpaceOnUse" x="32" y="0" width="42" height="51">
<rect x="32.9446" width="40.6173" height="50.352" fill="#D9D9D9"/>
</mask>
<g mask="url(#mask0_6_1213)">
<g clip-path="url(#clip0_6_1213)">
<path d="M65.3795 26.6156L64.742 26.4929C64.1843 26.3566 63.6667 26.0902 63.2316 25.7156C62.2935 24.906 61.8799 23.6872 62.0018 22.0918L62.0555 21.3722L53.2962 19.9459L53.1883 19.9274L44.3147 21.3724L44.3698 22.0929C44.4917 23.6872 44.0781 24.906 43.1399 25.7156C42.7047 26.0904 42.187 26.3568 41.6291 26.4929L40.9906 26.6156V41.8865L52.7634 49.3633L53.1855 49.632L65.381 41.8865V27.2641L65.3795 26.6156ZM64.1366 41.3093L53.186 48.2642L42.2349 41.3093V27.7228C42.8655 27.5205 43.4495 27.1947 43.9528 26.7643C44.7651 26.0635 45.689 24.7687 45.632 22.5254L53.1858 21.2952L60.7393 22.5253C60.6822 24.7679 61.6061 26.0633 62.4186 26.7643C62.9219 27.1949 63.5059 27.5209 64.1366 27.7233L64.1366 41.3093Z" fill="url(#paint0_linear_6_1213)"/>
<path d="M50.0755 19.9726C50.9515 19.0214 52.0736 18.3311 53.3175 17.9782C54.5615 17.6253 55.8789 17.6234 57.1238 17.9728C57.336 18.0303 57.5385 18.0818 57.7289 18.1429C58.4814 15.0407 58.0354 12.5959 57.3358 10.8617C57.1235 10.3284 56.8013 9.84595 56.39 9.44566C55.9787 9.04536 55.4877 8.73625 54.949 8.53847C54.4102 8.34069 53.8358 8.2587 53.2632 8.29784C52.6907 8.33697 52.1328 8.49635 51.6259 8.76559C51.3619 8.90462 51.1081 9.06203 50.8661 9.23665L54.4814 12.4312C54.3924 12.4739 54.3074 12.5246 54.2276 12.5826L50.4503 9.22484C47.742 10.9525 47.7042 12.4594 47.7042 12.4594L50.9269 12.1858L51.5958 13.1587L53.6623 13.3163C53.6405 13.3728 53.6218 13.4306 53.6065 13.4892L46.7147 13.1004C46.7147 15.8087 49.2362 18.6104 49.2362 18.6104L53.9797 15.0107C54.0565 15.0951 54.1419 15.1713 54.2345 15.238L49.3953 19.4381L46.8956 18.4318C44.7647 19.2185 44.3057 20.8905 44.3057 20.8905L48.2993 20.3894L50.0755 19.9726ZM48.1147 15.9405C48.0635 15.9405 48.0136 15.9254 47.9711 15.897C47.9286 15.8686 47.8954 15.8282 47.8759 15.781C47.8563 15.7338 47.8512 15.6818 47.8612 15.6317C47.8711 15.5816 47.8958 15.5355 47.9319 15.4994C47.968 15.4632 48.0141 15.4386 48.0642 15.4286C48.1144 15.4187 48.1663 15.4238 48.2135 15.4433C48.2608 15.4629 48.3011 15.496 48.3295 15.5385C48.3579 15.581 48.3731 15.631 48.3731 15.6821C48.3731 15.7506 48.3458 15.8164 48.2974 15.8648C48.2489 15.9133 48.1832 15.9405 48.1147 15.9405ZM48.1755 14.7092C48.1273 14.7092 48.0803 14.695 48.0403 14.6682C48.0003 14.6415 47.9691 14.6035 47.9507 14.5591C47.9323 14.5146 47.9275 14.4657 47.9368 14.4185C47.9462 14.3714 47.9694 14.328 48.0034 14.294C48.0374 14.26 48.0808 14.2368 48.1279 14.2274C48.1751 14.218 48.224 14.2228 48.2685 14.2413C48.3129 14.2597 48.3509 14.2908 48.3776 14.3308C48.4044 14.3708 48.4186 14.4179 48.4186 14.466C48.4186 14.5305 48.393 14.5923 48.3474 14.638C48.3018 14.6836 48.24 14.7092 48.1755 14.7092V14.7092ZM48.9203 17.0807C48.8692 17.0807 48.8192 17.0655 48.7767 17.0371C48.7342 17.0087 48.7011 16.9683 48.6816 16.9211C48.662 16.8739 48.6569 16.8219 48.6669 16.7718C48.6769 16.7216 48.7015 16.6756 48.7376 16.6395C48.7738 16.6033 48.8198 16.5787 48.87 16.5688C48.9201 16.5588 48.972 16.5639 49.0193 16.5835C49.0665 16.603 49.1068 16.6362 49.1352 16.6787C49.1636 16.7212 49.1788 16.7711 49.1788 16.8222C49.1788 16.8562 49.1721 16.8898 49.1591 16.9212C49.1461 16.9525 49.1271 16.981 49.1031 17.005C49.0791 17.029 49.0506 17.048 49.0192 17.061C48.9878 17.074 48.9542 17.0807 48.9203 17.0807H48.9203ZM49.0571 15.8037C49.006 15.8037 48.9561 15.7886 48.9136 15.7602C48.8711 15.7318 48.838 15.6914 48.8184 15.6442C48.7989 15.5969 48.7937 15.545 48.8037 15.4949C48.8137 15.4447 48.8383 15.3987 48.8745 15.3625C48.9106 15.3264 48.9566 15.3018 49.0068 15.2918C49.0569 15.2819 49.1089 15.287 49.1561 15.3065C49.2033 15.3261 49.2437 15.3592 49.2721 15.4017C49.3005 15.4442 49.3156 15.4942 49.3156 15.5453C49.3156 15.6138 49.2884 15.6796 49.2399 15.728C49.1914 15.7765 49.1257 15.8037 49.0572 15.8037H49.0571ZM49.3004 14.6788C49.2493 14.6788 49.1993 14.6637 49.1568 14.6353C49.1143 14.6069 49.0812 14.5665 49.0616 14.5193C49.042 14.4721 49.0369 14.4201 49.0469 14.37C49.0568 14.3199 49.0815 14.2738 49.1176 14.2377C49.1537 14.2015 49.1998 14.1769 49.2499 14.1669C49.3001 14.1569 49.352 14.1621 49.3992 14.1816C49.4465 14.2012 49.4868 14.2343 49.5152 14.2768C49.5436 14.3193 49.5588 14.3693 49.5588 14.4204C49.5588 14.4543 49.5521 14.4879 49.5391 14.5193C49.5262 14.5506 49.5071 14.5791 49.4831 14.6031C49.4591 14.6271 49.4306 14.6462 49.3993 14.6592C49.3679 14.6721 49.3343 14.6788 49.3004 14.6788H49.3004ZM50.0148 16.807C49.9637 16.807 49.9138 16.7919 49.8713 16.7635C49.8288 16.7351 49.7956 16.6947 49.7761 16.6475C49.7565 16.6002 49.7514 16.5483 49.7614 16.4981C49.7714 16.448 49.796 16.402 49.8321 16.3658C49.8683 16.3297 49.9143 16.3051 49.9645 16.2951C50.0146 16.2851 50.0666 16.2903 50.1138 16.3098C50.161 16.3294 50.2014 16.3625 50.2298 16.405C50.2582 16.4475 50.2733 16.4975 50.2733 16.5486C50.2733 16.5825 50.2666 16.6161 50.2536 16.6475C50.2406 16.6789 50.2216 16.7073 50.1976 16.7313C50.1736 16.7553 50.1451 16.7744 50.1137 16.7874C50.0824 16.8003 50.0488 16.807 50.0148 16.807H50.0148ZM50.1212 15.5301C50.0701 15.5301 50.0202 15.5149 49.9777 15.4866C49.9352 15.4582 49.902 15.4178 49.8825 15.3706C49.8629 15.3234 49.8578 15.2714 49.8678 15.2213C49.8777 15.1711 49.9024 15.1251 49.9385 15.0889C49.9747 15.0528 50.0207 15.0282 50.0708 15.0182C50.121 15.0082 50.1729 15.0134 50.2201 15.0329C50.2674 15.0525 50.3077 15.0856 50.3361 15.1281C50.3645 15.1706 50.3797 15.2206 50.3797 15.2717C50.3797 15.3056 50.373 15.3392 50.36 15.3706C50.347 15.4019 50.328 15.4304 50.304 15.4544C50.28 15.4784 50.2515 15.4974 50.2201 15.5104C50.1888 15.5234 50.1552 15.5301 50.1213 15.5301L50.1212 15.5301Z" fill="url(#paint1_linear_6_1213)"/>
<path d="M51.1242 19.8069L53.1899 19.4808L60.8611 20.7265C60.8611 20.7265 60.4185 18.989 57.173 18.2023C53.3476 17.2749 51.1242 19.8069 51.1242 19.8069Z" fill="url(#paint2_linear_6_1213)"/>
<path d="M50.4672 34.8941L46.4854 33.4633L50.4672 32.0476V30.5855L44.8677 32.7787V34.1632L50.4672 36.3564V34.8941Z" fill="url(#paint3_linear_6_1213)"/>
<path d="M55.8333 30.5855V32.0476L59.815 33.4633L55.8333 34.8941V36.3564L61.4329 34.1632V32.7787L55.8333 30.5855Z" fill="url(#paint4_linear_6_1213)"/>
<path d="M54.6972 26.7238L50.1553 40.6294H51.7107L56.2527 26.7238H54.6972Z" fill="url(#paint5_linear_6_1213)"/>
<path d="M59.944 12.1077L61.8676 12.5886C61.9669 11.8235 62.0045 11.0517 61.9801 10.2806L59.3569 9.90581L61.9548 9.79976C61.891 8.83928 61.7097 7.89025 61.415 6.97389L58.1825 7.99751L61.2839 6.60187C61.1495 6.23447 60.9953 5.8746 60.8221 5.52387L57.8156 7.41032L60.5925 5.08672C60.5474 5.00496 60.5056 4.92287 60.4578 4.84142C59.7407 3.67785 58.7454 2.7109 57.5616 2.02761L55.687 6.08917L57.1585 1.79737C55.9534 1.15179 54.6378 0.738268 53.2801 0.578319L53.3383 5.64881L52.9274 0.542344C52.3452 0.491722 51.7598 0.487691 51.1769 0.530288L52.3108 5.72219L50.5803 0.590613C49.3303 0.752689 48.1179 1.13013 46.9968 1.7062L50.1088 6.45615L46.2948 2.09722C45.6131 2.50838 44.9731 2.98499 44.3839 3.52028L50.2556 8.29108C50.2556 8.29108 51.837 6.88076 54.7329 7.38583C58.941 8.11981 59.4792 13.9426 58.9899 16.2913L60.6536 16.9764C61.2215 15.6925 61.6127 14.3374 61.8162 12.9483L59.944 12.1077Z" fill="url(#paint6_linear_6_1213)"/>
<path d="M66.3485 19.3092L67.3693 19.9278C67.4003 19.9467 67.4347 19.9593 67.4705 19.9649C67.5063 19.9706 67.5429 19.969 67.5781 19.9604C67.6134 19.9519 67.6466 19.9364 67.6758 19.915C67.7051 19.8936 67.7298 19.8666 67.7486 19.8355C67.7674 19.8045 67.7799 19.7701 67.7854 19.7342C67.7908 19.6984 67.7892 19.6618 67.7804 19.6266C67.7717 19.5914 67.7561 19.5582 67.7346 19.5291C67.713 19.4999 67.6859 19.4753 67.6548 19.4566L66.6339 18.8381C66.603 18.8193 66.5687 18.8069 66.5329 18.8014C66.4972 18.7959 66.4607 18.7975 66.4256 18.8062C66.3904 18.8148 66.3573 18.8302 66.3282 18.8516C66.299 18.873 66.2744 18.9 66.2556 18.9309C66.2369 18.9619 66.2244 18.9962 66.2189 19.0319C66.2135 19.0677 66.2151 19.1042 66.2237 19.1393C66.2323 19.1744 66.2478 19.2075 66.2692 19.2367C66.2906 19.2658 66.3175 19.2905 66.3485 19.3092L66.3485 19.3092Z" fill="url(#paint7_linear_6_1213)"/>
<path d="M65.9441 19.9767L66.9649 20.5952C67.0274 20.6329 67.1022 20.6442 67.1731 20.6267C67.2439 20.6093 67.3049 20.5644 67.3427 20.502C67.3805 20.4397 67.392 20.3648 67.3747 20.294C67.3574 20.2231 67.3127 20.162 67.2504 20.1241L66.2295 19.5055C66.167 19.4676 66.0921 19.4562 66.0211 19.4736C65.9502 19.491 65.8891 19.5359 65.8512 19.5984C65.8134 19.6608 65.8019 19.7358 65.8193 19.8068C65.8367 19.8777 65.8816 19.9388 65.9441 19.9767V19.9767Z" fill="url(#paint8_linear_6_1213)"/>
<path d="M39.1212 20.1241C39.059 20.162 39.0143 20.2231 38.997 20.294C38.9798 20.3648 38.9913 20.4396 39.0291 20.502C39.0669 20.5643 39.1278 20.6092 39.1986 20.6266C39.2694 20.6441 39.3442 20.6328 39.4067 20.5952L40.4276 19.9767C40.49 19.9388 40.5349 19.8777 40.5523 19.8068C40.5698 19.7358 40.5583 19.6608 40.5204 19.5984C40.4826 19.5359 40.4214 19.491 40.3505 19.4736C40.2795 19.4562 40.2046 19.4676 40.1421 19.5055L39.1212 20.1241Z" fill="url(#paint9_linear_6_1213)"/>
<path d="M38.7167 19.4566C38.6546 19.4946 38.61 19.5557 38.5928 19.6265C38.5755 19.6973 38.5871 19.7721 38.6248 19.8344C38.6626 19.8967 38.7235 19.9415 38.7942 19.959C38.865 19.9765 38.9397 19.9653 39.0022 19.9278L40.023 19.3092C40.054 19.2905 40.081 19.2659 40.1025 19.2367C40.1239 19.2076 40.1394 19.1744 40.1481 19.1393C40.1567 19.1041 40.1584 19.0676 40.1529 19.0318C40.1474 18.9961 40.1349 18.9617 40.1162 18.9307C40.0974 18.8998 40.0728 18.8728 40.0436 18.8514C40.0144 18.83 39.9813 18.8145 39.9461 18.8059C39.9109 18.7973 39.8744 18.7957 39.8386 18.8013C39.8029 18.8068 39.7685 18.8193 39.7376 18.8381L38.7167 19.4566Z" fill="url(#paint10_linear_6_1213)"/>
<path d="M67.5618 17.3067L68.5827 17.9253C68.6136 17.9442 68.648 17.9568 68.6838 17.9624C68.7196 17.968 68.7562 17.9665 68.7915 17.9579C68.8267 17.9494 68.8599 17.9339 68.8892 17.9125C68.9184 17.8911 68.9432 17.8641 68.962 17.833C68.9807 17.802 68.9932 17.7676 68.9987 17.7317C69.0041 17.6959 69.0025 17.6593 68.9938 17.6241C68.985 17.5889 68.9695 17.5557 68.9479 17.5266C68.9263 17.4974 68.8992 17.4728 68.8682 17.4541L67.8473 16.8356C67.7848 16.7978 67.7099 16.7864 67.639 16.8039C67.5681 16.8213 67.5071 16.8662 67.4693 16.9286C67.4314 16.991 67.4199 17.0659 67.4373 17.1368C67.4546 17.2077 67.4994 17.2688 67.5618 17.3067L67.5618 17.3067Z" fill="url(#paint11_linear_6_1213)"/>
<path d="M67.1573 17.9742L68.1782 18.5928C68.2407 18.6305 68.3156 18.6419 68.3864 18.6245C68.4573 18.607 68.5184 18.5622 68.5562 18.4998C68.594 18.4373 68.6055 18.3624 68.5882 18.2915C68.5708 18.2206 68.526 18.1595 68.4637 18.1216L67.4428 17.5031C67.4119 17.4843 67.3775 17.4719 67.3418 17.4664C67.306 17.4609 67.2695 17.4625 67.2344 17.4711C67.1634 17.4885 67.1023 17.5334 67.0645 17.5959C67.0266 17.6584 67.0151 17.7334 67.0325 17.8043C67.05 17.8753 67.0948 17.9364 67.1573 17.9742V17.9742Z" fill="url(#paint12_linear_6_1213)"/>
<path d="M66.7529 18.6418L67.7738 19.2603C67.8363 19.2982 67.9113 19.3097 67.9822 19.2922C68.0532 19.2748 68.1143 19.2299 68.1521 19.1675C68.19 19.105 68.2015 19.03 68.1841 18.9591C68.1666 18.8881 68.1218 18.827 68.0593 18.7891L67.0384 18.1706C67.0075 18.1519 66.9732 18.1394 66.9374 18.1339C66.9016 18.1284 66.8652 18.1301 66.83 18.1387C66.7949 18.1473 66.7618 18.1627 66.7327 18.1842C66.7035 18.2056 66.6789 18.2325 66.6601 18.2634C66.6414 18.2944 66.6289 18.3287 66.6234 18.3645C66.6179 18.4002 66.6196 18.4367 66.6282 18.4718C66.6368 18.507 66.6523 18.54 66.6737 18.5692C66.6951 18.5984 66.722 18.623 66.7529 18.6418V18.6418Z" fill="url(#paint13_linear_6_1213)"/>
<path d="M38.3123 18.7891C38.2499 18.827 38.2051 18.8881 38.1877 18.9591C38.1703 19.03 38.1818 19.1049 38.2196 19.1674C38.2575 19.2299 38.3186 19.2747 38.3895 19.2922C38.4604 19.3096 38.5353 19.2981 38.5978 19.2603L39.6187 18.6418C39.6497 18.623 39.6767 18.5984 39.6981 18.5692C39.7196 18.5401 39.7351 18.507 39.7437 18.4718C39.7524 18.4367 39.754 18.4001 39.7485 18.3644C39.743 18.3286 39.7306 18.2942 39.7118 18.2633C39.6931 18.2323 39.6684 18.2053 39.6392 18.1839C39.61 18.1625 39.5769 18.1471 39.5417 18.1384C39.5066 18.1298 39.47 18.1283 39.4343 18.1338C39.3985 18.1393 39.3641 18.1518 39.3332 18.1706L38.3123 18.7891Z" fill="url(#paint14_linear_6_1213)"/>
<path d="M68.2024 14.832L67.7386 16.4834L68.1229 16.671C68.3909 16.8018 68.6464 16.9566 68.8864 17.1336L69.2306 17.3875L70.4797 16.2119C70.2842 15.7785 69.9619 15.4146 69.5553 15.1683C69.1487 14.9219 68.677 14.8047 68.2024 14.832Z" fill="url(#paint15_linear_6_1213)"/>
<path d="M42.0989 25.6885L39.991 22.2095C39.9709 22.1763 39.9408 22.1503 39.905 22.1354L39.5417 21.9829C39.8649 21.8201 40.7423 22.2334 41.0533 22.2996L42.8679 25.2725C42.9585 25.2087 43.0497 25.1382 43.1399 25.0604C43.4126 24.8229 43.6451 24.5429 43.8286 24.2312L41.933 21.1026L41.9762 20.5893C42.2336 20.5704 42.4916 20.6164 42.7267 20.723C42.8676 20.7821 43.0233 20.7968 43.1728 20.7652C43.3224 20.7335 43.4587 20.657 43.5636 20.5458C43.3911 20.503 43.2334 20.4144 43.1072 20.2892C42.9809 20.1641 42.8909 20.0072 42.8467 19.8351C42.7024 19.2425 42.9502 19.0865 42.8372 18.8745C42.7864 18.779 42.4966 18.6982 42.4169 18.7714C42.2601 18.9152 42.4679 19.0984 42.1106 19.5653C41.6513 20.1656 40.6535 20.0545 40.6535 20.0545C40.1976 20.2634 39.7672 20.5241 39.371 20.8316C39.371 20.8316 39.0077 21.7675 38.2629 21.8967C37.6836 21.9972 37.6174 21.7283 37.4174 21.8006C37.3156 21.8374 37.2531 22.1317 37.3142 22.221C37.4498 22.4192 37.7028 22.2718 38.1613 22.674C38.2933 22.7929 38.3908 22.9453 38.4433 23.1151C38.4958 23.2849 38.5013 23.4658 38.4594 23.6385C38.6065 23.597 38.7374 23.5116 38.8347 23.3937C38.932 23.2758 38.991 23.131 39.0039 22.9787C39.0182 22.721 39.0969 22.4709 39.2328 22.2515L39.7078 22.4509L41.7429 25.8096C41.8637 25.7758 41.9826 25.7354 42.0989 25.6885ZM39.0888 21.992L38.5682 22.1053C39.0151 21.8784 39.3777 21.5145 39.603 21.0668L40.3224 20.9548L40.7546 20.369C41.2558 20.3766 41.7462 20.2236 42.1542 19.9325L41.8188 20.3433L41.8128 20.3416L40.9922 20.6724L40.7798 21.2314L40.3557 21.4883L39.762 21.4178L39.0888 21.992Z" fill="url(#paint16_linear_6_1213)"/>
<path d="M68.9542 21.8006C68.7541 21.7283 68.688 21.9972 68.1087 21.8967C67.3639 21.7675 67.0006 20.8316 67.0006 20.8316C66.6043 20.5241 66.174 20.2634 65.718 20.0545C65.718 20.0545 64.7202 20.1656 64.2609 19.5653C63.9037 19.0984 64.1114 18.9152 63.9547 18.7714C63.875 18.6982 63.5852 18.779 63.5343 18.8745C63.4214 19.0865 63.6692 19.2425 63.5249 19.8351C63.4806 20.0072 63.3906 20.1641 63.2644 20.2892C63.1382 20.4144 62.9805 20.503 62.808 20.5458C62.9129 20.657 63.0492 20.7335 63.1987 20.7652C63.3483 20.7968 63.5039 20.7821 63.6449 20.723C63.8799 20.6164 64.138 20.5704 64.3954 20.5893L64.4386 21.1026L62.543 24.2312C62.7264 24.5428 62.959 24.8228 63.2317 25.0604C63.3219 25.1382 63.4131 25.2087 63.5037 25.2725L65.3183 22.2996C65.6292 22.2334 66.5066 21.8201 66.8299 21.9829L66.4666 22.1354C66.4308 22.1503 66.4007 22.1763 66.3806 22.2095L64.2727 25.6885C64.389 25.7354 64.5079 25.7759 64.6287 25.8096L66.6638 22.4508L67.1388 22.2515C67.2747 22.4709 67.3534 22.721 67.3677 22.9787C67.3806 23.131 67.4396 23.2758 67.5369 23.3937C67.6342 23.5115 67.7651 23.597 67.9122 23.6385C67.8703 23.4658 67.8758 23.2849 67.9283 23.1151C67.9808 22.9453 68.0782 22.7929 68.2103 22.6739C68.6687 22.2718 68.9218 22.4192 69.0574 22.221C69.1185 22.1317 69.056 21.8374 68.9542 21.8006ZM67.2827 21.992L66.6096 21.4178L66.0158 21.4883L65.5918 21.2313L65.3794 20.6724L64.5588 20.3416L64.5527 20.3433L64.2174 19.9325C64.6254 20.2236 65.1158 20.3766 65.6169 20.369L66.0492 20.9548L66.7686 21.0668C66.9938 21.5145 67.3565 21.8784 67.8034 22.1053L67.2827 21.992Z" fill="url(#paint17_linear_6_1213)"/>
<path d="M37.9079 18.1217C37.8768 18.1404 37.8498 18.165 37.8283 18.1942C37.8067 18.2233 37.7912 18.2564 37.7825 18.2916C37.7738 18.3268 37.7722 18.3634 37.7776 18.3992C37.7831 18.435 37.7956 18.4694 37.8143 18.5004C37.8331 18.5314 37.8578 18.5584 37.8871 18.5798C37.9163 18.6012 37.9495 18.6167 37.9847 18.6253C38.0199 18.6339 38.0565 18.6354 38.0923 18.6298C38.1281 18.6243 38.1624 18.6117 38.1934 18.5928L39.2142 17.9743C39.2453 17.9556 39.2724 17.931 39.294 17.9018C39.3155 17.8726 39.3311 17.8395 39.3398 17.8043C39.3486 17.7691 39.3502 17.7325 39.3448 17.6967C39.3393 17.6608 39.3268 17.6264 39.308 17.5954C39.2892 17.5643 39.2645 17.5373 39.2352 17.5159C39.206 17.4945 39.1728 17.479 39.1375 17.4705C39.1023 17.4619 39.0657 17.4604 39.0299 17.466C38.9941 17.4716 38.9597 17.4842 38.9287 17.5031L37.9079 18.1217Z" fill="url(#paint18_linear_6_1213)"/>
<path d="M38.5243 16.8356L37.5034 17.4541C37.4725 17.4729 37.4456 17.4975 37.4242 17.5267C37.4027 17.5558 37.3873 17.5889 37.3787 17.6241C37.37 17.6592 37.3684 17.6957 37.3739 17.7314C37.3794 17.7672 37.3919 17.8015 37.4106 17.8325C37.4293 17.8634 37.454 17.8903 37.4832 17.9117C37.5123 17.9332 37.5454 17.9486 37.5805 17.9572C37.6157 17.9659 37.6522 17.9675 37.6879 17.962C37.7237 17.9565 37.758 17.944 37.7889 17.9253L38.8098 17.3067C38.8407 17.288 38.8677 17.2633 38.8891 17.2342C38.9105 17.205 38.9259 17.1719 38.9345 17.1368C38.9432 17.1017 38.9448 17.0652 38.9393 17.0294C38.9338 16.9937 38.9214 16.9594 38.9026 16.9284C38.8839 16.8975 38.8592 16.8705 38.8301 16.8491C38.8009 16.8277 38.7678 16.8123 38.7327 16.8037C38.6976 16.795 38.6611 16.7934 38.6253 16.7989C38.5896 16.8044 38.5552 16.8168 38.5243 16.8356L38.5243 16.8356Z" fill="url(#paint19_linear_6_1213)"/>
<path d="M38.2487 16.671L38.633 16.4834L38.1693 14.832C37.6946 14.8047 37.2229 14.9219 36.8163 15.1683C36.4097 15.4146 36.0874 15.7785 35.8919 16.2119L37.141 17.3875L37.4852 17.1336C37.7252 16.9566 37.9807 16.8018 38.2487 16.671Z" fill="url(#paint20_linear_6_1213)"/>
<path d="M39.2728 27.2275C39.7166 27.8749 40.0054 28.6158 40.1169 29.3927C40.3 31.0551 39.7006 33.0749 37.5847 32.9892C35.6754 32.9118 37.4257 30.8484 37.8171 32.2429C37.936 32.269 38.0589 32.2714 38.1787 32.2498C38.2985 32.2282 38.4129 32.1832 38.5152 32.1172C38.6175 32.0513 38.7058 31.9658 38.7749 31.8656C38.8441 31.7654 38.8927 31.6525 38.9181 31.5334C39.2117 30.3102 37.9639 28.8912 36.3492 29.8208C34.3815 30.9537 35.7131 32.7078 35.7131 32.7078C35.7131 32.7078 34.7344 32.561 34.5876 33.1482C34.5876 33.1482 36.7896 34.7629 38.8447 33.7353C40.8998 32.7078 41.3279 29.0624 39.2728 27.2275ZM37.6458 28.5731C39.3095 28.3284 38.5756 26.4201 37.8416 26.469C37.1076 26.518 37.548 27.3498 37.548 27.3498C36.4715 27.203 37.2544 25.0745 38.6245 25.9797C39.6833 26.6828 40.42 27.7771 40.673 29.0227L40.6796 29.0624L40.6673 26.4935L40.4384 27.6027C40.2706 27.1349 40.0791 26.676 39.8648 26.2276C38.6783 24.0787 37.018 24.3884 37.018 24.3884C37.5755 24.5103 38.0905 24.7781 38.5104 25.1644C37.982 24.9389 36.9931 24.99 36.5204 25.3681C35.0525 26.5424 35.9822 28.8178 37.6458 28.5731ZM40.753 31.509C40.753 31.509 40.4105 33.613 39.0404 34.3959C38.7318 34.5091 38.4026 34.555 38.0748 34.5305C38.0748 34.5305 40.7538 35.7415 40.6437 40.5857C40.6437 40.5857 41.3615 36.3527 39.2433 34.9502C39.8862 34.8025 40.8624 33.9437 40.753 31.509ZM67.7471 25.9797C69.1172 25.0745 69.9 27.203 68.8236 27.3498C68.8236 27.3498 69.2639 26.518 68.53 26.469C67.796 26.4201 67.062 28.3284 68.7257 28.5731C70.3893 28.8178 71.3191 26.5424 69.8511 25.3681C69.3785 24.99 68.3895 24.9389 67.8611 25.1644C68.2811 24.7781 68.7961 24.5103 69.3535 24.3884C69.3535 24.3884 67.6932 24.0787 66.5067 26.2276C66.2924 26.676 66.101 27.135 65.9331 27.6027L65.7042 26.4935L65.6919 29.0624L65.6985 29.0227C65.9516 27.7771 66.6883 26.6828 67.7471 25.9797ZM70.6585 32.7078C70.6585 32.7078 71.99 30.9537 70.0224 29.8208C68.4076 28.8911 67.1599 30.3102 67.4535 31.5334C67.4788 31.6525 67.5275 31.7654 67.5966 31.8656C67.6658 31.9658 67.754 32.0513 67.8564 32.1172C67.9587 32.1832 68.073 32.2282 68.1928 32.2498C68.3127 32.2714 68.4355 32.269 68.5544 32.2429C68.9459 30.8484 70.6961 32.9118 68.7869 32.9892C66.671 33.0749 66.0716 31.055 66.2547 29.3927C66.3662 28.6158 66.655 27.8749 67.0987 27.2275C65.0436 29.0624 65.4718 32.7078 67.5269 33.7353C69.582 34.7629 71.7839 33.1482 71.7839 33.1482C71.6371 32.561 70.6585 32.7078 70.6585 32.7078V32.7078ZM67.3312 34.3959C65.9611 33.613 65.6185 31.509 65.6185 31.509C65.5091 33.9437 66.4853 34.8025 67.1283 34.9502C65.0101 36.3527 65.7279 40.5857 65.7279 40.5857C65.6178 35.7415 68.2968 34.5305 68.2968 34.5305C67.969 34.555 67.6397 34.5091 67.3312 34.3959V34.3959Z" fill="url(#paint21_linear_6_1213)"/>
</g>
</g>
<mask id="mask1_6_1213" style="mask-type:alpha" maskUnits="userSpaceOnUse" x="0" y="50" width="107" height="35">
<rect y="50.3521" width="106.506" height="34.0785" fill="#D9D9D9"/>
</mask>
<g mask="url(#mask1_6_1213)">
<g clip-path="url(#clip1_6_1213)">
<path d="M106.595 55.4067H0.022583V55.8145H106.595V55.4067Z" fill="url(#paint22_linear_6_1213)"/>
<path d="M106.595 75.2535H0.022583V75.6614H106.595V75.2535Z" fill="url(#paint23_linear_6_1213)"/>
<path d="M40.3844 80.1151H40.8469L42.3716 84.1117H41.8861L41.4866 83.0155H39.722L39.3281 84.1117H38.8597L40.3844 80.1151ZM39.8706 82.6045H41.338L40.6015 80.5831L39.8706 82.6045Z" fill="url(#paint24_linear_6_1213)"/>
<path d="M43.5307 80.5317H42.2059V80.1151H45.3068V80.5317H43.982V84.1117H43.5307V80.5317Z" fill="url(#paint25_linear_6_1213)"/>
<path d="M45.4721 83.1415C45.4721 82.6691 45.7767 82.2711 46.3858 81.9477C46.2265 81.7902 46.0883 81.6127 45.9748 81.4195C45.9016 81.2775 45.8645 81.1197 45.8664 80.9599C45.863 80.8359 45.888 80.7128 45.9394 80.5999C45.9908 80.4871 46.0674 80.3874 46.1632 80.3087C46.3794 80.1351 46.6513 80.0459 46.9283 80.0577C47.1913 80.0453 47.45 80.1285 47.6564 80.2919C47.7465 80.3668 47.8183 80.4613 47.8663 80.5682C47.9142 80.675 47.9372 80.7915 47.9333 80.9085C47.9333 81.2969 47.625 81.6604 47.0084 81.9991L47.8878 82.9073C48.0093 82.7093 48.0968 82.5589 48.1503 82.456L48.4017 81.9704H48.8243L48.51 82.5587C48.4112 82.7415 48.2932 82.9395 48.1559 83.1526L49.1039 84.1117H48.5387L47.9161 83.478C47.7746 83.6866 47.5851 83.8582 47.3635 83.9785C47.1419 84.0987 46.8948 84.1641 46.6427 84.1691C46.3343 84.1845 46.0311 84.0848 45.7919 83.8895C45.6863 83.7965 45.6028 83.6811 45.5474 83.5516C45.4921 83.4222 45.4664 83.2821 45.4721 83.1415ZM46.6885 83.8034C46.8704 83.806 47.0494 83.7575 47.2051 83.6637C47.381 83.5498 47.5316 83.4011 47.6477 83.2267L46.6256 82.1879C46.419 82.3018 46.2351 82.4528 46.0831 82.6332C45.9735 82.7691 45.9131 82.9382 45.9119 83.1128C45.9079 83.207 45.9249 83.3009 45.9614 83.3878C45.998 83.4747 46.0533 83.5524 46.1234 83.6155C46.2815 83.7468 46.4832 83.8139 46.6885 83.8034H46.6885ZM46.2831 80.9484C46.2816 81.0271 46.2941 81.1054 46.3201 81.1798C46.3535 81.2611 46.3988 81.3371 46.4543 81.4052C46.5193 81.4893 46.622 81.6054 46.7626 81.7538C46.9747 81.6435 47.1683 81.5009 47.3366 81.3311C47.4464 81.2216 47.5107 81.0746 47.5166 80.9197C47.5184 80.8505 47.5048 80.7818 47.4766 80.7186C47.4484 80.6554 47.4064 80.5993 47.3537 80.5544C47.2346 80.4555 47.0829 80.4047 46.9283 80.4118C46.7595 80.4035 46.5934 80.4563 46.4603 80.5604C46.4029 80.6071 46.3571 80.6664 46.3263 80.7337C46.2956 80.8009 46.2808 80.8744 46.2831 80.9483V80.9484Z" fill="url(#paint26_linear_6_1213)"/>
<path d="M50.2176 80.5317H48.8928V80.1151H51.9937V80.5317H50.6689V84.1117H50.2176V80.5317Z" fill="url(#paint27_linear_6_1213)"/>
<path d="M53.923 80.1151H54.3743V84.1117H53.923V80.1151Z" fill="url(#paint28_linear_6_1213)"/>
<path d="M56.1444 84.1691C55.7736 84.1787 55.4075 84.0837 55.0881 83.8951L55.2024 83.5465C55.4859 83.6972 55.8007 83.7795 56.1217 83.7867C56.5821 83.7867 56.8124 83.6306 56.8124 83.3183C56.8148 83.2614 56.8037 83.2048 56.7798 83.1531C56.756 83.1015 56.7202 83.0562 56.6754 83.0211C56.5216 82.9207 56.3517 82.8474 56.1731 82.8045L56.013 82.7587C55.7747 82.7072 55.553 82.5973 55.3677 82.4388C55.3014 82.369 55.25 82.2864 55.2166 82.1961C55.1833 82.1058 55.1687 82.0096 55.1737 81.9134C55.1704 81.7564 55.2174 81.6024 55.308 81.4741C55.4003 81.3457 55.5269 81.2458 55.6732 81.1857C55.8405 81.1163 56.0203 81.0821 56.2014 81.0854C56.5347 81.0811 56.8633 81.1637 57.1549 81.3252L57.041 81.6737C56.7802 81.5426 56.4932 81.4724 56.2014 81.4682C56.0484 81.4598 55.8966 81.4998 55.7676 81.5825C55.7166 81.617 55.6751 81.6639 55.6471 81.7188C55.6191 81.7737 55.6055 81.8347 55.6075 81.8963C55.6047 81.9502 55.6144 82.0039 55.6358 82.0535C55.6571 82.103 55.6895 82.1469 55.7306 82.1819C55.8624 82.2738 56.0106 82.3397 56.1671 82.3759L56.3272 82.4217C56.5863 82.4771 56.8287 82.5926 57.035 82.7587C57.1062 82.8281 57.1619 82.9118 57.1983 83.0042C57.2348 83.0967 57.2512 83.1959 57.2465 83.2952C57.251 83.417 57.2267 83.5382 57.1756 83.6489C57.1244 83.7595 57.0479 83.8566 56.9522 83.9321C56.7184 84.102 56.4329 84.1857 56.1444 84.1691Z" fill="url(#paint29_linear_6_1213)"/>
<path d="M59.5304 81.5251C59.4418 81.5098 59.3519 81.5022 59.262 81.5024C58.9317 81.5124 58.6159 81.6399 58.3714 81.862V84.1117H57.9432V81.1483H58.3084L58.3542 81.5083C58.617 81.2422 58.974 81.0902 59.348 81.0853C59.4288 81.0859 59.5092 81.0955 59.5878 81.114L59.5304 81.5251Z" fill="url(#paint30_linear_6_1213)"/>
<path d="M60.8723 84.169C60.624 84.1833 60.3797 84.1015 60.19 83.9404C60.1055 83.8588 60.0395 83.76 59.9966 83.6507C59.9538 83.5413 59.9349 83.424 59.9415 83.3067C59.9338 83.1811 59.9538 83.0553 60.0002 82.9384C60.0466 82.8214 60.1182 82.7161 60.21 82.63C60.4253 82.4601 60.6958 82.3758 60.9695 82.3934H61.8773V82.2962C61.8957 82.0757 61.8304 81.8565 61.6945 81.682C61.6192 81.6115 61.5301 81.5576 61.4327 81.5237C61.3354 81.4898 61.232 81.4767 61.1293 81.4852C60.8101 81.4891 60.4974 81.5756 60.2215 81.7362L60.0785 81.3936C60.2524 81.2942 60.4374 81.2157 60.6298 81.1598C60.8148 81.109 61.0059 81.084 61.1978 81.0853C61.3489 81.0743 61.5007 81.095 61.6433 81.1462C61.7859 81.1974 61.9162 81.2779 62.0259 81.3825C62.2288 81.6287 62.329 81.9437 62.3055 82.262V84.1117H61.9402L61.8944 83.7807C61.7537 83.9049 61.591 84.0017 61.4148 84.0663C61.2417 84.133 61.0579 84.1678 60.8723 84.169ZM60.9751 83.7807C61.1372 83.7787 61.2974 83.7448 61.4463 83.6807C61.6037 83.6169 61.7494 83.5272 61.8773 83.4154V82.7471H61.0552C60.6019 82.7471 60.3754 82.9298 60.3757 83.2952C60.3722 83.3628 60.3846 83.4302 60.4119 83.4922C60.4391 83.5542 60.4804 83.6089 60.5326 83.6521C60.6606 83.7452 60.8171 83.7907 60.9751 83.7807Z" fill="url(#paint31_linear_6_1213)"/>
<path d="M63.4303 82.787C63.4461 83.0629 63.5631 83.3232 63.7589 83.5183C63.9563 83.7007 64.218 83.7972 64.4866 83.7867C64.6443 83.7891 64.8016 83.7717 64.955 83.735C65.1053 83.6936 65.2493 83.6323 65.3832 83.5525L65.5262 83.8835C65.3706 83.979 65.2023 84.0521 65.0263 84.1006C64.8388 84.1484 64.6459 84.1714 64.4524 84.1691C64.1801 84.1756 63.9113 84.1064 63.676 83.9692C63.4581 83.8395 63.2818 83.6504 63.1678 83.4239C63.0497 83.1732 62.9891 82.8993 62.9906 82.6221C62.992 82.345 63.0554 82.0717 63.1762 81.8223C63.2884 81.5991 63.4591 81.4105 63.6701 81.2766C63.8738 81.1497 64.1095 81.0834 64.3496 81.0854C64.5842 81.0799 64.8154 81.1424 65.0152 81.2655C65.2041 81.386 65.3553 81.5571 65.4517 81.7594C65.557 81.9804 65.6098 82.2228 65.6058 82.4676C65.6058 82.5743 65.6021 82.6808 65.5947 82.787L63.4303 82.787ZM64.3555 81.4682C64.2409 81.4657 64.1271 81.4872 64.0214 81.5315C63.9156 81.5757 63.8204 81.6417 63.7417 81.7251C63.5671 81.9157 63.4598 82.1583 63.4362 82.4157H65.1721V82.3875C65.1742 82.2225 65.1381 82.0593 65.0665 81.9107C65.0032 81.7763 64.9033 81.6626 64.7782 81.5825C64.6511 81.5047 64.5044 81.4651 64.3555 81.4682Z" fill="url(#paint32_linear_6_1213)"/>
<path d="M66.3256 79.8291H66.7537V84.1117H66.3256V79.8291Z" fill="url(#paint33_linear_6_1213)"/>
<path d="M1.97066 60.1668H5.05359V66.8333C5.05359 68.9624 4.14611 70.027 2.33117 70.027C1.6424 70.0424 0.961886 69.8747 0.359131 69.5411L0.637134 68.6245C1.12267 68.8754 1.66037 69.0085 2.20685 69.0133C2.45557 69.0338 2.70558 68.9946 2.93613 68.8991C3.16668 68.8036 3.37112 68.6544 3.53246 68.4641C3.85583 67.9486 4.00444 67.3427 3.95625 66.7361V61.098H1.97066V60.1668Z" fill="url(#paint34_linear_6_1213)"/>
<path d="M9.17845 70.027C8.57424 70.0615 7.97988 69.8624 7.51832 69.471C7.31294 69.2725 7.15273 69.032 7.04859 68.766C6.94446 68.5 6.89884 68.2147 6.91485 67.9295C6.89583 67.6242 6.94441 67.3184 7.05712 67.034C7.16983 66.7496 7.3439 66.4935 7.56691 66.2841C8.09048 65.8703 8.74868 65.665 9.41464 65.7077H11.6217V65.4715C11.6662 64.9358 11.5076 64.403 11.1776 63.9787C10.9947 63.8074 10.7779 63.6763 10.5412 63.594C10.3045 63.5116 10.0531 63.4799 9.80339 63.5007C9.027 63.5102 8.26628 63.7204 7.59517 64.1109L7.24825 63.278C7.67063 63.0361 8.12014 62.8449 8.58742 62.7085C9.03778 62.5857 9.50276 62.5249 9.96953 62.5277C10.337 62.5008 10.7061 62.5512 11.0529 62.6755C11.3997 62.7999 11.7167 62.9955 11.9834 63.2498C12.4771 63.8487 12.7208 64.615 12.6637 65.3891V69.0551H13.622V69.888H11.7754L11.6635 69.0823C11.3213 69.3842 10.9258 69.6199 10.4973 69.7773C10.0763 69.9392 9.62951 70.0238 9.17845 70.027ZM9.4282 69.0822C9.82244 69.0775 10.2119 68.9949 10.5741 68.8393C10.957 68.6843 11.3111 68.4662 11.6217 68.194V66.5689H9.62258C8.52074 66.5689 7.97 67.0134 7.97037 67.9024C7.96211 68.0668 7.99234 68.2309 8.05865 68.3816C8.12496 68.5323 8.22552 68.6654 8.35234 68.7703C8.66384 68.9961 9.04424 69.1064 9.4282 69.0822Z" fill="url(#paint35_linear_6_1213)"/>
<path d="M17.1897 69.888L14.5927 63.5142H13.8288V62.6813H16.6348V63.5142H15.7455L17.7039 68.7906L19.6613 63.5142H18.773V62.6813H21.5508V63.5142H20.7722L18.1899 69.888H17.1897Z" fill="url(#paint36_linear_6_1213)"/>
<path d="M24.6756 70.027C24.0714 70.0615 23.477 69.8624 23.0155 69.471C22.8101 69.2725 22.6499 69.032 22.5457 68.766C22.4416 68.5 22.396 68.2147 22.412 67.9295C22.393 67.6242 22.4415 67.3184 22.5543 67.034C22.667 66.7496 22.841 66.4935 23.0641 66.2841C23.5876 65.8703 24.2458 65.665 24.9118 65.7077H27.1189V65.4715C27.1633 64.9358 27.0048 64.403 26.6747 63.9787C26.4918 63.8074 26.275 63.6763 26.0383 63.594C25.8016 63.5116 25.5503 63.4799 25.3005 63.5007C24.5241 63.5102 23.7634 63.7204 23.0923 64.1109L22.7454 63.278C23.1678 63.0361 23.6173 62.8449 24.0846 62.7085C24.5349 62.5857 24.9999 62.5249 25.4667 62.5277C25.8342 62.5008 26.2032 62.5512 26.5501 62.6755C26.8969 62.7999 27.2139 62.9955 27.4806 63.2498C27.9743 63.8487 28.218 64.615 28.1609 65.3891V69.0551H29.1191V69.888H27.2725L27.1607 69.0823C26.8184 69.3842 26.4229 69.6199 25.9944 69.7773C25.5734 69.9392 25.1266 70.0238 24.6756 70.027ZM24.9253 69.0822C25.3196 69.0775 25.709 68.9949 26.0713 68.8393C26.4541 68.6843 26.8082 68.4662 27.1189 68.194V66.5689H25.1197C24.0179 66.5689 23.4671 67.0134 23.4675 67.9024C23.4592 68.0668 23.4895 68.2309 23.5558 68.3816C23.6221 68.5323 23.7227 68.6654 23.8495 68.7703C24.161 68.9961 24.5414 69.1064 24.9253 69.0822Z" fill="url(#paint37_linear_6_1213)"/>
<path d="M30.3408 66.9305H31.2991V68.6381C31.9738 68.8903 32.69 69.0129 33.4101 68.9997C34.0184 69.0338 34.6217 68.8731 35.1324 68.5409C35.3344 68.3967 35.4973 68.2044 35.6064 67.9815C35.7155 67.7585 35.7674 67.5119 35.7574 67.2639C35.7666 67.0612 35.7288 66.859 35.6468 66.6733C35.5649 66.4877 35.441 66.3235 35.285 66.1937C34.7576 65.8389 34.1691 65.5848 33.5491 65.4444L32.9931 65.2919C32.2859 65.1345 31.6324 64.7943 31.098 64.3053C30.6997 63.8608 30.4926 63.2774 30.5216 62.6813C30.5061 62.3138 30.5758 61.9476 30.7252 61.6114C30.8746 61.2752 31.0996 60.9781 31.3827 60.7432C32.0512 60.2366 32.8777 59.9835 33.7153 60.029C34.6651 60.0055 35.6086 60.1903 36.4795 60.5703V62.9311H35.5212V61.306C34.9516 61.1443 34.3627 61.0603 33.7706 61.0563C33.2166 61.0222 32.6664 61.1681 32.2021 61.4721C32.0208 61.6062 31.8752 61.7828 31.7783 61.9864C31.6813 62.19 31.6359 62.4143 31.646 62.6395C31.6384 62.827 31.6724 63.0139 31.7457 63.1867C31.819 63.3594 31.9297 63.5138 32.0698 63.6386C32.5149 63.9667 33.0232 64.1988 33.5627 64.32L34.1187 64.4726C34.8999 64.6388 35.6277 64.9965 36.2365 65.5134C36.4542 65.7367 36.6237 66.0022 36.7347 66.2936C36.8457 66.5849 36.8957 66.896 36.8818 67.2074C36.8987 67.5993 36.824 67.9897 36.6638 68.3477C36.5035 68.7057 36.262 69.0214 35.9585 69.2699C35.2422 69.8072 34.3597 70.0752 33.4655 70.027C32.9088 70.0322 32.353 69.9811 31.8065 69.8745C31.2975 69.768 30.8047 69.5951 30.3408 69.3603L30.3408 66.9305Z" fill="url(#paint38_linear_6_1213)"/>
<path d="M43.1448 64.8059V63.6532C42.7868 63.5331 42.4116 63.472 42.034 63.4724C41.552 63.4625 41.0773 63.5903 40.6654 63.8408C40.2749 64.0834 39.9616 64.4323 39.7624 64.8466C39.549 65.2977 39.4422 65.7919 39.4505 66.2909C39.4399 66.8024 39.5568 67.3084 39.7907 67.7634C39.9995 68.1705 40.3197 68.5099 40.714 68.7421C41.1153 68.9724 41.5714 69.0899 42.034 69.0822C42.3631 69.0861 42.6916 69.0512 43.0126 68.9783C43.3215 68.9021 43.6182 68.783 43.8941 68.6246L44.1992 69.4021C43.5324 69.8271 42.7544 70.0446 41.9639 70.027C41.2995 70.0423 40.6438 69.8741 40.0687 69.5411C39.5362 69.2265 39.1049 68.7662 38.8256 68.2143C38.5299 67.617 38.3823 66.9573 38.395 66.2909C38.3808 65.5996 38.5434 64.9161 38.8674 64.3053C39.1598 63.7538 39.6026 63.2965 40.1444 62.9864C40.7 62.6762 41.3276 62.5179 41.9639 62.5276C42.686 62.5152 43.4005 62.6772 44.0467 63V64.8059L43.1448 64.8059Z" fill="url(#paint39_linear_6_1213)"/>
<path d="M45.1858 62.6813H47.0324L47.1431 63.5561C47.7824 62.9095 48.6502 62.5402 49.5593 62.5276C49.7557 62.5291 49.9513 62.5527 50.1424 62.5977L50.0034 63.5979C49.7881 63.5601 49.5699 63.5412 49.3514 63.5414C48.5478 63.5653 47.7794 63.876 47.1849 64.4172V69.0551H48.2823V69.888H45.1858V69.0551H46.143V63.5142H45.1858V62.6813Z" fill="url(#paint40_linear_6_1213)"/>
<path d="M50.8793 69.0551H51.8365V63.5142H50.8793V62.6813H52.8785V69.0551H53.8368V69.888H50.8794L50.8793 69.0551ZM52.2535 59.7927C52.3464 59.788 52.4393 59.8022 52.5265 59.8344C52.6138 59.8667 52.6935 59.9163 52.761 59.9804C52.8809 60.1109 52.9474 60.2817 52.9474 60.459C52.9474 60.6362 52.8809 60.807 52.761 60.9376C52.6198 61.0586 52.44 61.1252 52.2541 61.1252C52.0682 61.1252 51.8884 61.0586 51.7473 60.9376C51.6267 60.8074 51.5597 60.6364 51.5597 60.459C51.5597 60.2815 51.6267 60.1106 51.7473 59.9804C51.8144 59.9162 51.8939 59.8664 51.981 59.8342C52.068 59.8019 52.1608 59.7878 52.2535 59.7928V59.7927Z" fill="url(#paint41_linear_6_1213)"/>
<path d="M54.7533 62.6813H56.5999L56.6971 63.4441C57.0334 63.147 57.4183 62.91 57.8351 62.7435C58.24 62.5954 58.6685 62.5222 59.0997 62.5276C59.6701 62.5158 60.2294 62.686 60.6965 63.0136C61.1631 63.3549 61.5261 63.8188 61.7453 64.3539C61.9984 64.9678 62.1234 65.6269 62.1125 66.2909C62.1275 66.9714 61.9851 67.6463 61.6967 68.2629C61.4466 68.7961 61.0519 69.2483 60.5575 69.5682C60.0628 69.8779 59.4889 70.0373 58.9053 70.027C58.1293 70.0338 57.3727 69.7848 56.7525 69.3184V72.0544H57.8498V72.8873H54.7533V72.0544H55.7105V63.5142H54.7533L54.7533 62.6813ZM58.8635 63.4588C58.4968 63.456 58.1333 63.5267 57.7944 63.6668C57.4149 63.8343 57.0635 64.0592 56.7524 64.3335V68.333C57.0225 68.578 57.3355 68.7711 57.6757 68.9025C58.0104 69.0312 58.3659 69.0971 58.7245 69.0969C59.0471 69.1078 59.3679 69.0439 59.6618 68.9102C59.9557 68.7765 60.2147 68.5766 60.4185 68.3262C60.8665 67.7452 61.0928 67.0237 61.057 66.2909C61.0908 65.56 60.8783 64.8389 60.4535 64.2431C60.2715 63.9937 60.0318 63.7921 59.7549 63.6555C59.478 63.5189 59.1722 63.4514 58.8635 63.4588H58.8635Z" fill="url(#paint42_linear_6_1213)"/>
<path d="M66.4872 70.027C66.1765 70.0527 65.864 70.008 65.573 69.896C65.282 69.7841 65.0201 69.6079 64.8067 69.3805C64.4003 68.7995 64.2088 68.095 64.2654 67.3882V63.5831H62.9737V62.6813H64.2925L64.4733 60.6256H65.3062V62.6813H67.8478V63.5831H65.3062V67.2774C65.3062 68.49 65.7552 69.0965 66.6533 69.0969C67.092 69.098 67.5233 68.983 67.9032 68.7635L68.1529 69.5682C67.9092 69.7169 67.6449 69.8293 67.3686 69.9016C67.0819 69.9831 66.7853 70.0253 66.4872 70.027Z" fill="url(#paint43_linear_6_1213)"/>
<path d="M80.2903 62.9446H79.332V61.3896C78.701 61.1571 78.0323 61.0441 77.3599 61.0562C76.6746 61.042 75.999 61.2197 75.4094 61.5693C74.8535 61.9071 74.4055 62.3963 74.1176 62.9796C73.8078 63.617 73.6533 64.3188 73.6667 65.0274C73.6499 65.7574 73.8068 66.4809 74.1244 67.1384C74.4059 67.7143 74.8504 68.1949 75.4026 68.5205C75.9775 68.8471 76.6299 69.0127 77.291 68.9997C77.6816 69.0045 78.072 68.9743 78.4572 68.9093C78.7691 68.8532 79.0726 68.7575 79.3602 68.6245V65.6659H76.9158V64.6669H81.4712V65.6659H80.4575V69.2212C79.4747 69.7848 78.3544 70.0638 77.222 70.027C76.3492 70.0482 75.4878 69.8242 74.7358 69.3806C74.0361 68.9551 73.4723 68.3388 73.1107 67.604C72.7207 66.802 72.5259 65.9191 72.5423 65.0274C72.5252 64.1152 72.7428 63.214 73.174 62.41C73.5663 61.6756 74.1552 61.0648 74.8748 60.646C75.6015 60.231 76.426 60.0179 77.2627 60.0289C78.3067 59.9988 79.3433 60.2124 80.2903 60.6527L80.2903 62.9446Z" fill="url(#paint44_linear_6_1213)"/>
<path d="M82.1652 62.6813H84.1643V67.0966C84.1643 68.4019 84.729 69.0547 85.8583 69.0551C86.6558 69.0223 87.4169 68.7131 88.0112 68.1804V63.5142H87.0529V62.6813H89.0532V69.0551H90.0104V69.888H88.1638L88.053 69.0551C87.6873 69.3633 87.2749 69.6117 86.8314 69.7908C86.4143 69.9497 85.9713 70.0298 85.525 70.027C85.1907 70.0495 84.8556 69.9955 84.5452 69.8692C84.2349 69.7429 83.9574 69.5476 83.7338 69.298C83.2877 68.6858 83.0716 67.936 83.1235 67.1802V63.5142H82.1652L82.1652 62.6813Z" fill="url(#paint45_linear_6_1213)"/>
<path d="M90.9279 69.0551H91.8851V63.5142H90.9279V62.6813H92.9271V69.0551H93.8854V69.888H90.9279V69.0551ZM92.3021 59.7927C92.395 59.788 92.4879 59.8022 92.5751 59.8344C92.6623 59.8667 92.7421 59.9163 92.8095 59.9804C92.9295 60.1109 92.996 60.2817 92.996 60.459C92.996 60.6362 92.9295 60.807 92.8095 60.9376C92.6684 61.0586 92.4886 61.1252 92.3027 61.1252C92.1168 61.1252 91.937 61.0586 91.7958 60.9376C91.6753 60.8074 91.6083 60.6364 91.6083 60.459C91.6083 60.2815 91.6753 60.1106 91.7958 59.9804C91.8629 59.9162 91.9425 59.8664 92.0296 59.8342C92.1166 59.8019 92.2094 59.7878 92.3021 59.7928V59.7927Z" fill="url(#paint46_linear_6_1213)"/>
<path d="M94.8019 59.4729H96.8011V69.0551H97.7594V69.888H94.8019V69.0551H95.7591V60.3058H94.8019V59.4729Z" fill="url(#paint47_linear_6_1213)"/>
<path d="M101.913 70.027C101.342 70.0395 100.782 69.8693 100.315 69.541C99.8504 69.2031 99.488 68.7441 99.267 68.2143C99.0119 67.6057 98.8865 66.9506 98.8986 66.2908C98.8847 65.6059 99.0274 64.9268 99.3156 64.3052C99.5634 63.765 99.9612 63.3073 100.461 62.9864C100.955 62.6788 101.526 62.5195 102.107 62.5276C102.884 62.5272 103.639 62.7808 104.259 63.2497V60.3058H103.3V59.4729H105.301V69.0551H106.259V69.888H104.411L104.314 69.1376C103.979 69.4296 103.596 69.6624 103.183 69.8258C102.774 69.9664 102.344 70.0345 101.913 70.027ZM102.149 69.0969C102.517 69.0987 102.882 69.03 103.225 68.8946C103.602 68.7366 103.951 68.5187 104.259 68.2493V64.2498C103.979 64.0044 103.66 63.8073 103.315 63.6667C102.989 63.5313 102.64 63.4606 102.287 63.4588C101.963 63.4461 101.64 63.5092 101.345 63.643C101.05 63.7768 100.79 63.9776 100.586 64.2295C100.139 64.8209 99.9156 65.5508 99.9541 66.2908C99.9184 67.0183 100.132 67.7362 100.559 68.3261C100.743 68.5723 100.983 68.7708 101.26 68.9049C101.537 69.039 101.841 69.1049 102.149 69.0969V69.0969Z" fill="url(#paint48_linear_6_1213)"/>
</g>
</g>
<defs>
<linearGradient id="paint0_linear_6_1213" x1="53.1858" y1="-0.516781" x2="53.1858" y2="64.6439" gradientUnits="userSpaceOnUse">
<stop stop-color="#D60B51"/>
<stop offset="0.25505" stop-color="#E84E1B"/>
<stop offset="0.26855" stop-color="#EA591B"/>
<stop offset="0.31547" stop-color="#F27B1B"/>
<stop offset="0.36337" stop-color="#F8961C"/>
<stop offset="0.41207" stop-color="#FCA91C"/>
<stop offset="0.46208" stop-color="#FEB41C"/>
<stop offset="0.51533" stop-color="#FFB81C"/>
<stop offset="0.75707" stop-color="#E86031"/>
<stop offset="1" stop-color="#E2312D"/>
</linearGradient>
<linearGradient id="paint1_linear_6_1213" x1="51.2128" y1="-0.516801" x2="51.2128" y2="64.6439" gradientUnits="userSpaceOnUse">
<stop stop-color="#D60B51"/>
<stop offset="0.25505" stop-color="#E84E1B"/>
<stop offset="0.26855" stop-color="#EA591B"/>
<stop offset="0.31547" stop-color="#F27B1B"/>
<stop offset="0.36337" stop-color="#F8961C"/>
<stop offset="0.41207" stop-color="#FCA91C"/>
<stop offset="0.46208" stop-color="#FEB41C"/>
<stop offset="0.51533" stop-color="#FFB81C"/>
<stop offset="0.75707" stop-color="#E86031"/>
<stop offset="1" stop-color="#E2312D"/>
</linearGradient>
<linearGradient id="paint2_linear_6_1213" x1="55.9927" y1="-0.516826" x2="55.9927" y2="64.6439" gradientUnits="userSpaceOnUse">
<stop stop-color="#D60B51"/>
<stop offset="0.25505" stop-color="#E84E1B"/>
<stop offset="0.26855" stop-color="#EA591B"/>
<stop offset="0.31547" stop-color="#F27B1B"/>
<stop offset="0.36337" stop-color="#F8961C"/>
<stop offset="0.41207" stop-color="#FCA91C"/>
<stop offset="0.46208" stop-color="#FEB41C"/>
<stop offset="0.51533" stop-color="#FFB81C"/>
<stop offset="0.75707" stop-color="#E86031"/>
<stop offset="1" stop-color="#E2312D"/>
</linearGradient>
<linearGradient id="paint3_linear_6_1213" x1="47.6675" y1="-0.516765" x2="47.6675" y2="64.6439" gradientUnits="userSpaceOnUse">
<stop stop-color="#D60B51"/>
<stop offset="0.25505" stop-color="#E84E1B"/>
<stop offset="0.26855" stop-color="#EA591B"/>
<stop offset="0.31547" stop-color="#F27B1B"/>
<stop offset="0.36337" stop-color="#F8961C"/>
<stop offset="0.41207" stop-color="#FCA91C"/>
<stop offset="0.46208" stop-color="#FEB41C"/>
<stop offset="0.51533" stop-color="#FFB81C"/>
<stop offset="0.75707" stop-color="#E86031"/>
<stop offset="1" stop-color="#E2312D"/>
</linearGradient>
<linearGradient id="paint4_linear_6_1213" x1="58.633" y1="-0.516765" x2="58.633" y2="64.6439" gradientUnits="userSpaceOnUse">
<stop stop-color="#D60B51"/>
<stop offset="0.25505" stop-color="#E84E1B"/>
<stop offset="0.26855" stop-color="#EA591B"/>
<stop offset="0.31547" stop-color="#F27B1B"/>
<stop offset="0.36337" stop-color="#F8961C"/>
<stop offset="0.41207" stop-color="#FCA91C"/>
<stop offset="0.46208" stop-color="#FEB41C"/>
<stop offset="0.51533" stop-color="#FFB81C"/>
<stop offset="0.75707" stop-color="#E86031"/>
<stop offset="1" stop-color="#E2312D"/>
</linearGradient>
<linearGradient id="paint5_linear_6_1213" x1="53.204" y1="-0.516799" x2="53.204" y2="64.6439" gradientUnits="userSpaceOnUse">
<stop stop-color="#D60B51"/>
<stop offset="0.25505" stop-color="#E84E1B"/>
<stop offset="0.26855" stop-color="#EA591B"/>
<stop offset="0.31547" stop-color="#F27B1B"/>
<stop offset="0.36337" stop-color="#F8961C"/>
<stop offset="0.41207" stop-color="#FCA91C"/>
<stop offset="0.46208" stop-color="#FEB41C"/>
<stop offset="0.51533" stop-color="#FFB81C"/>
<stop offset="0.75707" stop-color="#E86031"/>
<stop offset="1" stop-color="#E2312D"/>
</linearGradient>
<linearGradient id="paint6_linear_6_1213" x1="53.1858" y1="-0.516809" x2="53.1858" y2="64.6439" gradientUnits="userSpaceOnUse">
<stop stop-color="#D60B51"/>
<stop offset="0.25505" stop-color="#E84E1B"/>
<stop offset="0.26855" stop-color="#EA591B"/>
<stop offset="0.31547" stop-color="#F27B1B"/>
<stop offset="0.36337" stop-color="#F8961C"/>
<stop offset="0.41207" stop-color="#FCA91C"/>
<stop offset="0.46208" stop-color="#FEB41C"/>
<stop offset="0.51533" stop-color="#FFB81C"/>
<stop offset="0.75707" stop-color="#E86031"/>
<stop offset="1" stop-color="#E2312D"/>
</linearGradient>
<linearGradient id="paint7_linear_6_1213" x1="67.0017" y1="-0.516833" x2="67.0017" y2="64.6441" gradientUnits="userSpaceOnUse">
<stop stop-color="#D60B51"/>
<stop offset="0.25505" stop-color="#E84E1B"/>
<stop offset="0.26855" stop-color="#EA591B"/>
<stop offset="0.31547" stop-color="#F27B1B"/>
<stop offset="0.36337" stop-color="#F8961C"/>
<stop offset="0.41207" stop-color="#FCA91C"/>
<stop offset="0.46208" stop-color="#FEB41C"/>
<stop offset="0.51533" stop-color="#FFB81C"/>
<stop offset="0.75707" stop-color="#E86031"/>
<stop offset="1" stop-color="#E2312D"/>
</linearGradient>
<linearGradient id="paint8_linear_6_1213" x1="66.5972" y1="-0.516821" x2="66.5972" y2="64.6439" gradientUnits="userSpaceOnUse">
<stop stop-color="#D60B51"/>
<stop offset="0.25505" stop-color="#E84E1B"/>
<stop offset="0.26855" stop-color="#EA591B"/>
<stop offset="0.31547" stop-color="#F27B1B"/>
<stop offset="0.36337" stop-color="#F8961C"/>
<stop offset="0.41207" stop-color="#FCA91C"/>
<stop offset="0.46208" stop-color="#FEB41C"/>
<stop offset="0.51533" stop-color="#FFB81C"/>
<stop offset="0.75707" stop-color="#E86031"/>
<stop offset="1" stop-color="#E2312D"/>
</linearGradient>
<linearGradient id="paint9_linear_6_1213" x1="39.7744" y1="-0.516867" x2="39.7744" y2="64.6439" gradientUnits="userSpaceOnUse">
<stop stop-color="#D60B51"/>
<stop offset="0.25505" stop-color="#E84E1B"/>
<stop offset="0.26855" stop-color="#EA591B"/>
<stop offset="0.31547" stop-color="#F27B1B"/>
<stop offset="0.36337" stop-color="#F8961C"/>
<stop offset="0.41207" stop-color="#FCA91C"/>
<stop offset="0.46208" stop-color="#FEB41C"/>
<stop offset="0.51533" stop-color="#FFB81C"/>
<stop offset="0.75707" stop-color="#E86031"/>
<stop offset="1" stop-color="#E2312D"/>
</linearGradient>
<linearGradient id="paint10_linear_6_1213" x1="39.3699" y1="-0.516787" x2="39.3699" y2="64.644" gradientUnits="userSpaceOnUse">
<stop stop-color="#D60B51"/>
<stop offset="0.25505" stop-color="#E84E1B"/>
<stop offset="0.26855" stop-color="#EA591B"/>
<stop offset="0.31547" stop-color="#F27B1B"/>
<stop offset="0.36337" stop-color="#F8961C"/>
<stop offset="0.41207" stop-color="#FCA91C"/>
<stop offset="0.46208" stop-color="#FEB41C"/>
<stop offset="0.51533" stop-color="#FFB81C"/>
<stop offset="0.75707" stop-color="#E86031"/>
<stop offset="1" stop-color="#E2312D"/>
</linearGradient>
<linearGradient id="paint11_linear_6_1213" x1="68.215" y1="-0.516845" x2="68.215" y2="64.6439" gradientUnits="userSpaceOnUse">
<stop stop-color="#D60B51"/>
<stop offset="0.25505" stop-color="#E84E1B"/>
<stop offset="0.26855" stop-color="#EA591B"/>
<stop offset="0.31547" stop-color="#F27B1B"/>
<stop offset="0.36337" stop-color="#F8961C"/>
<stop offset="0.41207" stop-color="#FCA91C"/>
<stop offset="0.46208" stop-color="#FEB41C"/>
<stop offset="0.51533" stop-color="#FFB81C"/>
<stop offset="0.75707" stop-color="#E86031"/>
<stop offset="1" stop-color="#E2312D"/>
</linearGradient>
<linearGradient id="paint12_linear_6_1213" x1="67.8105" y1="-0.516831" x2="67.8105" y2="64.6439" gradientUnits="userSpaceOnUse">
<stop stop-color="#D60B51"/>
<stop offset="0.25505" stop-color="#E84E1B"/>
<stop offset="0.26855" stop-color="#EA591B"/>
<stop offset="0.31547" stop-color="#F27B1B"/>
<stop offset="0.36337" stop-color="#F8961C"/>
<stop offset="0.41207" stop-color="#FCA91C"/>
<stop offset="0.46208" stop-color="#FEB41C"/>
<stop offset="0.51533" stop-color="#FFB81C"/>
<stop offset="0.75707" stop-color="#E86031"/>
<stop offset="1" stop-color="#E2312D"/>
</linearGradient>
<linearGradient id="paint13_linear_6_1213" x1="67.4061" y1="-0.516767" x2="67.4061" y2="64.6439" gradientUnits="userSpaceOnUse">
<stop stop-color="#D60B51"/>
<stop offset="0.25505" stop-color="#E84E1B"/>
<stop offset="0.26855" stop-color="#EA591B"/>
<stop offset="0.31547" stop-color="#F27B1B"/>
<stop offset="0.36337" stop-color="#F8961C"/>
<stop offset="0.41207" stop-color="#FCA91C"/>
<stop offset="0.46208" stop-color="#FEB41C"/>
<stop offset="0.51533" stop-color="#FFB81C"/>
<stop offset="0.75707" stop-color="#E86031"/>
<stop offset="1" stop-color="#E2312D"/>
</linearGradient>
<linearGradient id="paint14_linear_6_1213" x1="38.9655" y1="-0.516753" x2="38.9655" y2="64.6439" gradientUnits="userSpaceOnUse">
<stop stop-color="#D60B51"/>
<stop offset="0.25505" stop-color="#E84E1B"/>
<stop offset="0.26855" stop-color="#EA591B"/>
<stop offset="0.31547" stop-color="#F27B1B"/>
<stop offset="0.36337" stop-color="#F8961C"/>
<stop offset="0.41207" stop-color="#FCA91C"/>
<stop offset="0.46208" stop-color="#FEB41C"/>
<stop offset="0.51533" stop-color="#FFB81C"/>
<stop offset="0.75707" stop-color="#E86031"/>
<stop offset="1" stop-color="#E2312D"/>
</linearGradient>
<linearGradient id="paint15_linear_6_1213" x1="69.1091" y1="-0.516848" x2="69.1091" y2="64.6439" gradientUnits="userSpaceOnUse">
<stop stop-color="#D60B51"/>
<stop offset="0.25505" stop-color="#E84E1B"/>
<stop offset="0.26855" stop-color="#EA591B"/>
<stop offset="0.31547" stop-color="#F27B1B"/>
<stop offset="0.36337" stop-color="#F8961C"/>
<stop offset="0.41207" stop-color="#FCA91C"/>
<stop offset="0.46208" stop-color="#FEB41C"/>
<stop offset="0.51533" stop-color="#FFB81C"/>
<stop offset="0.75707" stop-color="#E86031"/>
<stop offset="1" stop-color="#E2312D"/>
</linearGradient>
<linearGradient id="paint16_linear_6_1213" x1="40.5594" y1="-0.516821" x2="40.5594" y2="64.6439" gradientUnits="userSpaceOnUse">
<stop stop-color="#D60B51"/>
<stop offset="0.25505" stop-color="#E84E1B"/>
<stop offset="0.26855" stop-color="#EA591B"/>
<stop offset="0.31547" stop-color="#F27B1B"/>
<stop offset="0.36337" stop-color="#F8961C"/>
<stop offset="0.41207" stop-color="#FCA91C"/>
<stop offset="0.46208" stop-color="#FEB41C"/>
<stop offset="0.51533" stop-color="#FFB81C"/>
<stop offset="0.75707" stop-color="#E86031"/>
<stop offset="1" stop-color="#E2312D"/>
</linearGradient>
<linearGradient id="paint17_linear_6_1213" x1="65.8122" y1="-0.516818" x2="65.8122" y2="64.6439" gradientUnits="userSpaceOnUse">
<stop stop-color="#D60B51"/>
<stop offset="0.25505" stop-color="#E84E1B"/>
<stop offset="0.26855" stop-color="#EA591B"/>
<stop offset="0.31547" stop-color="#F27B1B"/>
<stop offset="0.36337" stop-color="#F8961C"/>
<stop offset="0.41207" stop-color="#FCA91C"/>
<stop offset="0.46208" stop-color="#FEB41C"/>
<stop offset="0.51533" stop-color="#FFB81C"/>
<stop offset="0.75707" stop-color="#E86031"/>
<stop offset="1" stop-color="#E2312D"/>
</linearGradient>
<linearGradient id="paint18_linear_6_1213" x1="38.5611" y1="-0.516817" x2="38.5611" y2="64.644" gradientUnits="userSpaceOnUse">
<stop stop-color="#D60B51"/>
<stop offset="0.25505" stop-color="#E84E1B"/>
<stop offset="0.26855" stop-color="#EA591B"/>
<stop offset="0.31547" stop-color="#F27B1B"/>
<stop offset="0.36337" stop-color="#F8961C"/>
<stop offset="0.41207" stop-color="#FCA91C"/>
<stop offset="0.46208" stop-color="#FEB41C"/>
<stop offset="0.51533" stop-color="#FFB81C"/>
<stop offset="0.75707" stop-color="#E86031"/>
<stop offset="1" stop-color="#E2312D"/>
</linearGradient>
<linearGradient id="paint19_linear_6_1213" x1="38.1566" y1="-0.516828" x2="38.1566" y2="64.6439" gradientUnits="userSpaceOnUse">
<stop stop-color="#D60B51"/>
<stop offset="0.25505" stop-color="#E84E1B"/>
<stop offset="0.26855" stop-color="#EA591B"/>
<stop offset="0.31547" stop-color="#F27B1B"/>
<stop offset="0.36337" stop-color="#F8961C"/>
<stop offset="0.41207" stop-color="#FCA91C"/>
<stop offset="0.46208" stop-color="#FEB41C"/>
<stop offset="0.51533" stop-color="#FFB81C"/>
<stop offset="0.75707" stop-color="#E86031"/>
<stop offset="1" stop-color="#E2312D"/>
</linearGradient>
<linearGradient id="paint20_linear_6_1213" x1="37.2625" y1="-0.516848" x2="37.2625" y2="64.6439" gradientUnits="userSpaceOnUse">
<stop stop-color="#D60B51"/>
<stop offset="0.25505" stop-color="#E84E1B"/>
<stop offset="0.26855" stop-color="#EA591B"/>
<stop offset="0.31547" stop-color="#F27B1B"/>
<stop offset="0.36337" stop-color="#F8961C"/>
<stop offset="0.41207" stop-color="#FCA91C"/>
<stop offset="0.46208" stop-color="#FEB41C"/>
<stop offset="0.51533" stop-color="#FFB81C"/>
<stop offset="0.75707" stop-color="#E86031"/>
<stop offset="1" stop-color="#E2312D"/>
</linearGradient>
<linearGradient id="paint21_linear_6_1213" x1="53.1858" y1="-0.516815" x2="53.1858" y2="64.6439" gradientUnits="userSpaceOnUse">
<stop stop-color="#D60B51"/>
<stop offset="0.25505" stop-color="#E84E1B"/>
<stop offset="0.26855" stop-color="#EA591B"/>
<stop offset="0.31547" stop-color="#F27B1B"/>
<stop offset="0.36337" stop-color="#F8961C"/>
<stop offset="0.41207" stop-color="#FCA91C"/>
<stop offset="0.46208" stop-color="#FEB41C"/>
<stop offset="0.51533" stop-color="#FFB81C"/>
<stop offset="0.75707" stop-color="#E86031"/>
<stop offset="1" stop-color="#E2312D"/>
</linearGradient>
<linearGradient id="paint22_linear_6_1213" x1="53.309" y1="-81.6081" x2="53.309" y2="89.255" gradientUnits="userSpaceOnUse">
<stop stop-color="#D60B51"/>
<stop offset="0.25505" stop-color="#E84E1B"/>
<stop offset="0.26855" stop-color="#EA591B"/>
<stop offset="0.31547" stop-color="#F27B1B"/>
<stop offset="0.36337" stop-color="#F8961C"/>
<stop offset="0.41207" stop-color="#FCA91C"/>
<stop offset="0.46208" stop-color="#FEB41C"/>
<stop offset="0.51533" stop-color="#FFB81C"/>
<stop offset="0.75707" stop-color="#E86031"/>
<stop offset="1" stop-color="#E2312D"/>
</linearGradient>
<linearGradient id="paint23_linear_6_1213" x1="53.309" y1="-81.608" x2="53.309" y2="89.2551" gradientUnits="userSpaceOnUse">
<stop stop-color="#D60B51"/>
<stop offset="0.25505" stop-color="#E84E1B"/>
<stop offset="0.26855" stop-color="#EA591B"/>
<stop offset="0.31547" stop-color="#F27B1B"/>
<stop offset="0.36337" stop-color="#F8961C"/>
<stop offset="0.41207" stop-color="#FCA91C"/>
<stop offset="0.46208" stop-color="#FEB41C"/>
<stop offset="0.51533" stop-color="#FFB81C"/>
<stop offset="0.75707" stop-color="#E86031"/>
<stop offset="1" stop-color="#E2312D"/>
</linearGradient>
<linearGradient id="paint24_linear_6_1213" x1="40.6157" y1="-81.609" x2="40.6157" y2="89.2552" gradientUnits="userSpaceOnUse">
<stop stop-color="#D60B51"/>
<stop offset="0.25505" stop-color="#E84E1B"/>
<stop offset="0.26855" stop-color="#EA591B"/>
<stop offset="0.31547" stop-color="#F27B1B"/>
<stop offset="0.36337" stop-color="#F8961C"/>
<stop offset="0.41207" stop-color="#FCA91C"/>
<stop offset="0.46208" stop-color="#FEB41C"/>
<stop offset="0.51533" stop-color="#FFB81C"/>
<stop offset="0.75707" stop-color="#E86031"/>
<stop offset="1" stop-color="#E2312D"/>
</linearGradient>
<linearGradient id="paint25_linear_6_1213" x1="43.7564" y1="-81.6088" x2="43.7564" y2="89.2552" gradientUnits="userSpaceOnUse">
<stop stop-color="#D60B51"/>
<stop offset="0.25505" stop-color="#E84E1B"/>
<stop offset="0.26855" stop-color="#EA591B"/>
<stop offset="0.31547" stop-color="#F27B1B"/>
<stop offset="0.36337" stop-color="#F8961C"/>
<stop offset="0.41207" stop-color="#FCA91C"/>
<stop offset="0.46208" stop-color="#FEB41C"/>
<stop offset="0.51533" stop-color="#FFB81C"/>
<stop offset="0.75707" stop-color="#E86031"/>
<stop offset="1" stop-color="#E2312D"/>
</linearGradient>
<linearGradient id="paint26_linear_6_1213" x1="47.288" y1="-81.6085" x2="47.288" y2="89.2552" gradientUnits="userSpaceOnUse">
<stop stop-color="#D60B51"/>
<stop offset="0.25505" stop-color="#E84E1B"/>
<stop offset="0.26855" stop-color="#EA591B"/>
<stop offset="0.31547" stop-color="#F27B1B"/>
<stop offset="0.36337" stop-color="#F8961C"/>
<stop offset="0.41207" stop-color="#FCA91C"/>
<stop offset="0.46208" stop-color="#FEB41C"/>
<stop offset="0.51533" stop-color="#FFB81C"/>
<stop offset="0.75707" stop-color="#E86031"/>
<stop offset="1" stop-color="#E2312D"/>
</linearGradient>
<linearGradient id="paint27_linear_6_1213" x1="50.4432" y1="-81.6088" x2="50.4432" y2="89.2552" gradientUnits="userSpaceOnUse">
<stop stop-color="#D60B51"/>
<stop offset="0.25505" stop-color="#E84E1B"/>
<stop offset="0.26855" stop-color="#EA591B"/>
<stop offset="0.31547" stop-color="#F27B1B"/>
<stop offset="0.36337" stop-color="#F8961C"/>
<stop offset="0.41207" stop-color="#FCA91C"/>
<stop offset="0.46208" stop-color="#FEB41C"/>
<stop offset="0.51533" stop-color="#FFB81C"/>
<stop offset="0.75707" stop-color="#E86031"/>
<stop offset="1" stop-color="#E2312D"/>
</linearGradient>
<linearGradient id="paint28_linear_6_1213" x1="54.1487" y1="-81.609" x2="54.1487" y2="89.2552" gradientUnits="userSpaceOnUse">
<stop stop-color="#D60B51"/>
<stop offset="0.25505" stop-color="#E84E1B"/>
<stop offset="0.26855" stop-color="#EA591B"/>
<stop offset="0.31547" stop-color="#F27B1B"/>
<stop offset="0.36337" stop-color="#F8961C"/>
<stop offset="0.41207" stop-color="#FCA91C"/>
<stop offset="0.46208" stop-color="#FEB41C"/>
<stop offset="0.51533" stop-color="#FFB81C"/>
<stop offset="0.75707" stop-color="#E86031"/>
<stop offset="1" stop-color="#E2312D"/>
</linearGradient>
<linearGradient id="paint29_linear_6_1213" x1="56.1673" y1="-81.6094" x2="56.1673" y2="89.2552" gradientUnits="userSpaceOnUse">
<stop stop-color="#D60B51"/>
<stop offset="0.25505" stop-color="#E84E1B"/>
<stop offset="0.26855" stop-color="#EA591B"/>
<stop offset="0.31547" stop-color="#F27B1B"/>
<stop offset="0.36337" stop-color="#F8961C"/>
<stop offset="0.41207" stop-color="#FCA91C"/>
<stop offset="0.46208" stop-color="#FEB41C"/>
<stop offset="0.51533" stop-color="#FFB81C"/>
<stop offset="0.75707" stop-color="#E86031"/>
<stop offset="1" stop-color="#E2312D"/>
</linearGradient>
<linearGradient id="paint30_linear_6_1213" x1="58.7655" y1="-81.6081" x2="58.7655" y2="89.2551" gradientUnits="userSpaceOnUse">
<stop stop-color="#D60B51"/>
<stop offset="0.25505" stop-color="#E84E1B"/>
<stop offset="0.26855" stop-color="#EA591B"/>
<stop offset="0.31547" stop-color="#F27B1B"/>
<stop offset="0.36337" stop-color="#F8961C"/>
<stop offset="0.41207" stop-color="#FCA91C"/>
<stop offset="0.46208" stop-color="#FEB41C"/>
<stop offset="0.51533" stop-color="#FFB81C"/>
<stop offset="0.75707" stop-color="#E86031"/>
<stop offset="1" stop-color="#E2312D"/>
</linearGradient>
<linearGradient id="paint31_linear_6_1213" x1="61.1235" y1="-81.609" x2="61.1235" y2="89.2552" gradientUnits="userSpaceOnUse">
<stop stop-color="#D60B51"/>
<stop offset="0.25505" stop-color="#E84E1B"/>
<stop offset="0.26855" stop-color="#EA591B"/>
<stop offset="0.31547" stop-color="#F27B1B"/>
<stop offset="0.36337" stop-color="#F8961C"/>
<stop offset="0.41207" stop-color="#FCA91C"/>
<stop offset="0.46208" stop-color="#FEB41C"/>
<stop offset="0.51533" stop-color="#FFB81C"/>
<stop offset="0.75707" stop-color="#E86031"/>
<stop offset="1" stop-color="#E2312D"/>
</linearGradient>
<linearGradient id="paint32_linear_6_1213" x1="64.2982" y1="-81.6089" x2="64.2982" y2="89.2552" gradientUnits="userSpaceOnUse">
<stop stop-color="#D60B51"/>
<stop offset="0.25505" stop-color="#E84E1B"/>
<stop offset="0.26855" stop-color="#EA591B"/>
<stop offset="0.31547" stop-color="#F27B1B"/>
<stop offset="0.36337" stop-color="#F8961C"/>
<stop offset="0.41207" stop-color="#FCA91C"/>
<stop offset="0.46208" stop-color="#FEB41C"/>
<stop offset="0.51533" stop-color="#FFB81C"/>
<stop offset="0.75707" stop-color="#E86031"/>
<stop offset="1" stop-color="#E2312D"/>
</linearGradient>
<linearGradient id="paint33_linear_6_1213" x1="66.5397" y1="-81.6091" x2="66.5397" y2="89.2552" gradientUnits="userSpaceOnUse">
<stop stop-color="#D60B51"/>
<stop offset="0.25505" stop-color="#E84E1B"/>
<stop offset="0.26855" stop-color="#EA591B"/>
<stop offset="0.31547" stop-color="#F27B1B"/>
<stop offset="0.36337" stop-color="#F8961C"/>
<stop offset="0.41207" stop-color="#FCA91C"/>
<stop offset="0.46208" stop-color="#FEB41C"/>
<stop offset="0.51533" stop-color="#FFB81C"/>
<stop offset="0.75707" stop-color="#E86031"/>
<stop offset="1" stop-color="#E2312D"/>
</linearGradient>
<linearGradient id="paint34_linear_6_1213" x1="2.70635" y1="-81.6089" x2="2.70635" y2="89.2552" gradientUnits="userSpaceOnUse">
<stop stop-color="#D60B51"/>
<stop offset="0.25505" stop-color="#E84E1B"/>
<stop offset="0.26855" stop-color="#EA591B"/>
<stop offset="0.31547" stop-color="#F27B1B"/>
<stop offset="0.36337" stop-color="#F8961C"/>
<stop offset="0.41207" stop-color="#FCA91C"/>
<stop offset="0.46208" stop-color="#FEB41C"/>
<stop offset="0.51533" stop-color="#FFB81C"/>
<stop offset="0.75707" stop-color="#E86031"/>
<stop offset="1" stop-color="#E2312D"/>
</linearGradient>
<linearGradient id="paint35_linear_6_1213" x1="10.2684" y1="-81.6087" x2="10.2684" y2="89.2552" gradientUnits="userSpaceOnUse">
<stop stop-color="#D60B51"/>
<stop offset="0.25505" stop-color="#E84E1B"/>
<stop offset="0.26855" stop-color="#EA591B"/>
<stop offset="0.31547" stop-color="#F27B1B"/>
<stop offset="0.36337" stop-color="#F8961C"/>
<stop offset="0.41207" stop-color="#FCA91C"/>
<stop offset="0.46208" stop-color="#FEB41C"/>
<stop offset="0.51533" stop-color="#FFB81C"/>
<stop offset="0.75707" stop-color="#E86031"/>
<stop offset="1" stop-color="#E2312D"/>
</linearGradient>
<linearGradient id="paint36_linear_6_1213" x1="17.6898" y1="-81.6089" x2="17.6898" y2="89.2552" gradientUnits="userSpaceOnUse">
<stop stop-color="#D60B51"/>
<stop offset="0.25505" stop-color="#E84E1B"/>
<stop offset="0.26855" stop-color="#EA591B"/>
<stop offset="0.31547" stop-color="#F27B1B"/>
<stop offset="0.36337" stop-color="#F8961C"/>
<stop offset="0.41207" stop-color="#FCA91C"/>
<stop offset="0.46208" stop-color="#FEB41C"/>
<stop offset="0.51533" stop-color="#FFB81C"/>
<stop offset="0.75707" stop-color="#E86031"/>
<stop offset="1" stop-color="#E2312D"/>
</linearGradient>
<linearGradient id="paint37_linear_6_1213" x1="25.7656" y1="-81.6087" x2="25.7656" y2="89.2552" gradientUnits="userSpaceOnUse">
<stop stop-color="#D60B51"/>
<stop offset="0.25505" stop-color="#E84E1B"/>
<stop offset="0.26855" stop-color="#EA591B"/>
<stop offset="0.31547" stop-color="#F27B1B"/>
<stop offset="0.36337" stop-color="#F8961C"/>
<stop offset="0.41207" stop-color="#FCA91C"/>
<stop offset="0.46208" stop-color="#FEB41C"/>
<stop offset="0.51533" stop-color="#FFB81C"/>
<stop offset="0.75707" stop-color="#E86031"/>
<stop offset="1" stop-color="#E2312D"/>
</linearGradient>
<linearGradient id="paint38_linear_6_1213" x1="33.6113" y1="-81.6087" x2="33.6113" y2="89.2552" gradientUnits="userSpaceOnUse">
<stop stop-color="#D60B51"/>
<stop offset="0.25505" stop-color="#E84E1B"/>
<stop offset="0.26855" stop-color="#EA591B"/>
<stop offset="0.31547" stop-color="#F27B1B"/>
<stop offset="0.36337" stop-color="#F8961C"/>
<stop offset="0.41207" stop-color="#FCA91C"/>
<stop offset="0.46208" stop-color="#FEB41C"/>
<stop offset="0.51533" stop-color="#FFB81C"/>
<stop offset="0.75707" stop-color="#E86031"/>
<stop offset="1" stop-color="#E2312D"/>
</linearGradient>
<linearGradient id="paint39_linear_6_1213" x1="41.2971" y1="-81.6088" x2="41.2971" y2="89.2552" gradientUnits="userSpaceOnUse">
<stop stop-color="#D60B51"/>
<stop offset="0.25505" stop-color="#E84E1B"/>
<stop offset="0.26855" stop-color="#EA591B"/>
<stop offset="0.31547" stop-color="#F27B1B"/>
<stop offset="0.36337" stop-color="#F8961C"/>
<stop offset="0.41207" stop-color="#FCA91C"/>
<stop offset="0.46208" stop-color="#FEB41C"/>
<stop offset="0.51533" stop-color="#FFB81C"/>
<stop offset="0.75707" stop-color="#E86031"/>
<stop offset="1" stop-color="#E2312D"/>
</linearGradient>
<linearGradient id="paint40_linear_6_1213" x1="47.6641" y1="-81.6087" x2="47.6641" y2="89.2552" gradientUnits="userSpaceOnUse">
<stop stop-color="#D60B51"/>
<stop offset="0.25505" stop-color="#E84E1B"/>
<stop offset="0.26855" stop-color="#EA591B"/>
<stop offset="0.31547" stop-color="#F27B1B"/>
<stop offset="0.36337" stop-color="#F8961C"/>
<stop offset="0.41207" stop-color="#FCA91C"/>
<stop offset="0.46208" stop-color="#FEB41C"/>
<stop offset="0.51533" stop-color="#FFB81C"/>
<stop offset="0.75707" stop-color="#E86031"/>
<stop offset="1" stop-color="#E2312D"/>
</linearGradient>
<linearGradient id="paint41_linear_6_1213" x1="52.3581" y1="-81.6087" x2="52.3581" y2="89.2552" gradientUnits="userSpaceOnUse">
<stop stop-color="#D60B51"/>
<stop offset="0.25505" stop-color="#E84E1B"/>
<stop offset="0.26855" stop-color="#EA591B"/>
<stop offset="0.31547" stop-color="#F27B1B"/>
<stop offset="0.36337" stop-color="#F8961C"/>
<stop offset="0.41207" stop-color="#FCA91C"/>
<stop offset="0.46208" stop-color="#FEB41C"/>
<stop offset="0.51533" stop-color="#FFB81C"/>
<stop offset="0.75707" stop-color="#E86031"/>
<stop offset="1" stop-color="#E2312D"/>
</linearGradient>
<linearGradient id="paint42_linear_6_1213" x1="58.4329" y1="-81.6088" x2="58.4329" y2="89.2552" gradientUnits="userSpaceOnUse">
<stop stop-color="#D60B51"/>
<stop offset="0.25505" stop-color="#E84E1B"/>
<stop offset="0.26855" stop-color="#EA591B"/>
<stop offset="0.31547" stop-color="#F27B1B"/>
<stop offset="0.36337" stop-color="#F8961C"/>
<stop offset="0.41207" stop-color="#FCA91C"/>
<stop offset="0.46208" stop-color="#FEB41C"/>
<stop offset="0.51533" stop-color="#FFB81C"/>
<stop offset="0.75707" stop-color="#E86031"/>
<stop offset="1" stop-color="#E2312D"/>
</linearGradient>
<linearGradient id="paint43_linear_6_1213" x1="65.5633" y1="-81.6089" x2="65.5633" y2="89.2552" gradientUnits="userSpaceOnUse">
<stop stop-color="#D60B51"/>
<stop offset="0.25505" stop-color="#E84E1B"/>
<stop offset="0.26855" stop-color="#EA591B"/>
<stop offset="0.31547" stop-color="#F27B1B"/>
<stop offset="0.36337" stop-color="#F8961C"/>
<stop offset="0.41207" stop-color="#FCA91C"/>
<stop offset="0.46208" stop-color="#FEB41C"/>
<stop offset="0.51533" stop-color="#FFB81C"/>
<stop offset="0.75707" stop-color="#E86031"/>
<stop offset="1" stop-color="#E2312D"/>
</linearGradient>
<linearGradient id="paint44_linear_6_1213" x1="77.0068" y1="-81.6089" x2="77.0068" y2="89.2552" gradientUnits="userSpaceOnUse">
<stop stop-color="#D60B51"/>
<stop offset="0.25505" stop-color="#E84E1B"/>
<stop offset="0.26855" stop-color="#EA591B"/>
<stop offset="0.31547" stop-color="#F27B1B"/>
<stop offset="0.36337" stop-color="#F8961C"/>
<stop offset="0.41207" stop-color="#FCA91C"/>
<stop offset="0.46208" stop-color="#FEB41C"/>
<stop offset="0.51533" stop-color="#FFB81C"/>
<stop offset="0.75707" stop-color="#E86031"/>
<stop offset="1" stop-color="#E2312D"/>
</linearGradient>
<linearGradient id="paint45_linear_6_1213" x1="86.0878" y1="-81.6087" x2="86.0878" y2="89.2551" gradientUnits="userSpaceOnUse">
<stop stop-color="#D60B51"/>
<stop offset="0.25505" stop-color="#E84E1B"/>
<stop offset="0.26855" stop-color="#EA591B"/>
<stop offset="0.31547" stop-color="#F27B1B"/>
<stop offset="0.36337" stop-color="#F8961C"/>
<stop offset="0.41207" stop-color="#FCA91C"/>
<stop offset="0.46208" stop-color="#FEB41C"/>
<stop offset="0.51533" stop-color="#FFB81C"/>
<stop offset="0.75707" stop-color="#E86031"/>
<stop offset="1" stop-color="#E2312D"/>
</linearGradient>
<linearGradient id="paint46_linear_6_1213" x1="92.4067" y1="-81.6087" x2="92.4067" y2="89.2552" gradientUnits="userSpaceOnUse">
<stop stop-color="#D60B51"/>
<stop offset="0.25505" stop-color="#E84E1B"/>
<stop offset="0.26855" stop-color="#EA591B"/>
<stop offset="0.31547" stop-color="#F27B1B"/>
<stop offset="0.36337" stop-color="#F8961C"/>
<stop offset="0.41207" stop-color="#FCA91C"/>
<stop offset="0.46208" stop-color="#FEB41C"/>
<stop offset="0.51533" stop-color="#FFB81C"/>
<stop offset="0.75707" stop-color="#E86031"/>
<stop offset="1" stop-color="#E2312D"/>
</linearGradient>
<linearGradient id="paint47_linear_6_1213" x1="96.2807" y1="-81.6089" x2="96.2807" y2="89.2552" gradientUnits="userSpaceOnUse">
<stop stop-color="#D60B51"/>
<stop offset="0.25505" stop-color="#E84E1B"/>
<stop offset="0.26855" stop-color="#EA591B"/>
<stop offset="0.31547" stop-color="#F27B1B"/>
<stop offset="0.36337" stop-color="#F8961C"/>
<stop offset="0.41207" stop-color="#FCA91C"/>
<stop offset="0.46208" stop-color="#FEB41C"/>
<stop offset="0.51533" stop-color="#FFB81C"/>
<stop offset="0.75707" stop-color="#E86031"/>
<stop offset="1" stop-color="#E2312D"/>
</linearGradient>
<linearGradient id="paint48_linear_6_1213" x1="102.579" y1="-81.6089" x2="102.579" y2="89.2552" gradientUnits="userSpaceOnUse">
<stop stop-color="#D60B51"/>
<stop offset="0.25505" stop-color="#E84E1B"/>
<stop offset="0.26855" stop-color="#EA591B"/>
<stop offset="0.31547" stop-color="#F27B1B"/>
<stop offset="0.36337" stop-color="#F8961C"/>
<stop offset="0.41207" stop-color="#FCA91C"/>
<stop offset="0.46208" stop-color="#FEB41C"/>
<stop offset="0.51533" stop-color="#FFB81C"/>
<stop offset="0.75707" stop-color="#E86031"/>
<stop offset="1" stop-color="#E2312D"/>
</linearGradient>
<clipPath id="clip0_6_1213">
<rect width="40.953" height="62.7722" fill="white" transform="translate(32.7767 0.167847)"/>
</clipPath>
<clipPath id="clip1_6_1213">
<rect width="107.387" height="164.601" fill="white" transform="translate(-0.440125 -79.8135)"/>
</clipPath>
</defs>
</svg>
