<svg width="100" height="80" viewBox="0 0 139 147" fill="none" xmlns="http://www.w3.org/2000/svg">
<path d="M44.9369 141.245C40.2055 140.6 37.1869 140.554 35.0209 137.873C33.4386 135.915 33.7074 133.065 34.1529 130.584C39.7984 99.0924 57.9176 68.1537 56.3046 67.6007C54.9835 67.1629 43.8309 92.1796 43.6772 92.4484C43.1319 93.2933 43.4007 93.0014 32.2865 81.9179C28.446 78.0775 27.9237 78.1235 28.3999 77.3094C41.1579 56.3789 50.1906 48.168 72.1811 54.7045C73.1105 54.981 72.35 56.4096 74.3394 59.5895C78.5793 66.3487 89.5706 68.4226 97.1209 64.3363C101.43 62.0321 101.2 59.4436 102.559 59.4436C105.536 59.067 108.551 59.1135 111.515 59.5819C118.873 60.7417 124.503 62.155 129.834 67.9617C139.735 78.715 138.467 93.8924 137.738 108.517C137.738 109.131 137.446 109.408 136.824 109.4C124.019 109.3 111.1 106.919 99.5404 105.998C98.8722 105.944 98.227 105.836 98.2424 105.137C98.7109 86.0195 102.16 73.876 101.315 73.4075C100.309 72.8314 96.8752 91.304 96.6294 92.6635C95.3006 99.9911 95.3313 101.312 94.5248 100.483C91.7896 97.795 89.4283 94.7517 87.5045 91.4345C86.2064 89.3684 89.755 86.5495 89.1098 83.3466C88.7104 81.3188 88.0498 77.4399 85.9299 75.5428C85.0158 74.7286 84.555 74.9667 82.773 74.8284C82.3659 74.8284 82.2814 74.3522 82.0817 73.9682C80.4457 70.7499 80.0079 69.1753 75.8218 69.3596C73.8939 69.4518 72.9876 70.5195 72.3347 70.2199C71.421 69.8143 70.3941 69.7421 69.4327 70.0158C68.4713 70.2895 67.6363 70.8917 67.0733 71.7177C66.9602 71.9522 66.7739 72.1435 66.5425 72.2627C66.311 72.3818 66.0471 72.4224 65.7906 72.3782C65.013 72.3292 64.2434 72.5579 63.6188 73.0235C62.9942 73.4891 62.5552 74.1615 62.3802 74.9206C62.1037 75.7501 60.3755 75.4813 59.6996 77.3939C58.7395 80.1283 59.6996 90.3515 64.3696 94.1305C65.7131 95.0728 66.9958 96.099 68.21 97.2029C69.3391 98.2782 67.273 99.5993 68.9013 103.048C70.3914 106.205 72.35 105.936 72.9799 107.326C78.2259 118.901 84.8008 132.52 93.3035 142.597C93.8335 143.227 93.4264 143.78 92.7966 143.772C60.8517 143.749 44.5836 141.245 44.9369 141.245Z" fill="#38A1FF"/>
<path d="M85.4382 51.0336C86.1218 51.0336 86.6518 53 82.1969 52.1551C79.9387 51.7326 79.8158 51.4868 79.6699 51.8939C79.6699 51.9554 77.6114 57.5855 77.3656 57.9849C77.1198 58.3843 76.7511 58.3996 75.2303 58.3382C75.0951 58.3115 74.9696 58.2489 74.8669 58.157C74.7641 58.0651 74.6881 57.9473 74.6466 57.8159C74.6926 57.0017 76.4208 57.2091 76.682 57.0017C76.7281 57.0017 78.0415 51.7556 78.1567 51.387C78.5101 50.2809 65.6369 49.7279 70.6986 29.1968C73.3792 18.3207 74.6389 18.9505 73.287 18.5742C68.4634 17.2454 57.4874 14.4956 54.4381 12.176C54.2608 12.0727 54.1216 11.915 54.0411 11.7263C53.9607 11.5375 53.9433 11.3279 53.9917 11.1285C54.04 10.9291 54.1514 10.7506 54.3094 10.6196C54.4673 10.4887 54.6633 10.4122 54.8682 10.4017C57.8436 10.0853 60.8502 10.2382 63.7781 10.8549C67.0501 11.4463 70.8522 12.1606 74.1012 12.9748C75.0383 13.2052 73.7402 12.3373 76.9816 5.24779C79.7083 -0.712584 89.7011 0.439551 95.8996 2.52876C100.846 4.19551 110.493 7.90539 110.862 13.1207C111.3 19.0811 107.79 26.1091 108.443 26.6007C111.039 28.5209 111.93 34.4813 111.515 38.0145C111.223 40.434 110.593 42.4771 108.658 45.657C107.246 47.8298 105.374 49.6654 103.173 51.0336C102.405 51.579 102.682 47.654 102.321 46.4251C100.716 47.1932 101.553 47.3929 98.6033 48.4605C98.1194 48.6372 98.3882 48.3761 97.4972 53.7373C96.4834 59.882 96.276 59.6132 96.7675 59.7284C99.187 60.2891 99.2485 60.2354 99.2946 60.6501C99.2946 60.8345 98.9412 61.1417 98.5265 61.1187C95.8766 60.9958 95.1008 61.0649 95.1699 60.0357C95.1699 59.521 96.5525 51.0183 96.5525 51.0029C97.9504 42.9457 98.3575 43.491 98.0887 41.7398C98.0018 41.3186 98.0062 40.8836 98.1016 40.4643C98.197 40.045 98.3813 39.651 98.6419 39.3089C98.9024 38.9667 99.2333 38.6845 99.6123 38.4811C99.9912 38.2777 100.409 38.1579 100.838 38.1297C101.058 38.1265 101.272 38.0651 101.46 37.9517C101.647 37.8383 101.801 37.6771 101.906 37.4845C103.696 34.4122 101.983 32.1079 99.5019 32.876C97.2975 33.5519 95.746 38.8517 91.4985 39.543C91.4985 38.1758 91.4216 39.7965 91.8057 35.8255C92.328 30.3567 92.52 33.3676 87.8577 32.6609C87.3508 32.5841 87.2432 32.3076 87.5428 31.8928C90.2542 28.0524 90.0391 28.8205 92.2128 23.6589C92.5431 22.8908 85.8069 21.9998 75.407 19.1425C74.8002 18.9736 74.8923 19.1425 73.8708 22.6374C72.6649 26.785 73.8708 22.2764 76.4208 25.8787C76.5514 26.063 76.6513 26.5162 76.4208 26.7005C76.1904 26.8849 75.1842 26.0784 75.0997 26.0093C74.2087 25.3487 73.5636 25.5945 72.8876 26.401C72.0104 29.6676 71.4522 33.0117 71.2209 36.3862C70.8676 44.0671 73.1795 46.8783 77.212 48.9214C79.7986 50.1315 82.5886 50.8478 85.4382 51.0336ZM79.7851 3.52727C78.7482 4.15711 78.3334 4.39521 77.573 6.39993C76.607 9.06175 75.8368 11.7906 75.2687 14.5647C75.1996 14.8873 75.2687 15.0179 75.5606 15.1254C87.7732 19.3038 90.7073 19.8953 102.659 23.0598C108.304 24.5499 107.697 24.596 107.897 23.8279C109.495 17.5372 109.51 15.617 109.433 12.3065C109.334 8.51986 88.3416 -1.65733 79.7851 3.52727ZM55.5979 11.4616C59.0159 14.1346 85.5534 20.1411 103.988 25.0415C107.121 25.8787 107.336 26.209 107.429 25.6944C107.49 25.3641 107.728 25.1336 107.275 25.0261C84.4167 19.7186 77.7727 16.7154 75.3302 15.809C74.9866 15.694 74.6988 15.4541 74.5238 15.1368C74.3488 14.8196 74.2994 14.4482 74.3854 14.0962C74.4545 13.6968 74.3854 13.7966 70.7447 13.1514C55.7285 10.5092 55.5979 11.5922 55.5979 11.4616ZM102.451 40.6491C102.382 38.7442 99.9321 38.1835 99.2638 40.6491C98.9566 41.7935 99.8553 43.1607 101.015 42.7613C101.436 42.5829 101.795 42.2831 102.045 41.9001C102.296 41.5171 102.426 41.0682 102.421 40.6107L102.451 40.6491Z" fill="#191919"/>
<path d="M107.752 146.776C103.235 146.491 98.3501 145.094 92.7277 137.559C78.2031 118.003 75.1231 105.737 73.7559 105.299C72.6397 104.949 71.681 104.221 71.0455 103.239C70.4101 102.257 70.138 101.084 70.2764 99.9222C70.5299 97.2492 71.8126 98.578 69.5083 95.4442C67.3193 92.5101 63.7092 93.908 61.7737 83.7001C61.5586 82.5787 60.9134 79.1607 61.574 78.1315C63.2484 75.5123 61.6738 88.8079 68.2487 92.5024C69.7234 93.332 70.5529 94.438 71.8126 96.2584C71.9969 96.5272 72.1352 96.4043 72.4194 96.2584C75.0078 94.6684 76.4672 96.2584 77.2199 95.859C84.993 91.9263 84.3632 92.3411 84.079 91.719C82.4046 88.0321 86.3372 86.1426 85.4462 82.9704C84.8471 80.8582 85.354 81.6724 84.3401 79.4295C83.9254 78.5078 81.2678 79.7214 80.6303 79.7444C80.5225 79.7607 80.4124 79.7484 80.311 79.7086C80.2095 79.6688 80.1203 79.6031 80.0524 79.5179C79.9844 79.4327 79.9401 79.3312 79.9238 79.2235C79.9075 79.1157 79.9199 79.0056 79.9597 78.9042C80.0123 78.7682 80.111 78.6551 80.2385 78.5846C81.2524 78.0861 82.3339 77.7397 83.4492 77.5554C85.5384 77.3096 86.3602 79.4603 86.7827 81.5187C86.99 82.5019 87.8349 84.3453 86.5369 86.3884C85.523 87.9784 84.5706 89.9831 85.4155 91.4962C88.7797 97.4873 88.7413 97.9021 100.432 109.531C100.9 110 100.662 108.763 100.9 107.995C100.902 107.901 100.928 107.81 100.977 107.73C101.025 107.65 101.094 107.585 101.176 107.54C101.258 107.495 101.35 107.473 101.444 107.476C101.537 107.479 101.628 107.506 101.707 107.555C101.771 107.594 101.826 107.646 101.868 107.708C101.91 107.769 101.938 107.839 101.951 107.913C101.965 107.986 101.963 108.061 101.945 108.133C101.945 110.483 101.538 110.614 102.398 111.497C104.38 113.548 113.62 123.203 115.156 125.561C115.271 125.738 115.394 125.953 115.194 126.145C114.626 126.682 114.595 126.145 102.052 113.087C101.085 112.089 90.3236 101.236 88.1883 98.3476C87.7274 97.7178 87.6737 98.939 80.3691 102.372C78.6563 103.14 78.9021 104.961 75.9987 105.445C75.4994 105.522 75.5301 105.514 75.7606 105.975C79.9159 114.355 83.4876 122.719 92.8967 135.162C96.4222 139.824 100.823 144.564 106.599 145.193C109.838 145.567 113.105 144.778 115.816 142.966C117.496 141.937 119.044 140.707 120.425 139.302C125.51 133.926 129.512 123.387 131.071 116.567C132.208 111.597 131.923 110.975 132.668 110.944C134.304 110.875 129.911 135.27 118.843 142.851C113.489 146.369 112.36 146.346 107.752 146.776ZM78.518 100.59C78.7331 98.4782 76.3213 95.859 73.5331 97.0726C70.9293 98.2093 70.9139 101.405 72.9417 103.217C73.3084 103.545 73.7428 103.788 74.2141 103.929C74.6854 104.07 75.1819 104.105 75.6684 104.032C76.1549 103.959 76.6193 103.78 77.0286 103.507C77.4379 103.234 77.782 102.875 78.0364 102.454C78.3775 101.891 78.5449 101.24 78.518 100.583V100.59ZM81.7747 99.2847C80.9605 99.4997 80.0158 97.1263 79.6702 96.3582C79.4858 95.9511 79.432 96.0664 78.3414 96.4811C77.5733 96.7653 78.7254 96.9113 79.432 98.4782C80.4382 100.698 79.5473 101.551 80.2693 101.174L84.7703 98.6779C85.3694 98.3399 84.8471 98.4167 84.1481 97.1801C82.6734 94.5532 82.8424 94.3382 82.4276 94.5609C79.409 96.1816 80.9375 94.5609 81.9821 98.8545C81.9053 98.8468 81.9283 99.2386 81.8054 99.277L81.7747 99.2847ZM85.715 98.048C86.1743 97.783 86.6114 97.4797 87.0208 97.1417C87.3203 96.9266 87.0208 96.7576 86.2527 95.5441C84.8701 93.2398 84.9393 92.9633 84.5475 93.2398C83.8486 93.7928 83.4799 93.7314 83.7794 94.1154C84.6551 95.4288 85.2158 97.2415 85.715 98.0404V98.048Z" fill="#191919"/>
<path d="M13.4457 24.1196C18.1157 24.0582 18.8224 23.413 20.1128 33.1447C23.3157 57.5699 23.5154 57.6775 21.7411 58.3457C19.2679 59.2828 13.8836 59.8819 12.8313 59.8819C11.5793 59.8819 11.2951 57.8695 12.4856 57.5776C13.6762 57.2857 15.8345 57.0323 17.4321 56.7634C20.1589 56.3026 20.443 56.2795 20.4046 55.5806C20.1896 51.1794 17.2094 31.2629 16.5181 27.2688C16.3952 26.5545 16.1725 26.8233 15.5119 26.7849C13.8452 26.6927 14.0833 28.0522 12.4395 28.2519C9.36719 28.636 8.5991 28.9125 7.30103 27.9293C6.66351 27.4608 6.04136 27.7604 5.4192 27.9293C5.18878 27.9831 5.18878 28.2212 5.21182 28.4363C7.109 45.2882 7.7542 45.1499 7.25494 46.279C7.06682 46.5066 6.80635 46.6627 6.51701 46.7214C6.22766 46.7801 5.92693 46.7378 5.66499 46.6016C4.85082 46.087 2.35453 28.4747 2.65408 27.2457C2.7706 26.7227 3.04162 26.2468 3.43197 25.8798C3.82232 25.5127 4.31397 25.2714 4.84314 25.1873C7.65692 24.4846 10.5456 24.1261 13.4457 24.1196ZM12.3935 26.0245C12.3882 25.8729 12.3382 25.7263 12.2499 25.6031C12.1616 25.4798 12.0389 25.3854 11.8971 25.3317C11.7553 25.2779 11.6008 25.2673 11.453 25.301C11.3052 25.3348 11.1706 25.4114 11.0662 25.5214C10.9967 25.5949 10.9425 25.6815 10.9066 25.7761C10.8706 25.8707 10.8538 25.9715 10.8569 26.0726C10.86 26.1737 10.8831 26.2732 10.9249 26.3654C10.9666 26.4576 11.0261 26.5406 11.1 26.6098C11.2111 26.7146 11.3509 26.784 11.5015 26.8094C11.6522 26.8347 11.8069 26.8148 11.9462 26.7521C12.0856 26.6895 12.2031 26.5869 12.2841 26.4573C12.3651 26.3278 12.4058 26.1772 12.4011 26.0245H12.3935ZM9.78964 26.324C9.77312 26.1798 9.7041 26.0466 9.59575 25.95C9.48739 25.8533 9.34725 25.7999 9.20205 25.7999C9.05684 25.7999 8.91671 25.8533 8.80835 25.95C8.7 26.0466 8.63098 26.1798 8.61446 26.324C8.61446 26.4809 8.67677 26.6313 8.78769 26.7422C8.8986 26.8532 9.04903 26.9155 9.20589 26.9155C9.36275 26.9155 9.51318 26.8532 9.62409 26.7422C9.73501 26.6313 9.79732 26.4809 9.79732 26.324H9.78964Z" fill="#191919"/>
<path d="M6.40173 48.0302C7.63067 48.1224 5.72581 53.5374 5.99464 58.2151C6.22507 62.3551 7.53082 63.5917 8.75977 65.9805C10.3651 68.9606 12.7231 98.847 16.6634 110.53C22.04 126.475 34.3295 122.619 34.3295 124.647C34.3295 125.062 33.4692 125.146 33.0621 125.139C10.7875 124.586 13.0918 99.2925 8.17602 67.9852C7.99936 66.8638 6.63984 65.389 5.47234 62.8006C4.72266 60.8438 4.41575 58.7453 4.57367 56.6558C4.49687 56.7864 4.93468 47.9073 6.40173 48.0302Z" fill="#191919"/>
<path d="M22.8849 64.2291C22.2243 65.3812 22.3088 65.7653 23.3688 68.9375C24.6745 72.7779 28.7454 83.224 29.1986 84.2993C29.3522 84.6757 29.3522 84.5067 30.5274 82.7631C30.7578 82.4251 31.0036 82.1026 31.3646 82.2562C32.509 82.717 29.7669 85.582 30.0895 86.3501C34.2526 96.1279 34.9362 97.0573 34.0683 97.4029C33.5767 97.5949 33.2541 97.0035 32.9929 96.4428C30.0051 89.8833 27.7776 84.5912 23.9295 74.3372C19.8816 63.5378 20.5268 66.326 23.7374 59.8279C26.4488 54.3438 23.1921 46.1943 23.0999 45.7181C22.8695 44.5737 24.8435 45.096 25.6577 49.5125C27.0863 57.2625 26.1492 58.5145 22.8849 64.2291Z" fill="#191919"/>
<path d="M79.2554 40.1957C86.3448 40.2725 89.7782 36.4628 87.3203 41.7319C83.7871 49.2822 80.0542 48.9827 77.4811 42.7304C76.3443 39.9576 76.6515 40.1727 79.2554 40.1957ZM84.3017 44.7275C85.464 43.2674 86.4107 41.6482 87.1129 39.9192C86.5829 39.9192 85.331 40.4415 83.6258 40.8409C78.495 42.0468 77.4196 40.4876 77.8037 41.4016C78.6486 43.4064 79.1017 44.474 80.7147 46.0102C81.913 47.0778 83.1726 46.0179 84.3017 44.7275Z" fill="#191919"/>
<path d="M3.2915 40.7795C4.45132 41.1789 2.33907 45.2882 2.29298 51.4867C2.29298 55.5269 3.99814 57.0861 3.29918 57.6314C2.85369 57.9771 -1.24023 55.1966 2.20849 42.1083C2.13169 42.0699 2.75384 40.5721 3.2915 40.7795Z" fill="#191919"/>
<path d="M72.7114 73.1618C73.2952 70.9881 77.0819 70.2661 76.8514 71.5565C76.7362 72.1863 75.6763 71.641 74.5472 73.0235C73.4181 74.4061 74.0172 77.225 74.2937 78.861C74.9619 82.8397 75.5764 83.2161 74.5933 83.5387C73.6101 83.8613 73.4488 82.6938 73.203 81.6415C72.0278 76.5721 72.12 75.3432 72.7114 73.1618Z" fill="#191919"/>
<path d="M79.3631 74.5755C77.4659 76.6878 80.592 83.3779 80.6304 84.7681C80.6492 84.9369 80.6073 85.1069 80.5121 85.2476C80.417 85.3883 80.2748 85.4905 80.1111 85.5358C79.9474 85.5811 79.7729 85.5666 79.6189 85.4949C79.4649 85.4232 79.3415 85.2989 79.2709 85.1445C79.0558 84.7374 75.4919 75.8583 78.1341 73.8996C79.1557 73.1469 79.9314 73.9457 79.3631 74.5755Z" fill="#191919"/>
<path d="M70.2837 72.2715C69.9828 73.0024 69.8288 73.7854 69.8305 74.5758C69.6769 81.0738 71.7738 83.6623 70.4066 84.0847C69.5924 84.3382 69.3927 83.3781 69.2391 82.5485C68.2943 77.4023 67.7029 74.8062 68.8013 72.3022C69.2698 71.2346 70.637 71.5034 70.2837 72.2715Z" fill="#191919"/>
<path d="M12.6775 8.28138C12.1706 19.1729 12.6775 18.9194 12.2781 19.4955C11.8787 20.0716 11.2028 19.7643 11.0492 18.7274C10.6113 15.7549 11.172 13.3508 11.3641 10.5012C11.4612 9.10502 11.772 7.73207 12.2858 6.43028C12.3319 6.31507 12.4855 6.25362 12.5853 6.16913C12.7313 6.61462 12.7005 6.05391 12.7005 8.28138H12.6775Z" fill="#191919"/>
<path d="M18.8831 21.1931C19.6511 18.7199 23.8603 13.036 26.3105 10.6242C26.4912 10.5072 26.6915 10.424 26.9019 10.3784C26.7637 11.1465 27.6086 9.94061 21.0183 19.9258C19.9507 21.5464 19.7433 22.038 19.2825 21.869C18.8216 21.7001 18.9599 21.2699 18.8831 21.1931Z" fill="#191919"/>
<path d="M65.6751 74.6601C65.4524 79.2686 66.9885 84.2228 67.0346 85.4671C67.0346 86.1814 66.3049 86.2352 66.0899 85.7667C65.4227 83.9594 64.9089 82.0992 64.5537 80.2057C63.2403 73.4388 65.7212 73.746 65.6751 74.6601Z" fill="#191919"/>
<path d="M10.68 56.1414C10.465 58.6454 10.8413 60.5886 11.2254 63.3384C11.3176 64.045 10.7415 64.1065 10.4573 63.661C7.91492 59.1907 9.82747 49.5128 10.8567 52.3163C11.0564 52.3009 10.849 54.2365 10.68 56.1414Z" fill="#191919"/>
<path d="M24.2988 27.9139C23.6767 27.9139 22.9777 28.0368 22.8932 27.453C22.8754 27.33 22.9064 27.2049 22.9796 27.1045C23.0528 27.004 23.1624 26.9361 23.2849 26.9154C26.4034 25.9783 30.8122 26.1473 34.0766 26.4468C34.9292 26.516 35.0598 26.8002 35.1366 26.8693C33.8769 27.6604 24.2988 27.7603 24.2988 27.9139Z" fill="#191919"/>
<path d="M75.2304 35.2873C75.1536 34.5192 76.4517 33.7511 77.6269 31.5928C77.6907 31.5022 77.7744 31.4274 77.8716 31.3742C77.9688 31.3209 78.0769 31.2906 78.1876 31.2855C78.5947 31.4468 78.3489 32.3148 78.1876 32.7219C77.0585 35.8941 74.7312 35.1567 78.6945 36.6391C79.4626 36.9233 78.5332 37.6837 77.6883 37.5762C76.3211 37.4072 75.2535 36.7082 75.2304 35.2873Z" fill="#191919"/>
<path d="M85.5232 25.3103C85.2083 26.2397 85.0163 24.1735 82.7735 25.0338C81.8447 25.4519 81.0011 26.0378 80.2848 26.762C79.8624 26.954 79.5168 27.2766 79.5552 26.3472C79.5552 25.871 80.7534 24.2657 82.4048 23.6128C84.1944 22.9062 85.9457 24.0583 85.5232 25.3103Z" fill="#191919"/>
<path d="M81.5055 32.2231C80.7374 32.2999 80.4686 31.1401 80.7374 30.395C80.7876 30.289 80.8613 30.1957 80.953 30.1225C81.0447 30.0492 81.1519 29.9979 81.2665 29.9724C81.3811 29.9469 81.4999 29.948 81.614 29.9754C81.7281 30.0029 81.8344 30.056 81.9249 30.1308C82.0454 30.2314 82.1323 30.3665 82.1737 30.5179C82.2813 31.0633 82.1353 32.1616 81.5055 32.2231Z" fill="#191919"/>
<path d="M75.2382 31.7917C74.4705 31.7917 74.4091 30.4021 74.8697 29.8724C74.9388 29.7997 75.0255 29.7464 75.1215 29.7175C75.2174 29.6886 75.3193 29.6853 75.4169 29.7077C75.5146 29.7302 75.6047 29.7778 75.6783 29.8457C75.752 29.9136 75.8067 29.9995 75.8371 30.095C76.052 30.6324 75.8755 31.7764 75.2382 31.7917Z" fill="#191919"/>
<path d="M79.9698 10.6931C79.9693 9.77872 80.1505 8.87335 80.5026 8.02951C80.8548 7.18566 81.371 6.42014 82.0213 5.77733C82.6718 5.13485 83.443 4.62758 84.2906 4.28481C85.1381 3.94205 86.0452 3.77058 86.9594 3.7803C88.7663 3.88719 90.4674 4.66743 91.7273 5.96707C92.9871 7.2667 93.714 8.99133 93.7647 10.8006C93.7928 11.7252 93.6297 12.6457 93.2854 13.5043C92.9412 14.3629 92.4232 15.1411 91.7641 15.7901C91.105 16.4392 90.3189 16.945 89.4551 17.276C88.5913 17.607 87.6684 17.7559 86.7443 17.7135C84.9235 17.6551 83.1973 16.8891 81.9323 15.5782C80.6673 14.2673 79.9632 12.5148 79.9698 10.6931ZM92.7662 10.9082C92.7835 9.61363 92.3856 8.34759 91.6309 7.29567C90.8761 6.24375 89.8043 5.46129 88.5724 5.06301C81.7978 2.75874 78.0803 12.5058 84.4401 15.9392C85.3006 16.4361 86.2787 16.6931 87.2723 16.6832C88.266 16.6734 89.2388 16.3971 90.0893 15.8832C90.9398 15.3693 91.6368 14.6366 92.1076 13.7615C92.5785 12.8865 92.8059 11.9011 92.7662 10.9082Z" fill="#191919"/>
<path d="M87.4326 10.7648C87.5501 10.4253 87.7928 10.0128 88.0301 9.61034L88.0302 9.61022C88.4442 8.909 88.8404 8.23775 88.5232 8.03729C88.2212 7.84795 87.8924 8.40753 87.4941 9.08543L87.4917 9.08957C87.2313 9.53429 86.941 10.0282 86.6107 10.3953C86.4325 10.1626 86.3073 9.94599 86.1767 9.7194C86.0538 9.50511 85.9256 9.28236 85.7428 9.02889C85.3664 8.50659 84.7289 8.83687 85.0361 9.48206C85.1751 9.7724 85.2919 10.0051 85.3848 10.1925C85.6314 10.6887 85.7174 10.8623 85.6644 10.9361C85.636 10.9752 85.5669 10.986 85.4601 11.0021L85.4371 11.0052L85.3587 11.0182L85.0753 11.0543L84.9186 11.0743C83.8218 11.2141 83.6328 11.2387 83.5307 11.3478C82.7011 12.2003 84.5983 12.0314 85.5968 11.9315C85.9094 11.8985 85.7673 12.2042 85.583 12.5997L85.582 12.602C85.387 13.0225 85.1455 13.5435 85.351 13.8671C85.6744 13.4677 85.967 13.0445 86.2267 12.5997C86.4202 12.3117 86.4225 12.3155 86.7436 12.9147C86.9182 13.2433 87.0993 13.5685 87.2866 13.8901C87.3278 13.9506 87.3818 14.0012 87.4448 14.0384C87.4719 14.0575 87.4986 14.0772 87.5247 14.0975C87.5395 14.0619 87.5548 14.0266 87.5708 13.9915C87.7137 13.6766 87.7444 13.6082 87.1944 12.0552C87.1799 12.0152 87.1645 11.9799 87.1507 11.9492C87.1215 11.8823 87.1007 11.8332 87.11 11.7925C87.136 11.6827 87.3799 11.6251 88.2718 11.4144L88.2744 11.4138C88.6884 11.317 89.2406 11.1865 89.9749 11.0021C90.3129 10.9176 90.3513 10.8485 90.359 10.7486C90.362 10.702 89.8459 10.7247 89.2375 10.7514L89.2307 10.7517L89.2208 10.7521C88.5363 10.782 87.7398 10.8168 87.4326 10.7648Z" fill="#191919"/>
<path d="M103.227 20.8555C103.158 21.0168 102.974 21.132 102.843 21.2626C102.72 20.3485 102.674 21.8156 103.458 16.654C104.272 11.2313 104.034 11.2313 104.51 11.1545C106.507 10.8242 103.235 21.7695 103.227 20.8555Z" fill="#191919"/>
<path d="M77.0046 100.514C77.0046 102.05 76.2365 102.48 74.7003 102.818C73.7172 103.041 73.3331 101.804 74.2395 101.535C75.1458 101.267 75.6297 101.535 75.6835 100.767C75.7449 99.8072 75.0383 98.463 73.4637 99.2311C73.3331 99.3003 72.6956 99.7304 72.5497 99.5153C72.5098 99.4547 72.4848 99.3856 72.4768 99.3135C72.4688 99.2414 72.478 99.1684 72.5036 99.1005C74.178 96.4967 77.0046 97.9715 77.0046 100.514Z" fill="#191919"/>
</svg>
