<svg width="100" height="80" viewBox="0 0 94 80" fill="none" xmlns="http://www.w3.org/2000/svg">
<path d="M70.1997 48.0234C70.0418 60.5165 69.1286 58.8481 70.0615 62.4515C70.1627 62.7708 70.3291 63.0655 70.5497 63.3173C70.7709 63.5686 71.0417 63.7714 71.3452 63.9128C71.6487 64.0543 71.9781 64.1313 72.3129 64.1391C72.6476 64.1469 72.9803 64.0849 73.2897 63.957C77.2385 62.5996 75.7577 58.0633 73.8672 57.6487C73.1021 57.4809 72.7615 57.9942 72.88 58.3644C73.0281 58.8136 73.8425 58.0485 74.6718 60.2747C75.5948 62.7427 69.8986 65.5168 70.4367 58.0683C70.6242 55.4373 73.1614 53.9417 75.9897 55.1066C81.2663 57.3032 80.9603 67.0124 74.1732 68.1822C72.9787 68.3895 72.3518 68.3204 71.7348 68.4043C69.7604 68.6808 68.4968 67.1407 68.3191 67.1605C67.9341 67.195 68.4227 68.1773 63.773 68.1477C52.1634 68.0983 61.8677 67.9256 47.3409 67.738C34.285 67.5702 26.2195 69.2188 24.6351 67.3925C24.3537 67.0716 24.0674 67.9354 22.7791 68.3797C22.172 68.582 22.0338 68.6117 20.0297 68.5179C11.0412 68.1082 11.5595 56.3061 17.6308 55.0227C19.699 54.5834 21.2884 55.467 21.8709 56.6763C22.246 57.4661 22.4089 57.8856 22.3645 59.9982C22.2657 63.5818 19.4028 63.6016 18.4156 62.1208C17.7196 61.1335 18.1787 59.7613 18.9734 59.0505C19.5065 58.5569 19.8273 58.8876 19.9162 58.5569C20.1729 57.5697 18.0405 57.0416 17.1174 60.2204C16.3277 62.9303 20.1432 65.5118 22.1029 63.6756C24.0625 61.8394 22.9568 59.2332 22.6656 51.0788C22.6261 49.8399 22.4286 42.9788 22.0732 42.0606C21.9337 41.5866 21.6326 41.1763 21.2222 40.9011C20.8117 40.6258 20.3179 40.5029 19.8264 40.5537C19.3349 40.6042 18.8766 40.8249 18.5307 41.1776C18.1847 41.5303 17.9729 41.9928 17.9319 42.4851C17.8677 43.3193 18.2626 43.6106 18.386 43.2354C18.5256 42.8282 18.7492 42.4548 19.0425 42.1396C19.2457 41.9383 19.5169 41.8203 19.8027 41.8089C20.9528 41.6658 21.7475 43.112 21.6339 44.0449C21.4167 45.8367 19.9409 46.513 18.8155 46.202C17.69 45.891 17.1964 45.6689 16.7028 45.0519C15.0492 43.0034 15.2664 41.0043 16.7472 38.7979C16.9306 38.5659 17.1449 38.3599 17.384 38.1858C17.848 37.786 17.1372 38.1858 15.8045 36.6705C14.1311 34.7504 14.22 30.0364 17.4235 28.7728C22.2065 26.8823 23.169 32.8253 20.9429 33.6644C20.7446 33.7521 20.5229 33.772 20.3121 33.7211C20.1014 33.6702 19.9132 33.5513 19.7767 33.3828C19.6402 33.2143 19.563 33.0056 19.557 32.7889C19.551 32.5721 19.6165 32.3594 19.7434 32.1836C19.9385 32.0223 20.1564 31.8909 20.39 31.7937C20.622 31.6357 20.237 31.0533 19.5016 31.2359C18.2675 31.537 18.391 33.3979 19.2301 34.3505C20.0692 35.3032 22.1374 34.9922 22.7396 33.1659C24.0674 29.143 21.0564 28.373 21.1305 26.3393C21.1848 24.8585 21.091 23.2444 21.0071 20.9097C20.9528 19.4289 20.8639 19.0784 21.3427 18.4417C23.2579 15.9736 23.6528 11.7533 20.78 10.618C17.5617 9.34452 15.1035 12.6813 15.6959 15.5541C15.8736 16.4129 16.4313 17.3162 16.4856 15.4257C16.5399 13.5352 17.4728 12.2963 18.4601 11.9063C21.7178 10.5736 23.7712 16.3488 19.3189 18.7822C14.1114 21.6155 10.202 15.327 12.0975 10.0899C12.9514 7.72056 15.9723 5.01066 19.156 4.42327C20.1014 4.2356 21.0727 4.21888 22.0239 4.37391C22.6281 4.39521 23.2219 4.5372 23.7704 4.79152C24.3188 5.04583 24.8109 5.40733 25.2175 5.85473C25.3557 5.49933 25.6173 0.963104 30.4843 0.14372C34.6503 -0.557199 37.6169 3.89512 35.2525 7.02457C34.3986 8.15986 31.6492 8.81636 30.3164 6.65931C30.1714 6.37751 30.102 6.0629 30.115 5.74623C30.1279 5.42957 30.2229 5.12169 30.3905 4.85271C31.5356 3.47062 32.202 5.16862 32.5327 4.5911C32.8634 4.01358 32.1477 3.2633 31.2247 3.17445C29.7439 3.02637 28.263 4.73425 29.1318 6.75803C30.1536 9.16188 31.3086 8.81142 40.5834 8.92495C40.9487 8.92495 42.2913 9.1372 43.1354 8.51526C44.937 7.18746 43.856 4.86752 42.1185 5.1933C41.3929 5.32657 41.2498 6.56058 41.8322 6.18051C42.0549 6.05938 42.3142 6.02364 42.5613 6.07998C42.8085 6.13632 43.0266 6.28087 43.1749 6.48654C43.7869 7.41452 42.5036 8.37211 42.1185 8.37211C41.6015 8.44936 41.0748 8.43264 40.5637 8.32275C37.7946 7.33554 39.0187 4.48251 40.618 3.48543C41.7039 2.80919 44.1226 2.77957 45.095 3.53972C45.5443 3.86424 45.9223 4.27752 46.2056 4.75399C46.4721 5.09458 46.25 4.2357 47.5136 3.48049C49.6065 2.22673 53.0963 3.0165 53.5751 5.89915C53.9947 8.42641 50.3223 9.31983 49.2659 7.33554C48.9056 6.6593 49.8089 5.64741 50.7468 6.17557C50.9639 6.30391 51.0676 6.21012 51.0923 5.95838C51.117 5.70665 50.6579 5.14887 50.3223 5.12419C49.9395 5.06908 49.5495 5.14744 49.2178 5.34612C48.8861 5.54479 48.6329 5.85164 48.5009 6.21506C48.1306 7.20227 48.9451 8.42641 50.0903 8.80155C50.7122 9.00393 59.1775 8.80155 59.7402 8.72751C60.6189 8.62385 62.0207 8.72751 62.8845 7.57741C65.3525 4.33936 61.4679 1.65415 60.0512 3.77665C59.8538 4.07775 59.8686 4.97611 60.5004 4.45289C60.7391 4.26941 61.0406 4.18773 61.3393 4.22564C61.6379 4.26355 61.9095 4.41798 62.0947 4.65527C63.5756 6.66424 60.2092 9.31984 57.5684 7.22201C55.6729 5.7412 56.0876 1.36786 59.6563 0.237505C60.7467 -0.082637 61.9066 -0.0790587 62.995 0.247806C64.0834 0.57467 65.0533 1.21074 65.7869 2.07865C66.6656 3.09901 67.201 4.37002 67.3171 5.71158C67.6725 5.50427 68.2302 4.20115 71.5966 4.10243C75.733 3.97409 79.6769 7.00977 80.7135 10.5835C81.523 13.3773 80.6099 17.0003 78.0974 18.6539C75.1111 20.6283 70.1997 17.6667 70.7427 14.1226C71.3153 10.2231 76.1723 10.6674 76.123 15.7268C76.123 16.9411 76.7647 16.0082 76.9078 15.3122C77.1182 14.1002 76.853 12.8537 76.1674 11.8323C73.9166 8.56462 69.3557 10.4453 69.7505 14.093C69.7527 15.3355 70.1181 16.5503 70.8019 17.5877C71.9323 19.3351 71.6559 18.1307 71.5966 22.277C71.4831 30.0167 71.4831 25.7322 69.9085 29.7255C69.6842 30.3844 69.6077 31.0847 69.6844 31.7765C69.7612 32.4684 69.9894 33.1349 70.3527 33.7286C71.1228 34.8935 73.2206 35.2983 73.9166 33.4966C74.7804 31.2606 72.8899 30.535 72.337 31.2951C72.0409 31.69 72.569 31.6258 72.8948 31.9023C73.0513 32.0645 73.1474 32.2755 73.1672 32.5001C73.1869 32.7246 73.1291 32.9492 73.0034 33.1363C72.5345 33.8174 71.4239 33.7335 70.9253 32.5588C70.1553 30.7423 70.9994 28.4964 73.3934 28.2397C74.2835 28.1863 75.1679 28.4145 75.921 28.8921C76.6741 29.3697 77.2577 30.0723 77.589 30.9002C78.1863 32.4452 78.2455 34.8836 77.0065 36.4138C75.7676 37.944 74.81 37.5935 75.4171 38.0032C76.2316 38.5561 77.2533 40.3626 77.2632 41.9521C77.2632 45.1062 73.9561 46.8338 72.3272 45.7923C71.9269 45.5283 71.6094 45.1564 71.4115 44.7197C71.213 44.2832 71.142 43.7994 71.2067 43.3243C71.6608 40.9698 73.8376 41.1228 74.4102 43.0182C74.5138 43.3638 74.8001 43.0923 74.8594 42.7468C75.1654 40.8957 72.8158 39.5531 71.4041 40.8513C70.3577 41.8385 70.5354 43.1614 70.4564 44.0005C70.2875 45.3349 70.2018 46.6784 70.1997 48.0234ZM67.6725 12.1136C67.5836 11.7336 67.2875 11.8125 59.0837 11.7434C58.6691 11.7434 49.1179 11.4522 48.9155 11.4522C31.6393 11.4522 28.2088 12.0149 25.5482 12.0396C25.4539 12.0513 25.3655 12.0916 25.2949 12.1552C25.2243 12.2187 25.1749 12.3025 25.1533 12.395C24.3784 21.4773 26.1011 59.8452 26.1405 61.3705C26.2343 64.6135 26.106 64.8257 26.7279 64.8257C29.9117 64.8257 66.5767 65.0528 66.5865 65.0478C67.3171 64.959 67.0012 64.0606 67.1789 58.0337C68.3043 20.6036 67.6922 11.1709 67.6922 12.1136H67.6725Z" fill="#38A1FF"/>
<path d="M29.3983 12.8734C49.2017 12.3798 45.628 12.6414 65.7918 12.745C66.7345 12.745 66.8333 12.6611 66.8234 12.9573C66.7 16.5952 66.4779 64.1737 65.8362 64.0701C65.7375 64.0701 59.9129 63.9269 59.9129 63.9269C28.4357 63.2852 27.0833 64.1836 27.0635 63.4086C26.4416 41.2951 26.1158 38.5902 26.0269 31.1516C25.9282 23.1157 25.9233 14.4726 25.8196 13.1991C25.8196 12.9622 25.6617 13.0461 29.3983 12.8191V12.8734ZM64.3603 62.2339C64.7354 62.2339 64.7354 61.9673 64.7354 61.5675C64.8193 37.3809 65.5005 35.0017 65.2883 23.0663C65.1106 13.0659 65.2883 14.0531 64.9181 14.0481C58.8467 13.9741 45.2726 13.6779 39.9663 13.8853C33.895 14.1222 27.5176 14.1666 27.5078 14.1666C26.8907 14.1666 27.6361 41.0385 27.794 45.2637C28.3962 61.7304 27.794 61.7353 28.1988 62.2734C28.3025 62.4017 62.8351 62.1746 64.3603 62.2043V62.2339Z" fill="#38A1FF"/>
<path d="M47.3206 70.5269C67.7657 70.4677 66.1121 70.211 66.2553 71.0551C66.6403 73.3948 66.3935 78.3851 66.0085 79.5204C65.8308 80.014 67.3067 80.014 31.9004 79.9794C28.3218 79.9794 28.3612 80.1473 28.3119 79.5253C28.0453 75.9269 27.7689 73.4787 28.149 71.0501C28.2428 70.4775 28.1441 70.596 47.3206 70.5269ZM65.2187 79.1304C65.4754 79.1304 65.4458 79.1304 65.5544 77.5904C65.8209 73.7748 65.8209 73.9081 65.6728 71.445C65.6482 71.06 66.3639 71.1785 51.2793 71.1883C27.0927 71.1883 28.6377 71.0501 28.6426 71.5042C28.6199 73.4426 28.7038 75.3805 28.8943 77.309C29.0474 79.318 29.0227 79.318 29.2497 79.2835C30.7108 79.1847 61.3489 79.1206 65.2187 79.1304Z" fill="#191919"/>
<path d="M58.639 74.5447C58.639 73.1725 58.5452 72.7678 58.9648 72.4765C59.0499 72.4063 59.1538 72.3627 59.2636 72.3513C59.3734 72.3399 59.4841 72.3611 59.5818 72.4124C60.2542 72.7702 60.8765 73.215 61.4328 73.7352C61.5513 73.8734 61.6155 73.834 61.7191 73.7352C62.2868 73.1429 63.5652 71.7115 63.7873 72.5703C64.0687 73.6612 64.3105 76.613 63.9157 77.3731C63.8893 77.432 63.8481 77.4829 63.7959 77.5209C63.7438 77.5588 63.6826 77.5824 63.6185 77.5893C63.5543 77.5957 63.4895 77.5849 63.4307 77.5582C63.372 77.5315 63.3213 77.4898 63.2838 77.4373C63.042 77.1411 62.9482 75.8874 62.9778 75.3691C63.0716 73.4539 63.1703 73.7994 62.4447 74.4707C60.9639 75.8429 61.0281 74.4707 59.7447 73.9771C59.8291 75.1108 59.8291 76.2493 59.7447 77.383C59.6657 77.8766 58.9056 77.8766 58.792 77.1214C58.6567 76.2696 58.6055 75.4066 58.639 74.5447Z" fill="#191919"/>
<path d="M48.1898 74.6581C47.3457 75.3244 46.8077 74.3816 46.2598 74.0657C46.2598 75.0337 46.3091 76.0007 46.4079 76.9632C46.4079 78.1429 45.4207 78.0837 45.3466 76.8398C45.2308 75.5269 45.1863 74.2087 45.2133 72.891C45.2133 72.4615 45.4651 72.1604 45.8402 72.3973C46.4913 72.6173 47.0653 73.02 47.4938 73.5573C47.9479 74.0509 47.6764 73.2612 49.098 72.5109C49.7446 72.1654 49.9026 73.0588 49.9766 73.8337C50.2234 76.5486 50.1296 76.4301 49.9766 77.1014C49.96 77.1867 49.917 77.2646 49.8537 77.3241C49.7904 77.3837 49.71 77.4219 49.6239 77.4333C49.5378 77.4447 49.4502 77.4289 49.3736 77.3879C49.2969 77.347 49.2351 77.283 49.1967 77.2051C48.9055 76.5584 48.9549 76.5288 48.866 74.9986H48.8956C48.9006 73.7942 49.019 74.0016 48.1898 74.6581Z" fill="#191919"/>
<path d="M30.3853 74.209C29.4672 73.7154 31.7921 71.9384 34.2799 72.664C35.7014 73.0786 35.9137 74.3175 35.2029 74.9839C34.4921 75.6503 34.0676 75.7342 32.8928 76.1143C32.2857 76.3117 33.1594 78.5823 32.2363 78.5823C31.7427 78.5823 31.8365 77.985 31.7723 77.3384C31.644 76.0797 31.7723 76.5141 30.9579 76.3018C30.8932 76.2869 30.8348 76.2524 30.7906 76.2029C30.7464 76.1534 30.7186 76.0914 30.7111 76.0254C30.6716 75.7342 30.9036 75.6157 31.4318 75.4035C31.6341 75.3196 31.5848 75.2603 31.5848 74.5693C31.5058 74.5693 31.7378 73.6907 31.3972 73.8486C31.3429 73.7746 30.6124 74.3422 30.3853 74.209ZM32.9422 73.5821C32.4486 73.5821 32.3745 73.5475 32.4091 73.7252C32.6362 74.9691 32.5424 75.0629 32.799 74.9642C33.5197 74.6878 34.9067 74.2978 34.2502 73.8832C33.8523 73.659 33.3981 73.5545 32.9422 73.5821Z" fill="#191919"/>
<path d="M38.0609 72.3528C39.7145 72.4911 40.988 74.6086 39.2061 75.5909C38.8556 75.7834 39.5022 75.6748 40.0106 77.2099C40.1439 77.6196 39.907 78.128 39.517 77.8714C39.033 77.4405 38.614 76.9417 38.2732 76.3905C38.1991 76.2968 38.1892 76.3066 37.7104 76.0697C37.6478 76.5609 37.6148 77.0554 37.6117 77.5505C37.5722 78.2169 36.9602 78.1527 36.8565 77.6147C36.5801 76.1733 36.6492 76.5682 36.6245 73.2265C36.6344 72.3923 38.0609 72.4022 38.0609 72.3528ZM37.7351 73.3401C37.36 73.3401 37.355 73.3795 37.3995 73.6362C37.671 75.1565 37.2316 75.0825 38.8408 74.4605C39.2998 74.2828 38.4509 73.3154 37.7351 73.3351V73.3401Z" fill="#191919"/>
<path d="M40.9734 74.2535C41.0573 72.7036 40.6476 71.9682 43.3921 72.131C43.9449 72.1656 44.4731 72.5309 44.0584 72.9948C43.7376 73.3552 43.4365 73.2861 42.1433 73.3206C42.089 73.3206 41.7928 73.2614 41.8125 73.4342C41.9359 74.5152 41.9409 74.5102 42.1186 74.4609C44.3102 73.8833 44.8087 75.3049 43.5105 75.4481C42.0742 75.6208 42.0791 75.3888 42.0939 75.7442C42.1383 76.7314 42.0939 76.7709 42.3062 76.7314C42.9182 76.5735 44.0486 76.4896 44.5175 76.8697C44.9864 77.2497 44.4385 77.6495 43.9844 77.6792C41.6447 77.8272 41.4374 77.8421 41.3486 77.3879C41.1594 76.3518 41.0341 75.305 40.9734 74.2535Z" fill="#191919"/>
<path d="M53.8264 75.961C53.6878 75.0338 53.7297 74.0885 53.9498 73.1771C54.088 72.4959 54.5964 72.6391 54.6409 72.9599C54.9321 75.038 54.6409 76.3066 55.7317 76.4152C56.5166 76.504 56.5215 76.4152 56.6795 75.8327C56.9164 74.9492 56.5412 73.5917 56.9263 72.8711C57.1681 72.4219 57.7062 72.644 57.7802 73.261C57.9678 74.8455 58.2343 76.9088 56.8275 77.5998C56.5018 77.9453 54.1917 77.9355 53.8264 75.961Z" fill="#191919"/>
<path d="M51.2401 72.8812C51.2537 72.7849 51.3017 72.6966 51.3751 72.6328C51.4486 72.569 51.5426 72.5338 51.64 72.5338C51.7373 72.5338 51.8313 72.569 51.9048 72.6328C51.9783 72.6966 52.0262 72.7849 52.0398 72.8812C52.3053 74.0997 52.4491 75.3414 52.4692 76.5882C52.4988 77.1805 52.4692 77.8617 51.8226 77.8272C51.176 77.7926 51.2056 77.0917 51.176 75.8528C51.1399 74.8618 51.1613 73.8697 51.2401 72.8812Z" fill="#191919"/>
<path d="M82.7569 21.3538C82.2238 21.3538 82.3324 20.8257 82.4903 20.6233C82.9296 20.0606 85.0373 18.8068 85.4125 18.5896C102.585 8.6583 85.5013 20.2185 82.7569 21.3538Z" fill="#191919"/>
<path d="M7.90158 19.9912C9.73285 20.5885 10.0932 20.7711 10.6756 21.3289C10.8583 21.5016 10.8533 21.9706 10.4831 21.9706C10.0596 21.9058 9.64744 21.7811 9.25899 21.6004C3.63189 19.6901 -1.18076 18.308 0.418525 18.308C0.30006 18.5449 1.17868 17.8045 7.90158 19.9912Z" fill="#191919"/>
<path d="M83.5267 59.0651C83.4695 59.0176 83.4282 58.9539 83.4081 58.8824C83.388 58.811 83.3901 58.735 83.4141 58.6648C83.4379 58.5943 83.4828 58.5329 83.5426 58.4889C83.6025 58.4448 83.6745 58.4202 83.7488 58.4185C84.9285 58.4185 92.7966 61.7454 92.7225 62.1896C92.5498 63.1077 83.5267 59.2872 83.5267 59.0651Z" fill="#191919"/>
<path d="M1.01556 44.6617C-0.282621 44.2175 8.41964 42.5688 9.86096 42.554C9.95852 42.5364 10.0591 42.548 10.1501 42.5873C10.2411 42.6267 10.3184 42.6921 10.3724 42.7752C10.4263 42.8584 10.4545 42.9557 10.4534 43.0548C10.4522 43.1539 10.4218 43.2505 10.3659 43.3324C10.3287 43.3869 10.2811 43.4334 10.2258 43.4692C10.1704 43.5051 10.1085 43.5296 10.0436 43.5412C7.07962 44.2176 4.05494 44.593 1.01556 44.6617Z" fill="#191919"/>
<path d="M93.8925 38.9111C93.3199 39.6318 88.3542 40.7572 85.0076 40.5499C84.9059 40.5526 84.8066 40.5187 84.7278 40.4544C84.649 40.3901 84.5959 40.2996 84.5782 40.1994C84.5091 39.7305 85.0965 39.6219 85.595 39.5676C86.444 39.4985 93.1472 38.6396 93.8925 38.9111Z" fill="#191919"/>
<path d="M9.45652 61.5824C8.7556 63.1471 4.19469 66.6517 2.85209 67.7031C2.77311 67.7623 2.69413 67.9252 2.57073 67.8018C1.96853 67.1996 7.93622 61.8785 8.81484 61.2221C8.87636 61.1718 8.95159 61.1413 9.03071 61.1344C9.10984 61.1276 9.18919 61.1447 9.25844 61.1836C9.32769 61.2225 9.38363 61.2813 9.41896 61.3525C9.45429 61.4236 9.46738 61.5037 9.45652 61.5824Z" fill="#191919"/>
<path d="M48.9743 44.8345C48.9743 44.2718 49.0731 44.3409 49.3347 44.3409C50.7612 44.2126 50.7217 44.1928 50.7217 44.03C50.7217 41.868 50.6329 41.942 51.2153 41.8976C52.089 41.8383 52.1729 41.8976 52.2025 41.6261C52.3111 35.4165 52.2025 34.533 52.2025 31.4282C52.2025 28.1803 52.395 28.3234 52.0396 28.2988C51.1758 28.2395 51.0524 28.2988 51.0524 27.9977C51.0228 27.3165 50.9833 26.9364 50.9142 24.9176C50.9142 24.6165 51.1166 24.6905 48.8855 24.6905C48.5153 24.6905 48.5252 24.6905 48.4857 22.5779C48.4857 22.2324 48.8065 22.336 42.4439 22.4002C42.1231 22.4002 41.7973 22.4446 41.4567 22.4495C40.9335 22.4495 41.4567 23.4812 40.9631 23.496C38.6531 23.5651 38.8258 23.5651 38.8159 23.8119C38.7468 26.2799 38.8752 26.117 38.4507 26.1664C37.5869 26.2602 37.3845 26.1022 37.3993 26.5366C37.5819 31.2308 37.6017 33.1756 37.656 38.0721C37.656 38.3979 37.5573 38.3535 39.0677 38.3881C39.4428 38.3881 39.3392 38.1758 39.3787 40.8067C39.3787 41.2361 39.5021 41.0881 40.9335 41.0881C41.3975 41.0881 41.2988 41.1325 41.3037 42.8897C41.3037 43.4278 41.4024 43.4376 41.669 43.4376C43.1498 43.4376 43.1893 43.3586 43.1992 43.7831C43.2979 48.3984 43.2337 47.036 43.1992 47.7024C43.1992 47.9196 43.1547 47.8702 41.9553 47.9739C41.0273 48.0479 40.82 47.9985 40.815 48.2799C40.8101 48.5612 40.7854 48.9611 40.7756 49.3066C40.7657 49.6521 40.7756 49.6126 40.4646 49.6028C38.8357 49.5633 38.7814 49.4448 38.7567 50.1309C38.7123 51.3057 38.7567 51.3452 38.4803 51.3402C37.2068 51.3057 37.0883 51.3402 37.0982 51.7598C37.1616 52.3752 37.1616 52.9954 37.0982 53.6108C37.0982 53.8626 34.2896 53.5615 31.5896 53.7984C31.3773 53.7984 31.3724 54.2575 31.3576 49.5633C31.3576 49.0302 31.4119 48.4971 31.4316 47.964C31.4316 47.7912 31.5155 47.7419 31.6834 47.732C33.8157 47.6579 33.7762 47.7024 33.7861 47.3963C33.8157 46.5177 33.7861 50.2938 33.6578 34.2418C33.6578 33.6692 33.5048 33.6445 34.7585 33.6346C35.1583 33.6346 35.0103 33.6346 34.9856 32.2476C34.9856 30.984 34.9856 29.1774 34.877 26.4675C34.877 25.8801 35.1139 25.9739 36.0073 25.9739C36.3923 25.9739 36.3232 26.1615 36.3134 23.4762C36.3134 22.9826 36.2591 23.032 37.9176 23.0517C38.1298 23.0517 38.0854 23.0962 38.1348 21.5709C38.1348 21.255 37.9472 21.3389 40.0253 21.2994C40.9138 21.2994 40.8299 21.2994 40.8299 21.1168C40.8299 19.5669 40.7213 19.6607 41.4123 19.636L51.7138 19.5225C52.3259 19.5225 52.2075 19.4534 52.2864 20.7417C52.2864 21.1217 52.1976 20.9934 54.6014 21.0082C54.7051 21.0082 54.7298 21.0625 54.7396 21.1464C54.7396 21.3587 54.8038 21.5611 54.8038 21.7733C54.8581 24.4684 54.5077 23.4121 55.9934 23.7132C56.5216 23.8168 56.3982 23.7132 56.4179 26.2108C56.4179 27.9977 56.3883 27.8447 56.7782 27.8792C58.185 28.0026 58.1949 27.8792 58.185 28.3185C58.1307 31.2801 58.0172 31.1222 58.4516 31.1518C59.2216 31.211 59.5424 30.9938 59.5474 31.601C59.6066 42.2974 59.2857 41.6804 59.7349 41.71C60.7814 41.7742 60.9443 41.71 60.9591 42.0012C60.9936 42.5985 60.9936 40.6241 60.9295 49.3609C60.9295 50.9157 61.0183 50.9454 60.7271 50.9404C54.1177 50.7874 50.1294 50.8614 49.1965 50.8713C49.0286 50.8713 48.9694 50.9651 48.9546 50.5357C48.9743 50.4863 48.9743 45.0122 48.9743 44.8345Z" fill="#191919"/>
<path d="M29.1662 61.1382C29.1074 60.4059 29.0942 59.6707 29.1268 58.9367C29.1761 58.1371 29.1909 58.0581 31.1752 58.0729C31.4961 58.0729 31.1752 58.0729 31.2591 56.0985C31.3381 54.2623 31.3628 54.3906 32.8239 54.361C38.3868 54.2672 37.6711 54.0303 37.7599 55.6543C37.7599 55.7974 37.7254 55.9899 37.7994 56.064C37.8734 56.138 41.0078 55.985 42.5726 56.2614C43.002 56.3404 42.9823 56.9623 42.9921 57.4066C42.9921 57.678 42.8243 57.5546 46.5708 57.6484C47.2569 57.6484 47.3359 57.8508 47.326 57.5941C47.2421 55.7086 46.862 55.7234 50.0112 55.7283C50.3468 55.7283 50.258 55.9208 50.3123 53.8033C50.3123 53.2603 50.4999 53.2159 50.722 53.1961C51.3291 53.1404 51.9388 53.119 52.5483 53.1319C52.7852 53.1813 52.7359 53.1319 52.726 52.1447C52.726 51.6511 52.4496 51.429 60.0363 51.8239C62.5685 51.9522 62.5043 51.9917 62.5043 52.4162C62.4797 53.6502 62.2921 53.6058 62.6722 53.6107C63.9703 53.6354 63.8914 53.3936 63.8371 59.7759C63.8371 61.2567 63.9555 61.3949 63.457 61.3949C30.494 61.3801 29.2304 61.5479 29.1662 61.1382ZM61.2062 60.7779C63.4372 60.7779 63.2201 60.8124 63.2052 60.5113C63.146 59.3662 63.1411 61.0049 63.2052 55.9603C63.2299 53.902 63.2842 54.1833 62.919 54.2129C62.3118 54.2574 61.8034 54.2426 61.8775 53.4972C61.9712 52.4656 61.9762 52.4458 61.7491 52.4458C53.1851 52.4853 53.3578 51.814 53.3578 52.3027C53.3973 53.2356 53.4566 53.5713 53.0715 53.6305C52.4114 53.7803 51.7333 53.8351 51.0576 53.7934C50.7713 53.7934 50.9935 53.9069 50.949 55.3038C50.949 55.442 50.8306 56.0689 50.6381 56.1232C50.0655 56.2762 50.105 56.3305 48.1256 56.4095C47.8936 56.4095 48.0121 56.5674 48.0269 56.7501C48.1404 58.1272 47.9726 58.3395 45.8304 58.3148C42.8194 58.2901 42.6269 58.3148 42.4393 57.9002C41.5804 56.0393 44.3742 57.0265 37.5477 56.6563C37.444 56.6558 37.3441 56.6174 37.2668 56.5482C37.1895 56.4791 37.1402 56.3841 37.1281 56.2811C36.6641 54.3413 38.3769 54.7065 34.8575 54.9089C31.6096 55.0916 31.7478 54.8053 31.7675 55.0619C31.8643 56.0679 31.8845 57.0793 31.8268 58.0877C31.8268 58.5813 31.5948 58.5517 29.8524 58.6801C29.6352 58.6801 29.7438 58.6455 29.6845 60.7187C29.724 60.8766 61.4431 60.7779 61.2062 60.7779Z" fill="#191919"/>
<path d="M42.997 36.6552C44.8332 36.6898 44.7493 36.6996 44.769 36.9711C44.8381 38.0669 45.001 37.9238 41.8074 37.8497C41.4125 37.8497 41.5162 38.2051 41.4915 34.0934C41.4915 33.7479 41.531 33.743 41.2002 33.738C40.1538 33.738 40.0255 33.7726 40.0156 33.432C39.986 32.5089 40.0946 32.4053 39.8478 32.4152C39.1024 32.4152 38.8606 32.4546 38.8606 32.1239C38.8606 30.8257 38.8063 30.7715 39.1222 30.7468C40.0502 30.6777 41.4915 30.6579 42.4096 30.653C42.8143 30.653 42.7354 30.5 42.7354 32.6965C42.7551 35.5495 42.6959 36.9514 42.997 36.6552Z" fill="#191919"/>
<path d="M50.1741 30.9395C50.1741 32.4203 50.2679 32.4499 49.7792 32.4499C48.5897 32.4499 48.5502 32.366 48.5502 32.593C48.5502 33.5802 48.5008 33.5802 48.2145 33.5802C45.939 33.5802 46.1019 33.6592 46.0624 33.2594C45.9587 32.2722 46.2993 32.4203 44.8777 32.3512C44.784 32.3512 44.7099 32.3512 44.705 32.2179C44.6704 30.5347 44.5816 30.5939 45.0308 30.5939C50.5345 30.5693 50.1692 30.431 50.1741 30.9395Z" fill="#191919"/>
<path d="M42.0886 40.229C41.595 40.229 41.5357 40.1599 41.5209 39.8934C41.4716 39.0493 41.5703 39.074 41.8664 39.0394C42.9785 38.9851 44.0926 38.9985 45.2032 39.0789C45.5635 39.0789 45.5191 39.306 45.45 39.997C45.4056 40.3919 45.4648 40.2784 42.0886 40.229Z" fill="#191919"/>
</svg>
